<?xml version="1.0" standalone="no"?>
<!DOCTYPE svg PUBLIC "-//W3C//DTD SVG 1.1//EN" "http://www.w3.org/Graphics/SVG/1.1/DTD/svg11.dtd">
<svg xmlns="http://www.w3.org/2000/svg"><metadata>This SVG WebFont was generated by YouWorkForThem.
\(c\)2017 Oakes is a trademark of Samuel Oakes. All rights reserved.</metadata><defs><font horiz-adv-x="0" id="ywftsvg"><font-face ascent="1536" bbox="-1518 -649 2400 2056" cap-height="1536" descent="-512" font-family="" font-stretch="normal" font-weight="300" panose-1="0 0 4 0 0 0 0 0 0 0" underline-position="0" underline-thickness="0" unicode-range="U+000D-FB02" units-per-em="2048" x-height="1116"/><missing-glyph d="M193 1536h815v-1536h-815v1536zM901 109v1321h-602v-1321h602z" horiz-adv-x="1200"/><glyph d="M258 0v1008h-145v116h145v113q0 121 57.5 203t163.5 98q129 18 215 -37l-4 -117q-27 12 -62.5 22.5t-87 9.5t-81.5 -25q-27 -23 -40 -59t-14.5 -54t-1.5 -64v-90h240v-116h-240v-1008h-145zM965 1335q-41 0 -71 30t-30 73q0 41 30 70.5t71 29.5t70.5 -29.5t29.5 -70.5 q0 -43 -29.5 -73t-70.5 -30zM893 1126h143v-1126h-143v1126z" glyph-name="uniFB01" horiz-adv-x="1177" unicode="fi"/><glyph d="M258 0v1008h-145v116h145v113q0 121 57.5 203t163.5 98q129 18 215 -37l-4 -117q-27 12 -62.5 22.5t-87 9.5t-81.5 -25q-27 -23 -40 -59t-14.5 -54t-1.5 -64v-90h240v-116h-240v-1008h-145zM946 0l2 1536h137v-1536h-139z" glyph-name="uniFB02" horiz-adv-x="1280" unicode="fl"/><glyph d="M193 1536h815v-1536h-815v1536zM901 109v1321h-602v-1321h602z" glyph-name=".notdef" horiz-adv-x="1200"/><glyph glyph-name="glyph1"/><glyph glyph-name="glyph2" horiz-adv-x="681"/><glyph glyph-name="space" horiz-adv-x="532" unicode=" "/><glyph d="M225 1536h133l-12 -1114h-108zM293 -20q-41 0 -70.5 29.5t-29.5 70.5q0 43 29.5 71.5t70.5 28.5t70.5 -28.5t29.5 -71.5q0 -39 -30.5 -69.5t-69.5 -30.5z" glyph-name="exclam" horiz-adv-x="583" unicode="!"/><glyph d="M129 1538q41 0 65.5 -30.5t24.5 -73.5q0 -45 -16.5 -100.5t-32.5 -88.5l-16 -35h-54q-61 123 -61 224q0 43 24.5 73.5t65.5 30.5zM393 1538q41 0 65.5 -30.5t24.5 -73.5q0 -45 -16 -100.5t-33 -88.5l-16 -35h-53q-61 123 -62 224q0 43 24.5 73.5t65.5 30.5z" glyph-name="quotedbl" horiz-adv-x="524" unicode="&quot;"/><glyph d="M416 365h-289l14 104h289l74 500h-291l16 102h285l53 367h103l-52 -367h400l51 367h102l-51 -367h289l-16 -102h-287l-70 -500h287l-14 -104h-287l-55 -365h-101l52 365h-402l-49 -365h-102zM932 469l72 500h-400l-72 -500h400z" glyph-name="numbersign" horiz-adv-x="1536" unicode="#"/><glyph d="M760 844q219 -82 295 -135q154 -109 153 -287q0 -186 -127 -302t-321 -136v-162h-115v158q-211 12 -344 137t-147 299h147q18 -121 102 -207t242 -94v641q-70 25 -93.5 34t-84.5 36.5t-87 45t-70 51t-62.5 65.5t-33.5 77t-15 96q0 180 130 282.5t316 112.5v123h115v-127 q389 -35 452 -411h-125q-16 106 -95 189t-232 102v-588zM340 1171q0 -102 78 -163.5t227 -120.5v547q-127 -8 -216 -75t-89 -188zM1067 416q0 61 -22.5 109t-70.5 83t-95.5 57.5t-118.5 49.5v-598q143 16 224 93t83 206z" glyph-name="dollar" horiz-adv-x="1316" unicode="$"/><glyph d="M391.5 938q-110.5 0 -188.5 91t-78 218t78 218t188.5 91t188 -91t77.5 -218t-77.5 -218t-188 -91zM1198 1536h141l-1056 -1536h-142zM391.5 1044q65.5 0 112.5 59.5t47 143.5t-47 143.5t-112.5 59.5t-112 -59.5t-46.5 -143.5t46.5 -143.5t112 -59.5zM1091.5 -20 q-110.5 0 -188.5 91t-78 220q0 127 78 218t188.5 91t188.5 -91t78 -218q0 -129 -78 -220t-188.5 -91zM1091.5 88q65.5 0 111.5 58.5t46 144.5q0 84 -46 142.5t-111.5 58.5t-112.5 -58.5t-47 -142.5q0 -86 47 -144.5t112.5 -58.5z" glyph-name="percent" horiz-adv-x="1480" unicode="%"/><glyph d="M612 -47q-186 0 -321 123t-135 293q0 135 70.5 245.5t201.5 180.5q-170 166 -170 325q0 164 91 263.5t261 97.5q135 -2 229.5 -99.5t94.5 -236.5q0 -115 -77 -214.5t-212 -158.5l391 -389l195 367h151l-249 -459l299 -324h-191l-197 207q-178 -221 -432 -221zM565 862 q244 104 244 285q0 96 -57.5 160.5t-145.5 64.5q-115 0 -168 -71.5t-53 -180.5q0 -117 180 -258zM616 86q195 0 340 188l-448 437q-225 -117 -225 -332q0 -131 91.5 -212t241.5 -81z" glyph-name="ampersand" horiz-adv-x="1521" unicode="&amp;"/><glyph d="M217 1538q41 0 65.5 -30.5t24.5 -73.5q0 -45 -16.5 -100.5t-32.5 -88.5l-16 -35h-54q-61 123 -61 224q0 43 24.5 73.5t65.5 30.5z" glyph-name="quotesingle" horiz-adv-x="342" unicode="'"/><glyph d="M555 -459q-135 117 -248.5 400.5t-113.5 607.5q0 336 115.5 627.5t293.5 441.5h113q-182 -168 -286.5 -468t-104.5 -601q0 -283 84 -544t254 -464h-107z" glyph-name="parenleft" horiz-adv-x="819" unicode="("/><glyph d="M352 1618q135 -117 249 -400.5t114 -607.5q0 -336 -116 -627.5t-294 -441.5h-112q182 168 286.5 468t104.5 601q0 283 -84 544t-254 464h106z" glyph-name="parenright" horiz-adv-x="819" unicode=")"/><glyph d="M190 1110l107 152l-186 -13v84l186 -14l-107 151l72 43l82 -165l80 165l74 -43l-107 -151l187 14v-84l-187 13l107 -152l-74 -43l-80 166l-82 -166z" glyph-name="asterisk" horiz-adv-x="686" unicode="*"/><glyph d="M784 541h-440v90h440v479h86v-479h441v-90h-441v-482h-86v482z" glyph-name="plus" horiz-adv-x="1652" unicode="+"/><glyph d="M176 -2q-68 25 -67 96q0 41 28.5 71t71.5 30q41 0 68.5 -30t27.5 -71t-29.5 -103.5t-60.5 -105.5l-31 -41h-43z" glyph-name="comma" horiz-adv-x="407" unicode=","/><glyph d="M193 582h716v-99h-716v99z" glyph-name="hyphen" horiz-adv-x="1099" unicode="-"/><glyph d="M172 -20q-41 0 -70.5 29.5t-29.5 70.5t29.5 70.5t70.5 29.5t70.5 -29.5t29.5 -70.5t-29.5 -70.5t-70.5 -29.5z" glyph-name="period" horiz-adv-x="344" unicode="."/><glyph d="M618 1536h132l-648 -2048h-133z" glyph-name="slash" horiz-adv-x="892" unicode="/"/><glyph d="M698 -20q-268 0 -417.5 221t-149.5 567t149.5 567t417.5 221q305 0 446.5 -214t141.5 -574t-141.5 -574t-446.5 -214zM700 100q123 0 213.5 50.5t140.5 143.5t73.5 210t23.5 264q0 668 -451 668q-205 0 -319.5 -187.5t-114.5 -480.5q0 -299 107.5 -482.5t326.5 -185.5z " glyph-name="zero" horiz-adv-x="1396" unicode="0"/><glyph d="M385 1370l-313 -246v166l321 246h125v-1536h-133v1370z" glyph-name="one" horiz-adv-x="772" unicode="1"/><glyph d="M82 86q567 571 641 651q172 186 201 289q10 39 10 88q0 150 -91 235t-231 87q-141 4 -236 -85t-100 -237l-129 2q2 197 136.5 321t332.5 122q186 -4 312.5 -116t134.5 -302q2 -51 -7 -95.5t-20.5 -83t-53.5 -96t-73.5 -99.5t-115.5 -129t-144.5 -148.5t-193.5 -194.5 l-174 -174h839v-121h-1038v86z" glyph-name="two" horiz-adv-x="1222" unicode="2"/><glyph d="M557 -20q-205 0 -346 131t-141 315l133 2q0 -133 107.5 -229.5t246.5 -96.5q154 0 265.5 89.5t111.5 254.5q0 141 -97.5 240.5t-238.5 99.5h-123v111h117q113 0 190.5 79t77.5 191.5t-85 188.5t-224 76q-127 0 -210 -69t-93 -185l-129 2q10 184 143 280t289 96 q197 0 314.5 -107.5t117.5 -268.5q0 -104 -55.5 -188.5t-147.5 -131.5q129 -51 208 -162.5t79 -251.5q0 -215 -144.5 -340.5t-365.5 -125.5z" glyph-name="three" horiz-adv-x="1218" unicode="3"/><glyph d="M1079 324h-170v-324h-133v324h-745v88l714 1124h164v-1092h170v-120zM776 444v942l-586 -942h586z" glyph-name="four" horiz-adv-x="1208" unicode="4"/><glyph d="M610 -20q-186 0 -319 110.5t-146 257.5h127q31 -109 117 -176.5t215 -67.5q166 0 278.5 114t112.5 280t-113.5 280.5t-277.5 114.5q-174 0 -301 -127l-119 57l92 709h766v-121h-659l-72 -512q131 115 322 115q211 0 354 -147.5t143 -364.5q0 -223 -148.5 -372.5 t-371.5 -149.5z" glyph-name="five" horiz-adv-x="1261" unicode="5"/><glyph d="M659 -16q-207 0 -355 141t-171 350q-14 127 -14 260q0 348 123 565.5t393 245.5q45 4 63 4q195 0 330 -111.5t146 -240.5h-140q-10 74 -97 150.5t-232 76.5q-115 0 -202 -42t-138.5 -109.5t-80 -159.5t-36.5 -183t-2 -192q33 94 99.5 158t142 86.5t116.5 29.5t68 7 q227 0 367.5 -138.5t152.5 -351.5q10 -223 -147 -384.5t-386 -161.5zM662 102q170 0 283.5 117t113.5 283q0 168 -115 284.5t-280 116.5q-168 0 -284 -116.5t-116 -280.5q0 -172 116 -288t282 -116z" glyph-name="six" horiz-adv-x="1323" unicode="6"/><glyph d="M926 1415h-854v121h1015v-82l-823 -1454h-155z" glyph-name="seven" horiz-adv-x="1118" unicode="7"/><glyph d="M774 854q127 -55 203 -165.5t76 -248.5q0 -193 -138.5 -326.5t-341.5 -133.5q-199 0 -338 134t-139 326q0 137 76 249t203 165q-88 49 -140.5 135t-52.5 191q0 158 114 267t279 109q164 0 278 -109.5t114 -266.5q0 -104 -52.5 -190.5t-140.5 -135.5zM575.5 1446 q-114.5 0 -195.5 -80t-81 -194.5t81 -195.5t195.5 -81t194.5 81t80 195.5t-80 194.5t-194.5 80zM573.5 100q143.5 0 244 101.5t100.5 247.5q0 143 -100.5 242.5t-244 99.5t-243 -99.5t-99.5 -242.5q0 -145 99.5 -247t243 -102z" glyph-name="eight" horiz-adv-x="1148" unicode="8"/><glyph d="M664 -12q-201 0 -338.5 109.5t-149.5 240.5l139 -2q10 -74 99.5 -148.5t244.5 -74.5q33 0 50 2q139 12 230 109.5t129 241.5t36 331q-31 -88 -91.5 -150.5t-131 -87t-116.5 -34t-79 -9.5q-238 0 -383 146.5t-145 365.5q0 215 155.5 369.5t374.5 154.5q209 0 358.5 -141 t172.5 -352q14 -123 14 -260q0 -176 -31 -318.5t-96.5 -255t-177.5 -175t-264 -62.5zM694 635q168 0 279.5 116.5t111.5 282.5q0 168 -114.5 284t-280.5 116q-170 0 -284.5 -117t-114.5 -283q0 -172 117.5 -285.5t285.5 -113.5z" glyph-name="nine" horiz-adv-x="1323" unicode="9"/><glyph d="M293 844q-41 0 -70.5 29.5t-29.5 70.5t29.5 70.5t70.5 29.5t70.5 -29.5t29.5 -70.5t-29.5 -70.5t-70.5 -29.5zM293 -20q-41 0 -70.5 29.5t-29.5 70.5t29.5 70.5t70.5 29.5t70.5 -29.5t29.5 -70.5t-29.5 -70.5t-70.5 -29.5z" glyph-name="colon" horiz-adv-x="583" unicode=":"/><glyph d="M295 844q-41 0 -70.5 29.5t-29.5 70.5t29.5 70.5t70.5 29.5t70.5 -29.5t29.5 -70.5t-29.5 -70.5t-70.5 -29.5zM262 -2q-68 25 -67 96q0 41 28.5 71t71.5 30q41 0 68.5 -30t27.5 -71t-29.5 -103.5t-60.5 -105.5l-31 -41h-43z" glyph-name="semicolon" horiz-adv-x="604" unicode=";"/><glyph d="M1323 1200l-1020 -514l1020 -514v-119l-1130 572v125l1130 567v-117z" glyph-name="less" horiz-adv-x="1513" unicode="&lt;"/><glyph d="M131 782h1229v-94h-1229v94zM131 399h1229v-94h-1229v94z" glyph-name="equal" horiz-adv-x="1488" unicode="="/><glyph d="M1323 750v-125l-1130 -572v119l1017 514l-1017 514v117z" glyph-name="greater" horiz-adv-x="1513" unicode=">"/><glyph d="M498 520q0 86 37.5 159t92 124t109 98t92 106.5t37.5 125.5q0 129 -86 209.5t-221 80.5q-125 0 -211 -77.5t-96 -198.5h-121q6 172 127 283.5t301 111.5q186 0 307 -115.5t121 -293.5q0 -78 -38 -149t-92 -125t-107.5 -103t-91 -105.5t-37.5 -111.5v-156h-123v137z M567 -20q-41 0 -70.5 29.5t-29.5 70.5t29.5 70.5t70.5 29.5t71 -29.5t30 -70.5t-30 -70.5t-71 -29.5z" glyph-name="question" horiz-adv-x="1118" unicode="?"/><glyph d="M688 -10q-262 0 -430 166t-168 424q0 256 180.5 435t434.5 179q250 0 408.5 -148.5t158.5 -381.5q0 -164 -74 -267.5t-190 -103.5q-133 0 -168 108q-80 -117 -207 -116q-109 0 -175.5 71.5t-66.5 190.5q0 141 85 241.5t206 100.5q115 0 172 -80l6 68h113l-41 -357 q-18 -133 76 -133q74 0 117.5 74t43.5 201q0 199 -125.5 317.5t-338.5 118.5q-217 0 -361.5 -147.5t-144.5 -369t135 -358.5t354 -137v-96zM647 379q76 0 131.5 70.5t55.5 168.5q0 82 -39 128.5t-107 46.5q-78 0 -130 -71t-52 -175q0 -78 37.5 -123t103.5 -45z" glyph-name="at" horiz-adv-x="1239" unicode="@"/><glyph d="M1137 401h-762l-158 -401h-151l616 1536h154l616 -1536h-152zM1096 526l-338 865l-336 -865h674z" glyph-name="A" horiz-adv-x="1517" unicode="A"/><glyph d="M844 809q139 -29 229 -141.5t90 -264.5q0 -174 -119.5 -288.5t-293.5 -114.5h-678v1536h594q176 0 296.5 -113.5t120.5 -285.5q0 -133 -65 -222.5t-174 -105.5zM944 1120q0 121 -85 207t-206 86h-444v-565h444q123 0 207 76.5t84 195.5zM733 125q121 0 206 86t85 207 q0 123 -86 218t-205 95h-524v-606h524z" glyph-name="B" horiz-adv-x="1230" unicode="B"/><glyph d="M797 -20q-322 -4 -525.5 225t-203.5 563t203.5 561t525.5 227q152 0 278.5 -49t202.5 -123.5t120 -152.5t54 -150h-152q-14 55 -46.5 110.5t-91 111t-154 89t-211.5 33.5q-268 0 -433 -188t-165 -469t164.5 -468t433.5 -187q201 0 341 101t162 214h152q-8 -63 -55 -137 t-126 -144.5t-204 -117.5t-270 -49z" glyph-name="C" horiz-adv-x="1560" unicode="C"/><glyph d="M143 1536h449q164 0 300 -45t242.5 -136t166 -246t59.5 -357q0 -344 -220 -548t-548 -204h-449v1536zM590 125q276 0 453.5 163t177.5 464q0 342 -173.5 501.5t-457.5 159.5h-309v-1288h309z" glyph-name="D" horiz-adv-x="1468" unicode="D"/><glyph d="M238 1413v-582h704v-124h-704v-582h790v-125h-930v1536h930v-123h-790z" glyph-name="E" horiz-adv-x="1144" unicode="E"/><glyph d="M242 1413v-582h704v-124h-704v-707h-140v1536h930v-123h-790z" glyph-name="F" horiz-adv-x="1136" unicode="F"/><glyph d="M1415 772v-119v-653h-94l-35 262q-84 -139 -207 -205.5t-325 -66.5q-217 0 -382 113.5t-245 286.5t-80 374q0 348 195.5 570t507.5 222q252 0 422.5 -125.5t207.5 -347.5h-131q-49 170 -187 256t-306 86q-264 0 -422 -183t-158 -478q0 -287 166 -466t408 -179 q274 0 404 142t130 386h-438v125h569z" glyph-name="G" horiz-adv-x="1527" unicode="G"/><glyph d="M1319 1536v-1536h-137v707h-879v-707h-139v1536h139v-705h879v705h137z" glyph-name="H" horiz-adv-x="1482" unicode="H"/><glyph d="M164 1536h139v-1536h-139v1536z" glyph-name="I" horiz-adv-x="487" unicode="I"/><glyph d="M242 -20q-90 0 -154 18v143q68 -23 154 -22q80 0 138 57t58 139v1221h137v-1221q0 -139 -97 -237t-236 -98z" glyph-name="J" horiz-adv-x="745" unicode="J"/><glyph d="M1028 0l-766 717v-717h-139v1536h139v-743l692 741h181l-732 -774l801 -760h-176z" glyph-name="K" horiz-adv-x="1257" unicode="K"/><glyph d="M102 1536h140v-1411h579v-125h-719v1536z" glyph-name="L" horiz-adv-x="919" unicode="L"/><glyph d="M1624 1536v-1536h-137v1329l-569 -1329h-91l-565 1329v-1329h-139v1536h186l563 -1364l568 1364h184z" glyph-name="M" horiz-adv-x="1787" unicode="M"/><glyph d="M1321 1536v-1536h-125l-975 1303v-1303h-139v1536h125l977 -1303v1303h137z" glyph-name="N" horiz-adv-x="1464" unicode="N"/><glyph d="M797 -20q-324 0 -537 228t-213 560t213 560t537 228q322 0 535.5 -228t213.5 -560t-213.5 -560t-535.5 -228zM796.5 113q270.5 0 443.5 189.5t173 465.5q0 279 -173 468t-443.5 189t-444.5 -189t-174 -468q0 -276 174 -465.5t444.5 -189.5z" glyph-name="O" horiz-adv-x="1630" unicode="O"/><glyph d="M719 1536q174 0 298 -133t124 -309q0 -178 -124 -310.5t-298 -132.5h-477v-651h-140v1536h617zM711 770q125 0 214 95.5t89 226.5q0 129 -90 225t-213 96h-469v-643h469z" glyph-name="P" horiz-adv-x="1241" unicode="P"/><glyph d="M1608 119v-119h-31q-131 0 -234 104l-57 60q-207 -184 -489 -184q-324 0 -537 228t-213 560t213 560t537 228q322 0 535.5 -228t213.5 -560q0 -295 -172 -512l68 -72q61 -66 137 -65h29zM797 113q236 0 399 145l-268 283l88 88l266 -279q131 178 131 418q0 279 -173 468 t-443.5 189t-444.5 -189t-174 -468q0 -276 174.5 -465.5t444.5 -189.5z" glyph-name="Q" horiz-adv-x="1660" unicode="Q"/><glyph d="M1176 0h-156l-399 659h-400v-659h-139v1536h616q174 0 298 -133t124 -311q0 -158 -103.5 -282t-254.5 -144zM694 776q123 0 211 96.5t88 223.5q0 125 -89 221t-210 96h-473v-637h473z" glyph-name="R" horiz-adv-x="1247" unicode="R"/><glyph d="M590 -20q-227 0 -380 129t-167 307h147q18 -125 121 -214t281 -89t290.5 78.5t114.5 224.5q0 90 -67.5 158.5t-127 93t-194.5 69.5q-31 10 -47 17q-92 31 -140 49t-123 56t-113 75t-67.5 96.5t-29.5 130.5q0 188 150.5 291.5t351.5 103.5q242 0 372 -108.5t160 -286.5 h-125q-16 113 -122.5 194t-284.5 81q-141 0 -251 -68t-110 -197q0 -47 22.5 -87t50.5 -66.5t84 -56t92 -44t106 -40.5q29 -10 43 -17q25 -10 85 -31.5t89.5 -34t83 -37t83 -44t67.5 -51t56.5 -65.5t33 -79t14.5 -96q0 -205 -162 -323.5t-387 -118.5z" glyph-name="S" horiz-adv-x="1183" unicode="S"/><glyph d="M1087 1413h-471v-1411h-137v1411h-471v125h1079v-125z" glyph-name="T" horiz-adv-x="1155" unicode="T"/><glyph d="M655.5 -20q-237.5 0 -404.5 153.5t-167 372.5v1030h139v-1010q0 -174 127 -298t305 -124q182 0 316.5 124t134.5 298v1010h137v-1030q0 -217 -175 -371.5t-412.5 -154.5z" glyph-name="U" horiz-adv-x="1392" unicode="U"/><glyph d="M1382 1536l-616 -1536h-154l-618 1536h158l536 -1374l539 1374h155z" glyph-name="V" horiz-adv-x="1439" unicode="V"/><glyph d="M1999 1536l-486 -1536h-170l-329 1264l-336 -1264h-170l-488 1536h150l416 -1370l362 1370h144l344 -1372l413 1372h150z" glyph-name="W" horiz-adv-x="2039" unicode="W"/><glyph d="M1081 0l-438 662l-436 -662h-160l520 776l-510 760h158l428 -645l430 645h158l-512 -760l524 -776h-162z" glyph-name="X" horiz-adv-x="1290" unicode="X"/><glyph d="M721 729v-729h-137v725l-537 811h156l448 -688l451 688h153z" glyph-name="Y" horiz-adv-x="1302" unicode="Y"/><glyph d="M1255 125v-125h-1159v70l932 1343h-909v123h1102v-70l-932 -1341h966z" glyph-name="Z" horiz-adv-x="1353" unicode="Z"/><glyph d="M170 1673h383v-106h-264v-2110h264v-106h-383v2322z" glyph-name="bracketleft" horiz-adv-x="552" unicode="["/><glyph d="M100 1536l650 -2048h-134l-647 2048h131z" glyph-name="backslash" horiz-adv-x="1179" unicode="\"/><glyph d="M170 -543h264v2110h-264v106h383v-2322h-383v106z" glyph-name="bracketright" horiz-adv-x="552" unicode="]"/><glyph d="M1214 406l-514 1017l-512 -1017h-118l569 1130h125l569 -1130h-119z" glyph-name="asciicircum" horiz-adv-x="1402" unicode="^"/><glyph d="M193 0h1024v-98h-1024v98z" glyph-name="underscore" horiz-adv-x="1406" unicode="_"/><glyph d="M70 1536h141l188 -307h-114z" glyph-name="grave" horiz-adv-x="108" unicode="`"/><glyph d="M436 -8q-162 0 -269.5 92t-107.5 233q0 334 465 365l293 18v43q0 135 -81 206t-222 71q-123 0 -200.5 -69.5t-90.5 -176.5h-139q16 154 129 261.5t307 107.5q201 0 315.5 -109.5t114.5 -296.5l2 -461q0 -90 18.5 -125.5t63.5 -33.5v-117q-31 0 -57 6q-139 29 -152 170 q-45 -78 -153.5 -131t-235.5 -53zM442 117q145 0 260 88t115 203v170l-293 -21q-188 -12 -261 -76.5t-73 -165.5q0 -90 77 -144t175 -54z" glyph-name="a" horiz-adv-x="1091" unicode="a"/><glyph d="M664 1137q229 0 373.5 -166t144.5 -414q0 -246 -142.5 -409.5t-371.5 -163.5q-266 0 -410 217l-22 -201h-115v1536h143v-614q146 215 400 215zM647 109q176 0 284.5 129t108.5 319q0 193 -107.5 321t-285.5 128q-145 0 -248.5 -96.5t-134.5 -247.5v-209 q31 -152 134.5 -248t248.5 -96z" glyph-name="b" horiz-adv-x="1224" unicode="b"/><glyph d="M582 -12q-231 0 -376 164.5t-145 414.5q0 248 144.5 409t376.5 161q190 0 325 -102.5t156 -260.5h-135q-18 104 -113.5 172t-224.5 68q-178 0 -284.5 -120t-106.5 -327t108.5 -330.5t286.5 -123.5q123 0 212 68.5t122 176.5h129q-35 -160 -163 -265t-312 -105z" glyph-name="c" horiz-adv-x="1150" unicode="c"/><glyph d="M1116 1536v-1536h-123l-16 201q-139 -211 -408 -211q-229 0 -371.5 160.5t-142.5 406.5q0 248 144.5 414t373.5 166q254 0 402 -215v614h141zM590 109q145 0 249.5 96t135.5 248v209q-31 152 -135.5 248t-249.5 96q-174 0 -283.5 -129t-109.5 -319.5t109.5 -319.5 t283.5 -129z" glyph-name="d" horiz-adv-x="1236" unicode="d"/><glyph d="M1075 569q0 -37 -2 -57h-872q2 -186 115.5 -292.5t248.5 -108.5q141 -2 226.5 58t111.5 157h129q-6 -49 -33.5 -102.5t-78 -109t-139.5 -90t-201 -34.5q-233 2 -373.5 165.5t-140.5 405.5q0 248 138 410t371 162q229 0 364.5 -157t135.5 -407zM578 1008 q-162 0 -259.5 -103.5t-115.5 -275.5h741q-16 172 -111 275.5t-255 103.5z" glyph-name="e" horiz-adv-x="1142" unicode="e"/><glyph d="M258 0v1008h-145v116h145v113q0 121 57.5 203t163.5 98q129 18 215 -37l-4 -117q-27 12 -62.5 22.5t-87 9.5t-81.5 -25q-27 -23 -40 -59t-14.5 -54t-1.5 -64v-90h240v-116h-240v-1008h-145z" glyph-name="f" horiz-adv-x="751" unicode="f"/><glyph d="M532 -492q-213 0 -355 94.5t-142 252.5q0 78 42 142t116 101q-6 4 -30 21.5t-36 29t-29.5 31t-26 43t-8.5 49.5q0 61 35 104.5t103 88.5q-106 104 -107 276q0 166 116 277.5t296 111.5q131 0 242 -63q25 57 87 93t134 36v-131q-43 0 -78 -22.5t-45 -59.5q82 -106 82 -242 q0 -174 -115 -281.5t-307 -107.5q-154 0 -232 54q-41 -16 -59 -50t-8 -71q31 -104 192 -107l226 -2q346 -4 387 -250q29 -168 -98.5 -293t-381.5 -125zM791 741q0 111 -82 187t-203 76q-119 0 -199 -76t-80 -186.5t80 -187.5t199 -77q123 0 204 75.5t81 188.5zM877 -76 q-14 74 -85 104.5t-210 30.5h-248q-74 -18 -114 -74.5t-40 -127.5q0 -100 102.5 -162t237.5 -62q195 0 288.5 82t68.5 209z" glyph-name="g" horiz-adv-x="1056" unicode="g"/><glyph d="M668 1139q184 0 296.5 -113t112.5 -297v-729h-147v715q0 133 -82 213t-217 80q-141 0 -246.5 -85t-105.5 -214v-709h-148v1534h148v-580q59 84 165.5 134.5t223.5 50.5z" glyph-name="h" horiz-adv-x="1173" unicode="h"/><glyph d="M213 1335q-41 0 -70.5 30t-29.5 73q0 41 29.5 70.5t70.5 29.5t70.5 -29.5t29.5 -70.5q0 -43 -29.5 -73t-70.5 -30zM141 1126h144v-1126h-144v1126z" glyph-name="i" horiz-adv-x="425" unicode="i"/><glyph d="M268 1339q-41 0 -69.5 30t-28.5 71q0 39 29.5 68.5t68.5 29.5t69 -29.5t30 -68.5q0 -41 -30 -71t-69 -30zM-4 -506v129h45q94 0 124 45t30 127v1331h137l2 -1351q0 -281 -293 -281h-45z" glyph-name="j" horiz-adv-x="493" unicode="j"/><glyph d="M125 0v1536h147v-922l443 512h186l-485 -536l561 -590h-184l-521 549v-549h-147z" glyph-name="k" horiz-adv-x="946" unicode="k"/><glyph d="M195 0l2 1536h137v-1536h-139z" glyph-name="l" horiz-adv-x="528" unicode="l"/><glyph d="M1380 1135q174 0 277.5 -105.5t103.5 -286.5v-743h-145v731q0 125 -73 201t-197 76q-131 0 -227.5 -81t-96.5 -206v-721h-143v731q0 125 -74 201t-199 76q-131 0 -226 -81t-95 -206v-721h-146v1126h133l4 -172q55 82 154.5 131.5t208.5 49.5q223 0 338 -232 q55 102 167.5 167t235.5 65z" glyph-name="m" horiz-adv-x="1884" unicode="m"/><glyph d="M655 1139q180 0 291 -113t111 -299v-727h-144v715q0 133 -79.5 213t-212.5 80q-139 0 -243 -85t-104 -214v-709h-143v1126h121l18 -178q57 86 162.5 138.5t222.5 52.5z" glyph-name="n" horiz-adv-x="1181" unicode="n"/><glyph d="M578 -14q-236 0 -386.5 166.5t-150.5 412.5t150.5 413t386.5 167q238 0 388 -167t150 -413t-150 -412.5t-388 -166.5zM577.5 117q176.5 0 285 129t108.5 319q0 193 -107.5 321t-285.5 128q-176 0 -285 -128t-109 -321q0 -190 108.5 -319t285 -129z" glyph-name="o" horiz-adv-x="1157" unicode="o"/><glyph d="M655 1137q229 0 371.5 -161t142.5 -406.5t-145 -410.5t-375 -165q-256 0 -397 211v-717h-143v1638h127l16 -194q135 205 403 205zM635 121q176 0 284.5 129t108.5 319q0 193 -107.5 321t-285.5 128q-145 0 -248.5 -96.5t-134.5 -247.5v-209q31 -152 134.5 -248t248.5 -96 z" glyph-name="p" horiz-adv-x="1204" unicode="p"/><glyph d="M1085 1126v-1638h-141v717q-145 -211 -405 -211q-229 0 -371.5 165t-142.5 410.5t142 406.5t372 161q266 0 405 -205l10 194h131zM559 121q145 0 249.5 96t135.5 248v209q-31 152 -135 248t-250 96q-174 0 -283.5 -129t-109.5 -319.5t109.5 -319.5t283.5 -129z" glyph-name="q" horiz-adv-x="1171" unicode="q"/><glyph d="M690 1137l-2 -123q-170 16 -286.5 -82t-116.5 -281v-651h-148v1126h127l21 -223q23 51 47 87t69 76t119 57.5t170 13.5z" glyph-name="r" horiz-adv-x="741" unicode="r"/><glyph d="M483 -18q-203 0 -311.5 105.5t-116.5 231.5h129q12 -82 98.5 -152.5t201 -70.5t192.5 62.5t78 158.5q0 98 -78 146.5t-225 73.5q-160 27 -257.5 91t-97.5 201q0 143 114 227.5t267 84.5q180 0 281.5 -78t118.5 -227h-123q-18 98 -97 141t-155 45q-104 4 -181 -41 t-77 -133q0 -92 72.5 -133t207.5 -62q377 -59 377 -325q0 -145 -120 -245.5t-298 -100.5z" glyph-name="s" horiz-adv-x="970" unicode="s"/><glyph d="M508 -2q-295 0 -295 281l2 737h-172v114h172v406h143v-406h252v-116l-258 2v-717q0 -41 4 -65.5t17.5 -52t47.5 -41t87 -13.5h119v-129h-119z" glyph-name="t" horiz-adv-x="702" unicode="t"/><glyph d="M1057 1126v-1126h-127l-17 180q-59 -86 -165.5 -139t-219.5 -53q-184 0 -300.5 117.5t-116.5 300.5v720h147v-704q0 -135 83 -219t218 -84q141 0 246.5 86t105.5 217v704h146z" glyph-name="u" horiz-adv-x="1163" unicode="u"/><glyph d="M1110 1116l-448 -1116h-144l-446 1116h157l363 -940l362 940h156z" glyph-name="v" horiz-adv-x="1144" unicode="v"/><glyph d="M1589 1116l-336 -1116h-163l-256 942l-252 -942h-162l-338 1116h162l266 -938l250 938h155l248 -944l267 944h159z" glyph-name="w" horiz-adv-x="1652" unicode="w"/><glyph d="M641 559l408 -559h-179l-319 453l-318 -453h-180l408 559l-408 567h178l320 -460l319 460h179z" glyph-name="x" horiz-adv-x="1122" unicode="x"/><glyph d="M1069 1126l-666 -1638h-137l236 573h-43l-445 1065h148l391 -936l367 936h149z" glyph-name="y" horiz-adv-x="1118" unicode="y"/><glyph d="M82 96l672 905h-654v125h854v-90l-671 -911h694v-125h-895v96z" glyph-name="z" horiz-adv-x="1038" unicode="z"/><glyph d="M461 -635q-84 0 -140.5 76t-56.5 186v486q0 152 -28.5 225.5t-124.5 122.5v100q98 49 125.5 124t27.5 222v479q0 111 56.5 187t140.5 76h80v-101q-94 0 -131 -39t-37 -137v-495q0 -129 -29 -216.5t-119 -150.5q90 -61 119 -148.5t29 -218.5v-501q0 -88 38 -129t130 -41 v-107h-80z" glyph-name="braceleft" horiz-adv-x="653" unicode="{"/><glyph d="M248 1536h92v-1843h-92v1843z" glyph-name="bar" horiz-adv-x="587" unicode="|"/><glyph d="M113 -528q92 0 130 41t38 129v501q0 131 28.5 218.5t120.5 148.5q-92 63 -120.5 149t-28.5 218v495q0 98 -37 137t-131 39v105h82q84 0 140 -75t56 -185v-486q0 -147 27.5 -222t126.5 -124v-100q-98 -49 -126 -122t-28 -226v-486q0 -111 -56 -186.5t-140 -75.5h-82v107z " glyph-name="braceright" horiz-adv-x="653" unicode="}"/><glyph d="M799 377q-59 0 -112.5 27.5t-78 52t-67.5 71.5q-94 113 -183 113q-86 0 -140 -68.5t-50 -171.5h-82q-4 141 74 230.5t198 89.5q78 0 134.5 -39t117.5 -113q90 -113 183 -112q86 0 140 66.5t50 168.5h82q6 -135 -70.5 -225t-195.5 -90z" glyph-name="asciitilde" horiz-adv-x="1150" unicode="~"/><glyph d="M293 823q-41 0 -70.5 30t-29.5 71t29.5 70.5t70.5 29.5t70.5 -29.5t29.5 -70.5t-29.5 -71t-70.5 -30zM238 602h108l12 -1114h-133z" glyph-name="exclamdown" horiz-adv-x="583" unicode="¡"/><glyph d="M655 1128q-172 0 -291.5 -119.5t-119.5 -291.5q0 -170 119.5 -291t291.5 -121q176 0 293 107v-138q-123 -84 -272 -90v-186h-88v190q-205 25 -342 175.5t-137 353.5t137 353.5t342 174.5v193h88v-189q145 -6 272 -90v-137q-119 106 -293 106z" glyph-name="cent" horiz-adv-x="1097" unicode="¢"/><glyph d="M80 774h139q-43 150 -43 289q0 193 130 315.5t333 122.5q201 0 322.5 -110.5t132.5 -305.5h-152q-18 145 -91 212t-212 67q-137 0 -221 -84t-84 -217q0 -121 43 -289h473v-125h-440q33 -139 32 -260q0 -76 -28 -149q61 -14 201.5 -76t205.5 -62q186 0 191 213h139 q-2 -162 -90 -257t-230 -95q-104 0 -266 75t-221 75q-61 0 -100 -36t-41 -97h-140q4 96 59.5 166.5t141.5 93.5q35 68 35 151q0 98 -43 258h-176v125z" glyph-name="sterling" horiz-adv-x="1228" unicode="£"/><glyph d="M158 377l102 100q-92 115 -92 266.5t94 266.5l-102 100l76 80l102 -105q117 94 267.5 94.5t264.5 -94.5l103 103l76 -76l-101 -100q94 -117 94 -267.5t-94 -267.5l101 -100l-74 -80l-105 104q-115 -94 -266 -94t-268 94l-103 -104zM369 512q98 -98 234 -98t235 98 q96 94 96 231.5t-96.5 233.5t-233.5 95t-233 -97q-94 -96 -95 -232.5t93 -230.5z" glyph-name="currency" horiz-adv-x="1208" unicode="¤"/><glyph d="M739 707h435v-95h-435v-213h435v-90h-435v-309h-121v309h-428v90h428v213h-428v95h428v30l-528 799h131l457 -700l459 700h131l-529 -799v-30z" glyph-name="yen" horiz-adv-x="1357" unicode="¥"/><glyph d="M248 1536h92v-737h-92v737zM248 430h92v-737h-92v737z" glyph-name="brokenbar" horiz-adv-x="587" unicode="¦"/><glyph d="M1032 496q84 -74 84 -179q0 -141 -142.5 -227t-340.5 -86q-172 0 -306 65.5t-190 163.5l90 52q41 -80 150.5 -132.5t259.5 -52.5q156 0 264.5 57.5t108.5 159.5q0 70 -59.5 120t-148.5 77t-192.5 59.5t-192.5 66.5t-148.5 100.5t-59.5 158.5q0 109 84 182q-82 72 -82 179 q0 139 125 217.5t297 78.5q119 0 225.5 -38.5t171.5 -102.5l-76 -59q-109 109 -315 108q-133 0 -228.5 -53t-95.5 -147q0 -82 83 -136.5t201 -87t234.5 -70.5t199.5 -111t83 -181q0 -104 -84 -182zM315 903q0 -74 69 -127t157 -79.5t212 -66.5t195 -77q61 55 62 127 q0 92 -100.5 147.5t-277.5 105.5t-255 91q-62 -49 -62 -121z" glyph-name="section" horiz-adv-x="1249" unicode="§"/><glyph d="M235.5 1219q-40.5 0 -70.5 29.5t-30 70.5t30 70.5t70.5 29.5t70.5 -29.5t30 -70.5t-30 -70.5t-70.5 -29.5zM594 1219q-41 0 -70.5 29.5t-29.5 70.5t29.5 70.5t70.5 29.5t69.5 -29.5t28.5 -70.5t-28.5 -70.5t-69.5 -29.5z" glyph-name="dieresis" horiz-adv-x="108" unicode="¨"/><glyph d="M897 -20q-326 0 -557 231t-231 557t231 557t557 231t557.5 -231t231.5 -557t-231.5 -557t-557.5 -231zM897 63q295 0 501 206t206 499t-206 499t-501 206q-293 0 -498.5 -206t-205.5 -499t205.5 -499t498.5 -206zM887 344q-168 -2 -280.5 121t-112.5 305t111.5 303 t281.5 121q90 0 162.5 -32t113.5 -79t62.5 -93t21.5 -81h-117q-16 82 -81.5 130t-161.5 48q-125 0 -205 -89t-80 -228q0 -137 80 -226t205 -89q92 0 165.5 50t75.5 111h117q10 -74 -92 -172t-266 -100z" glyph-name="copyright" horiz-adv-x="1794" unicode="©"/><glyph d="M719 1536v-614h-78v143q-39 -72 -109.5 -114t-154.5 -42q-129 0 -221.5 93.5t-92.5 226.5q0 131 92.5 225t221.5 94q84 0 154.5 -43t109.5 -114v145h78zM391 979q102 0 176 72.5t74 177.5q0 102 -73.5 175t-176.5 73q-104 0 -177 -73t-73 -175q0 -104 73 -177t177 -73z " glyph-name="ordfeminine" horiz-adv-x="829" unicode="ª"/><glyph d="M236 571l311 377h119l-312 -377l312 -376h-119zM588 571l311 377h121l-311 -377l311 -376h-121z" glyph-name="guillemotleft" horiz-adv-x="1253" unicode="«"/><glyph d="M1305 776h-1112v94h1206v-618h-94v524z" glyph-name="logicalnot" horiz-adv-x="1589" unicode="¬"/><glyph d="M193 582h716v-99h-716v99z" glyph-name="uni00AD" horiz-adv-x="1208" unicode="­"/><glyph d="M897 1556q326 0 557.5 -231t231.5 -557t-231.5 -557t-557.5 -231t-557 231t-231 557t231 557t557 231zM897 63q295 0 501 206t206 499t-206 499t-501 206q-293 0 -498.5 -206t-205.5 -499t205.5 -499t498.5 -206zM1221 354h-129l-205 340h-129v-340h-113v830h295 q96 0 167 -74t71 -174q0 -80 -49.5 -145.5t-122.5 -88.5zM938 795q53 0 93 43t40 100t-40 100t-93 43h-180v-286h180z" glyph-name="registered" horiz-adv-x="1794" unicode="®"/><glyph d="M70 1337h635v-94h-635v94z" glyph-name="macron" horiz-adv-x="137" unicode="¯"/><glyph d="M508 1008q-113 0 -194 80.5t-81 193.5q0 115 80 194.5t195 79.5q113 0 193.5 -80.5t80.5 -193.5t-80.5 -193.5t-193.5 -80.5zM508 1085q82 0 139.5 57.5t57.5 139.5t-57.5 139.5t-139.5 57.5t-139.5 -57.5t-57.5 -139.5t57.5 -139.5t139.5 -57.5z" glyph-name="degree" horiz-adv-x="1013" unicode="°"/><glyph d="M1516 860v-94h-656v-369h-94v369h-655v94h655v369h94v-369h656zM111 88h1405v-88h-1405v88z" glyph-name="plusminus" horiz-adv-x="1626" unicode="±"/><glyph d="M82 829q317 324 360 377q55 70 56 127q0 72 -44 113t-110 43q-70 0 -114 -42t-46 -114h-73q0 100 68.5 163t168.5 60q94 0 157.5 -56t65.5 -150q2 -84 -52 -156t-261 -281l-65 -65h407v-70h-518v51z" glyph-name="uni00B2" horiz-adv-x="702" unicode="²"/><glyph d="M449 799q-94 -2 -161 59.5t-67 147.5l64 2q0 -61 49 -105.5t115 -46.5q72 -2 123 40t53 120q2 66 -44 113t-112 47h-57v51h53q53 0 89 36.5t36 88.5q0 53 -39 88t-105 35q-59 0 -97 -31t-44 -86h-59q4 86 66.5 132t133.5 44q90 -2 144.5 -52t56.5 -124q4 -100 -94 -150 q59 -23 95 -75t38 -117q2 -100 -64.5 -157.5t-172.5 -59.5z" glyph-name="uni00B3" horiz-adv-x="753" unicode="³"/><glyph d="M258 1536h141l-215 -307h-114z" glyph-name="acute" horiz-adv-x="108" unicode="´"/><glyph d="M1040 1024v-1024h-135v164q-55 -86 -143 -135t-191 -49q-176 0 -295 129v-621h-104v1536h133v-627q0 -123 87 -210t210 -87q125 0 214 87t89 210v627h135z" glyph-name="uni00B5" horiz-adv-x="1208" unicode="µ"/><glyph d="M649 727h-71q-170 0 -298 120t-128 285.5t128 284.5t298 119h151v-1843h-80v1034zM922 1536h79v-1843h-79v1843z" glyph-name="paragraph" horiz-adv-x="1255" unicode="¶"/><glyph d="M276.5 653q-34.5 0 -59 24.5t-24.5 59.5q0 33 24.5 58.5t59 25.5t59 -25.5t24.5 -58.5q0 -35 -24.5 -59.5t-59 -24.5z" glyph-name="periodcentered" horiz-adv-x="552" unicode="·"/><glyph d="M303 -532q-66 0 -133.5 34.5t-99.5 85.5l65 33q27 -33 75 -56.5t93 -23.5q55 0 92 38t37 93q0 78 -63.5 109t-155.5 -2l-63 45l86 176h75l-65 -143q109 23 185.5 -31.5t76.5 -153.5q0 -86 -59.5 -145t-145.5 -59z" glyph-name="cedilla" horiz-adv-x="108" unicode="¸"/><glyph d="M190 1468h-118v68h196v-768h-78v700z" glyph-name="uni00B9" horiz-adv-x="522" unicode="¹"/><glyph d="M391 909q-135 0 -231.5 93.5t-96.5 226.5q0 131 96.5 225t231.5 94q137 0 232.5 -93t95.5 -226t-95.5 -226.5t-232.5 -93.5zM391 979q102 0 176 72.5t74 177.5q0 102 -73.5 175t-176.5 73q-104 0 -177 -73t-73 -175q0 -104 73 -177t177 -73z" glyph-name="ordmasculine" horiz-adv-x="782" unicode="º"/><glyph d="M545 571l-312 377h119l312 -377l-312 -376h-119zM897 571l-311 377h121l311 -377l-311 -376h-121z" glyph-name="guillemotright" horiz-adv-x="1253" unicode="»"/><glyph d="M577.5 1051q40.5 0 70.5 -30t30 -71t-30 -70.5t-70.5 -29.5t-70.5 29.5t-30 70.5t30 71t70.5 30zM647 510q0 -86 -38 -158.5t-92 -124t-108.5 -98.5t-92 -106.5t-37.5 -124.5q0 -129 86 -210t221 -81q125 0 211 77.5t96 198.5h121q-6 -172 -127 -283.5t-301 -111.5 q-186 0 -307 115.5t-121 294.5q0 78 37.5 148.5t91 124.5t108 103.5t92 105.5t37.5 112v155h123v-137z" glyph-name="questiondown" horiz-adv-x="1114" unicode="¿"/><glyph d="M678 1741l-215 307h141l189 -307h-115zM1137 401h-762l-158 -401h-151l616 1536h154l616 -1536h-152zM1096 526l-338 865l-336 -865h674z" glyph-name="Agrave" horiz-adv-x="1517" unicode="À"/><glyph d="M803 1741h-115l189 307h141zM1137 401h-762l-158 -401h-151l616 1536h154l616 -1536h-152zM1096 526l-338 865l-336 -865h674z" glyph-name="Aacute" horiz-adv-x="1517" unicode="Á"/><glyph d="M578 1698h-115l205 350h145l205 -350h-115l-162 280zM1137 401h-762l-158 -401h-151l616 1536h154l616 -1536h-152zM1096 526l-338 865l-336 -865h674z" glyph-name="Acircumflex" horiz-adv-x="1517" unicode="Â"/><glyph d="M408 1747q-10 106 43 176t143 70q115 0 184 -109q41 -68 109 -67q51 0 79.5 43t20.5 112h88q12 -106 -41 -174.5t-145 -68.5q-117 0 -184 108q-41 68 -107 68q-53 0 -81 -44t-19 -114h-90zM1137 401h-762l-158 -401h-151l616 1536h154l616 -1536h-152zM1096 526l-338 865 l-336 -865h674z" glyph-name="Atilde" horiz-adv-x="1517" unicode="Ã"/><glyph d="M563 1731q-41 0 -70.5 29.5t-29.5 70.5t29.5 70.5t70.5 29.5t71 -29.5t30 -70.5t-30 -70.5t-71 -29.5zM922 1731q-41 0 -71 29.5t-30 70.5t30 70.5t71 29.5t69.5 -29.5t28.5 -70.5t-28.5 -70.5t-69.5 -29.5zM1137 401h-762l-158 -401h-151l616 1536h154l616 -1536h-152z M1096 526l-338 865l-336 -865h674z" glyph-name="Adieresis" horiz-adv-x="1517" unicode="Ä"/><glyph d="M848 1503l604 -1503h-152l-163 401h-762l-158 -401h-151l600 1497h-19q-102 55 -102 172q0 82 58.5 139.5t139.5 57.5q80 0 137.5 -57.5t57.5 -139.5q0 -107 -90 -166zM614 1669q0 -55 38 -92t91.5 -37t90 37t36.5 92q0 53 -36.5 91t-90 38t-91.5 -38t-38 -91zM422 526 h674l-338 865z" glyph-name="Aring" horiz-adv-x="1517" unicode="Å"/><glyph d="M682 1536h1012v-121h-690v-592h604v-110h-604v-592h690v-121h-826v344h-516l-131 -344h-155zM868 455v960h-88l-381 -960h469z" glyph-name="AE" horiz-adv-x="1759" unicode="Æ"/><glyph d="M797 113q201 0 341 101t162 214h152q-6 -49 -34.5 -104.5t-82 -113.5t-123 -106.5t-168 -82t-208.5 -39.5l53 -2l-58 -123q109 23 186 -31.5t77 -153.5q0 -86 -59.5 -145t-145.5 -59q-66 0 -133.5 34.5t-100.5 85.5l66 33q27 -33 75 -56.5t93 -23.5q55 0 92 38t37 93 q0 78 -63.5 109t-155.5 -2l-64 45l76 156h-14q-322 -4 -525.5 225t-203.5 563t203.5 561t525.5 227q152 0 278.5 -49t202.5 -123.5t120 -152.5t54 -150h-152q-14 55 -46.5 110.5t-91 111t-154 89t-211.5 33.5q-268 0 -433 -188t-165 -469t165 -468t433 -187z" glyph-name="Ccedilla" horiz-adv-x="1560" unicode="Ç"/><glyph d="M514 1741l-215 307h141l189 -307h-115zM238 1413v-582h704v-124h-704v-582h790v-125h-930v1536h930v-123h-790z" glyph-name="Egrave" horiz-adv-x="1144" unicode="È"/><glyph d="M639 1741h-115l189 307h141zM238 1413v-582h704v-124h-704v-582h790v-125h-930v1536h930v-123h-790z" glyph-name="Eacute" horiz-adv-x="1144" unicode="É"/><glyph d="M414 1698h-115l205 350h145l205 -350h-115l-161 280zM238 1413v-582h704v-124h-704v-582h790v-125h-930v1536h930v-123h-790z" glyph-name="Ecircumflex" horiz-adv-x="1144" unicode="Ê"/><glyph d="M399 1731q-41 0 -70.5 29.5t-29.5 70.5t29.5 70.5t70.5 29.5t71 -29.5t30 -70.5t-30 -70.5t-71 -29.5zM758 1731q-41 0 -71 29.5t-30 70.5t30 70.5t71 29.5t69.5 -29.5t28.5 -70.5t-28.5 -70.5t-69.5 -29.5zM238 1413v-582h704v-124h-704v-582h790v-125h-930v1536h930 v-123h-790z" glyph-name="Edieresis" horiz-adv-x="1144" unicode="Ë"/><glyph d="M164 2048h143l189 -307h-115zM377 1536h139v-1536h-139v1536z" glyph-name="Igrave" horiz-adv-x="700" unicode="Ì"/><glyph d="M369 2048h141l-215 -307h-115zM164 1536h139v-1536h-139v1536z" glyph-name="Iacute" horiz-adv-x="694" unicode="Í"/><glyph d="M371 2048h145l205 -350h-115l-162 280l-163 -280h-117zM375 1536h139v-1536h-139v1536z" glyph-name="Icircumflex" horiz-adv-x="905" unicode="Î"/><glyph d="M266 1731q-41 0 -71.5 29.5t-30.5 70.5t30.5 70.5t71.5 29.5t71 -29.5t30 -70.5t-30 -70.5t-71 -29.5zM625 1731q-41 0 -71 29.5t-30 70.5t30 70.5t71 29.5t69.5 -29.5t28.5 -70.5t-28.5 -70.5t-69.5 -29.5zM377 1536h139v-1536h-139v1536z" glyph-name="Idieresis" horiz-adv-x="907" unicode="Ï"/><glyph d="M711 1536q338 0 553 -194.5t215 -573.5t-215 -573.5t-553 -194.5h-408v719h-160v100h160v717h408zM709 125q281 0 455.5 163t174.5 480q0 315 -176 480t-454 165h-269v-594h281v-100h-281v-594h269z" glyph-name="Eth" horiz-adv-x="1587" unicode="Ð"/><glyph d="M442 1747q-10 106 43.5 176t143.5 70q115 0 184 -109q41 -68 109 -67q51 0 79.5 43t20.5 112h88q12 -106 -41 -174.5t-145 -68.5q-117 0 -185 108q-41 68 -106 68q-53 0 -81 -44t-20 -114h-90zM1321 1536v-1536h-125l-975 1303v-1303h-139v1536h125l977 -1303v1303h137z " glyph-name="Ntilde" horiz-adv-x="1464" unicode="Ñ"/><glyph d="M518 2048h141l189 -307h-115zM797 -20q-324 0 -537 228t-213 560t213 560t537 228q322 0 535.5 -228t213.5 -560t-213.5 -560t-535.5 -228zM796.5 113q270.5 0 443.5 189.5t173 465.5q0 279 -173 468t-443.5 189t-444.5 -189t-174 -468q0 -276 174 -465.5t444.5 -189.5z " glyph-name="Ograve" horiz-adv-x="1630" unicode="Ò"/><glyph d="M934 2048h141l-215 -307h-115zM797 -20q-324 0 -537 228t-213 560t213 560t537 228q322 0 535.5 -228t213.5 -560t-213.5 -560t-535.5 -228zM796.5 113q270.5 0 443.5 189.5t173 465.5q0 279 -173 468t-443.5 189t-444.5 -189t-174 -468q0 -276 174 -465.5t444.5 -189.5z " glyph-name="Oacute" horiz-adv-x="1630" unicode="Ó"/><glyph d="M725 2048h145l205 -350h-114l-162 280l-164 -280h-115zM797 -20q-324 0 -537 228t-213 560t213 560t537 228q322 0 535.5 -228t213.5 -560t-213.5 -560t-535.5 -228zM796.5 113q270.5 0 443.5 189.5t173 465.5q0 279 -173 468t-443.5 189t-444.5 -189t-174 -468 q0 -276 174 -465.5t444.5 -189.5z" glyph-name="Ocircumflex" horiz-adv-x="1630" unicode="Ô"/><glyph d="M944 1729q-117 0 -184 108q-41 68 -107 68q-53 0 -80.5 -44t-19.5 -114h-90q-10 106 43 176t143 70q115 0 185 -109q41 -68 108 -67q51 0 80 43t20 112h88q12 -106 -41 -174.5t-145 -68.5zM797 -20q-324 0 -537 228t-213 560t213 560t537 228q322 0 535.5 -228 t213.5 -560t-213.5 -560t-535.5 -228zM796.5 113q270.5 0 443.5 189.5t173 465.5q0 279 -173 468t-443.5 189t-444.5 -189t-174 -468q0 -276 174 -465.5t444.5 -189.5z" glyph-name="Otilde" horiz-adv-x="1630" unicode="Õ"/><glyph d="M618.5 1731q-40.5 0 -70.5 29.5t-30 70.5t30 70.5t70.5 29.5t70.5 -29.5t30 -70.5t-30 -70.5t-70.5 -29.5zM977 1731q-41 0 -70.5 29.5t-29.5 70.5t29.5 70.5t70.5 29.5t69.5 -29.5t28.5 -70.5t-28.5 -70.5t-69.5 -29.5zM797 -20q-324 0 -537 228t-213 560t213 560 t537 228q322 0 535.5 -228t213.5 -560t-213.5 -560t-535.5 -228zM796.5 113q270.5 0 443.5 189.5t173 465.5q0 279 -173 468t-443.5 189t-444.5 -189t-174 -468q0 -276 174 -465.5t444.5 -189.5z" glyph-name="Odieresis" horiz-adv-x="1630" unicode="Ö"/><glyph d="M852 635l412 -410l-76 -75l-412 409l-409 -409l-76 75l409 410l-409 412l76 75l409 -411l412 411l76 -75z" glyph-name="multiply" horiz-adv-x="1497" unicode="×"/><glyph d="M1272 1386q129 -111 201.5 -272.5t72.5 -345.5q0 -332 -214 -560t-535 -228q-219 0 -400 114l-75 -110h-107l111 163q-131 109 -205 271t-74 350q0 332 213 560t537 228q225 0 405 -118l76 112h104zM178 768q0 -156 58.5 -289t162.5 -223l729 1073q-147 96 -331 96 q-270 0 -444.5 -189t-174.5 -468zM797 113q270 0 443 189.5t173 465.5q0 319 -215 508l-727 -1073q146 -90 326 -90z" glyph-name="Oslash" horiz-adv-x="1630" unicode="Ø"/><glyph d="M459 2048h141l188 -307h-114zM655.5 -20q-237.5 0 -404.5 153.5t-167 372.5v1030h139v-1010q0 -174 127 -298t305 -124q182 0 316.5 124t134.5 298v1010h137v-1030q0 -217 -175 -371.5t-412.5 -154.5z" glyph-name="Ugrave" horiz-adv-x="1392" unicode="Ù"/><glyph d="M874 2048h142l-215 -307h-115zM655.5 -20q-237.5 0 -404.5 153.5t-167 372.5v1030h139v-1010q0 -174 127 -298t305 -124q182 0 316.5 124t134.5 298v1010h137v-1030q0 -217 -175 -371.5t-412.5 -154.5z" glyph-name="Uacute" horiz-adv-x="1392" unicode="Ú"/><glyph d="M666 2048h145l205 -350h-115l-162 280l-164 -280h-114zM655.5 -20q-237.5 0 -404.5 153.5t-167 372.5v1030h139v-1010q0 -174 127 -298t305 -124q182 0 316.5 124t134.5 298v1010h137v-1030q0 -217 -175 -371.5t-412.5 -154.5z" glyph-name="Ucircumflex" horiz-adv-x="1392" unicode="Û"/><glyph d="M559 1731q-41 0 -70.5 29.5t-29.5 70.5t29.5 70.5t70.5 29.5t70.5 -29.5t29.5 -70.5t-29.5 -70.5t-70.5 -29.5zM917.5 1731q-40.5 0 -70.5 29.5t-30 70.5t30 70.5t70.5 29.5t69.5 -29.5t29 -70.5t-29 -70.5t-69.5 -29.5zM655.5 -20q-237.5 0 -404.5 153.5t-167 372.5 v1030h139v-1010q0 -174 127 -298t305 -124q182 0 316.5 124t134.5 298v1010h137v-1030q0 -217 -175 -371.5t-412.5 -154.5z" glyph-name="Udieresis" horiz-adv-x="1392" unicode="Ü"/><glyph d="M715 1741h-115l188 307h142zM721 729v-729h-137v725l-537 811h156l448 -688l451 688h153z" glyph-name="Yacute" horiz-adv-x="1302" unicode="Ý"/><glyph d="M696 1325q176 0 299 -124t123 -300q0 -174 -123 -296t-299 -122h-397v-483h-135v1528h135v-203h397zM692 604q127 0 214 87t87 214q0 125 -88 212t-213 87h-393v-600h393z" glyph-name="Thorn" horiz-adv-x="1189" unicode="Þ"/><glyph d="M938 780q119 -49 191.5 -153.5t72.5 -233.5q0 -172 -117.5 -292.5t-279.5 -120.5q-88 0 -181.5 37.5t-150.5 97.5l62 98q43 -45 110.5 -76t136.5 -31q115 2 200 86t85 207q0 125 -90 213t-219 88h-127v115h53q125 0 213 89t88 216t-90 211t-231 84q-145 0 -241.5 -87 t-96.5 -220v-1108h-133v1108q0 184 133 306t336 122q197 0 324.5 -118t127.5 -294q0 -219 -176 -344z" glyph-name="germandbls" horiz-adv-x="1351" unicode="ß"/><glyph d="M680 1229h-115l-215 307h142zM952 276q0 -90 18.5 -125.5t63.5 -33.5v-117q-31 0 -57 6q-139 29 -152 170q-45 -78 -153.5 -131t-235.5 -53q-162 0 -269.5 92t-107.5 233q0 334 465 365l293 18v43q0 135 -81 206t-222 71q-123 0 -200.5 -69.5t-90.5 -176.5h-139 q16 154 129 261.5t307 107.5q201 0 315.5 -109.5t114.5 -296.5zM817 408v170l-293 -21q-188 -12 -261 -76.5t-73 -165.5q0 -90 77 -144t175 -54q145 0 260 88t115 203z" glyph-name="agrave" horiz-adv-x="1091" unicode="à"/><glyph d="M864 1536l-215 -307h-114l188 307h141zM952 276q0 -90 18.5 -125.5t63.5 -33.5v-117q-31 0 -57 6q-139 29 -152 170q-45 -78 -153.5 -131t-235.5 -53q-162 0 -269.5 92t-107.5 233q0 334 465 365l293 18v43q0 135 -81 206t-222 71q-123 0 -200.5 -69.5t-90.5 -176.5h-139 q16 154 129 261.5t307 107.5q201 0 315.5 -109.5t114.5 -296.5zM817 408v170l-293 -21q-188 -12 -261 -76.5t-73 -165.5q0 -90 77 -144t175 -54q145 0 260 88t115 203z" glyph-name="aacute" horiz-adv-x="1091" unicode="á"/><glyph d="M520 1466l-164 -280h-114l204 350h146l205 -350h-115zM952 276q0 -90 18.5 -125.5t63.5 -33.5v-117q-31 0 -57 6q-139 29 -152 170q-45 -78 -153.5 -131t-235.5 -53q-162 0 -269.5 92t-107.5 233q0 334 465 365l293 18v43q0 135 -81 206t-222 71q-123 0 -200.5 -69.5 t-90.5 -176.5h-139q16 154 129 261.5t307 107.5q201 0 315.5 -109.5t114.5 -296.5zM817 408v170l-293 -21q-188 -12 -261 -76.5t-73 -165.5q0 -90 77 -144t175 -54q145 0 260 88t115 203z" glyph-name="acircumflex" horiz-adv-x="1091" unicode="â"/><glyph d="M184 1235q-10 106 43.5 176t143.5 70q119 0 184 -109q41 -68 109 -67q51 0 79.5 43t20.5 112h88q12 -106 -41 -174.5t-145 -68.5q-117 0 -185 108q-41 68 -106 68q-53 0 -81 -44t-20 -114h-90zM436 -8q-162 0 -269.5 92t-107.5 233q0 334 465 365l293 18v43 q0 135 -81 206t-222 71q-123 0 -200.5 -69.5t-90.5 -176.5h-139q16 154 129 261.5t307 107.5q201 0 315.5 -109.5t114.5 -296.5l2 -461q0 -90 18.5 -125.5t63.5 -33.5v-117q-31 0 -57 6q-139 29 -152 170q-45 -78 -153.5 -131t-235.5 -53zM442 117q145 0 260 88t115 203v170 l-293 -21q-188 -12 -261 -76.5t-73 -165.5q0 -90 77 -144t175 -54z" glyph-name="atilde" horiz-adv-x="1091" unicode="ã"/><glyph d="M344 1219q-41 0 -70.5 29.5t-29.5 70.5t29.5 70.5t70.5 29.5t70.5 -29.5t29.5 -70.5t-29.5 -70.5t-70.5 -29.5zM702.5 1219q-40.5 0 -70.5 29.5t-30 70.5t30 70.5t70.5 29.5t69.5 -29.5t29 -70.5t-29 -70.5t-69.5 -29.5zM436 -8q-162 0 -269.5 92t-107.5 233 q0 334 465 365l293 18v43q0 135 -81 206t-222 71q-123 0 -200.5 -69.5t-90.5 -176.5h-139q16 154 129 261.5t307 107.5q201 0 315.5 -109.5t114.5 -296.5l2 -461q0 -90 18.5 -125.5t63.5 -33.5v-117q-31 0 -57 6q-139 29 -152 170q-45 -78 -153.5 -131t-235.5 -53zM442 117 q145 0 260 88t115 203v170l-293 -21q-188 -12 -261 -76.5t-73 -165.5q0 -90 77 -144t175 -54z" glyph-name="adieresis" horiz-adv-x="1091" unicode="ä"/><glyph d="M526 1190q-82 0 -140 58.5t-58 137.5q0 82 58 140.5t140 58.5q80 0 137.5 -58.5t57.5 -140.5q0 -80 -57.5 -138t-137.5 -58zM526 1518q-53 0 -91 -39t-38 -92.5t38 -90t91.5 -36.5t90 36.5t36.5 90t-38 92.5t-89 39zM436 -8q-162 0 -269.5 92t-107.5 233q0 334 465 365 l293 18v43q0 135 -81 206t-222 71q-123 0 -200.5 -69.5t-90.5 -176.5h-139q16 154 129 261.5t307 107.5q201 0 315.5 -109.5t114.5 -296.5l2 -461q0 -90 18.5 -125.5t63.5 -33.5v-117q-31 0 -57 6q-139 29 -152 170q-45 -78 -153.5 -131t-235.5 -53zM442 117q145 0 260 88 t115 203v170l-293 -21q-188 -12 -261 -76.5t-73 -165.5q0 -90 77 -144t175 -54z" glyph-name="aring" horiz-adv-x="1091" unicode="å"/><glyph d="M1829 580q0 -37 -2 -58h-895q12 -201 125.5 -308.5t285.5 -107.5q115 0 220.5 61.5t132.5 164.5h121q-29 -154 -166.5 -249t-331.5 -93q-260 2 -408 192v-182h-114l-13 180q-49 -84 -167.5 -139t-254.5 -47q-150 10 -247 99t-97 224q0 305 465 365l293 37v24 q0 141 -81 213t-222 72q-127 0 -202.5 -71.5t-88.5 -180.5h-133q16 156 124 261.5t306 105.5q305 0 400 -232q150 240 440 240q231 0 370.5 -158.5t139.5 -412.5zM934 639h762q-16 174 -115.5 279.5t-259.5 105.5q-164 0 -266.5 -105.5t-120.5 -279.5zM776 408v206l-293 -39 q-190 -25 -263 -95t-73 -173q0 -88 66 -139t160 -57q152 -10 277.5 81t125.5 216z" glyph-name="ae" horiz-adv-x="1828" unicode="æ"/><glyph d="M594 113q123 0 212 68.5t122 176.5h129q-35 -160 -163 -265t-312 -105h-31l-43 -90q109 23 185.5 -31.5t76.5 -153.5q0 -86 -59.5 -145.5t-145.5 -59.5q-66 0 -133 35t-100 86l65 33q27 -33 75 -56.5t93 -23.5q55 0 92 38t37 93q0 78 -63.5 109t-155.5 -2l-63 45l63 133 q-188 39 -301 195.5t-113 373.5q0 248 144.5 409t376.5 161q190 0 325 -102.5t156 -260.5h-135q-18 104 -113.5 172t-224.5 68q-178 0 -284.5 -120t-106.5 -327t108.5 -330.5t286.5 -123.5z" glyph-name="ccedilla" horiz-adv-x="1150" unicode="ç"/><glyph d="M508 1241l-215 307h141l189 -307h-115zM1075 569q0 -37 -2 -57h-872q2 -186 115.5 -292.5t248.5 -108.5q141 -2 226.5 58t111.5 157h129q-6 -49 -33.5 -102.5t-78 -109t-139.5 -90t-201 -34.5q-233 2 -373.5 165.5t-140.5 405.5q0 248 138 410t371 162q229 0 364.5 -157 t135.5 -407zM578 1008q-162 0 -259.5 -103.5t-115.5 -275.5h741q-16 172 -111 275.5t-255 103.5z" glyph-name="egrave" horiz-adv-x="1142" unicode="è"/><glyph d="M850 1548l-215 -307h-115l189 307h141zM1075 569q0 -37 -2 -57h-872q2 -186 115.5 -292.5t248.5 -108.5q141 -2 226.5 58t111.5 157h129q-6 -49 -33.5 -102.5t-78 -109t-139.5 -90t-201 -34.5q-233 2 -373.5 165.5t-140.5 405.5q0 248 138 410t371 162q229 0 364.5 -157 t135.5 -407zM203 629h741q-16 172 -111.5 275.5t-254.5 103.5q-162 0 -259.5 -103.5t-115.5 -275.5z" glyph-name="eacute" horiz-adv-x="1142" unicode="é"/><glyph d="M410 1198h-115l205 350h145l205 -350h-115l-162 281zM1075 569q0 -37 -2 -57h-872q2 -186 115.5 -292.5t248.5 -108.5q141 -2 226.5 58t111.5 157h129q-6 -49 -33.5 -102.5t-78 -109t-139.5 -90t-201 -34.5q-233 2 -373.5 165.5t-140.5 405.5q0 248 138 410t371 162 q229 0 364.5 -157t135.5 -407zM578 1008q-162 0 -259.5 -103.5t-115.5 -275.5h741q-16 172 -111 275.5t-255 103.5z" glyph-name="ecircumflex" horiz-adv-x="1142" unicode="ê"/><glyph d="M393 1231q-41 0 -70.5 29.5t-29.5 70.5t29.5 71t70.5 30t71 -30t30 -71t-30 -70.5t-71 -29.5zM752 1231q-41 0 -71 29.5t-30 70.5t30 71t71 30t69.5 -30t28.5 -71t-28.5 -70.5t-69.5 -29.5zM1075 569q0 -37 -2 -57h-872q2 -186 115.5 -292.5t248.5 -108.5 q141 -2 226.5 58t111.5 157h129q-6 -49 -33.5 -102.5t-78 -109t-139.5 -90t-201 -34.5q-233 2 -373.5 165.5t-140.5 405.5q0 248 138 410t371 162q229 0 364.5 -157t135.5 -407zM578 1008q-162 0 -259.5 -103.5t-115.5 -275.5h741q-16 172 -111 275.5t-255 103.5z" glyph-name="edieresis" horiz-adv-x="1142" unicode="ë"/><glyph d="M41 1536h143l189 -307h-115zM254 1024h135v-1024h-135v1024z" glyph-name="igrave" horiz-adv-x="501" unicode="ì"/><glyph d="M317 1536h142l-215 -307h-115zM113 1024h135v-1024h-135v1024z" glyph-name="iacute" horiz-adv-x="499" unicode="í"/><glyph d="M319 1536h146l205 -350h-115l-162 280l-164 -280h-116zM326 1024h135v-1024h-135v1024z" glyph-name="icircumflex" horiz-adv-x="782" unicode="î"/><glyph d="M215 1219q-41 0 -71.5 29.5t-30.5 70.5t30.5 70.5t71.5 29.5t70.5 -29.5t29.5 -70.5t-29.5 -70.5t-70.5 -29.5zM573 1219q-41 0 -70.5 29.5t-29.5 70.5t29.5 70.5t70.5 29.5t70 -29.5t29 -70.5t-29 -70.5t-70 -29.5zM326 1024h135v-1024h-135v1024z" glyph-name="idieresis" horiz-adv-x="784" unicode="ï"/><glyph d="M809 1395q170 -143 269.5 -375t99.5 -508q0 -221 -160 -376.5t-387 -155.5q-225 0 -385 155.5t-160 376.5t160 376.5t385 155.5q201 0 352 -124q-78 242 -246 383l-114 -146l-52 43l113 141q-158 104 -342 109l23 111q211 0 391 -125l96 120l51 -40zM631 100 q170 0 290.5 121t120.5 291q0 172 -120.5 292t-290.5 120t-291 -120t-121 -292q0 -170 121 -291t291 -121z" glyph-name="eth" horiz-adv-x="1265" unicode="ð"/><glyph d="M264 1235q-10 106 43 176t144 70q115 0 184 -109q41 -68 108 -67q51 0 80 43t21 112h88q12 -106 -41 -174.5t-146 -68.5q-117 0 -184 108q-41 68 -106 68q-53 0 -81 -44t-20 -114h-90zM655 1139q180 0 291 -113t111 -299v-727h-144v715q0 133 -79.5 213t-212.5 80 q-139 0 -243 -85t-104 -214v-709h-143v1126h121l18 -178q57 86 162.5 138.5t222.5 52.5z" glyph-name="ntilde" horiz-adv-x="1181" unicode="ñ"/><glyph d="M299 1536h141l189 -307h-115zM578 -14q-236 0 -386.5 166.5t-150.5 412.5t150.5 413t386.5 167q238 0 388 -167t150 -413t-150 -412.5t-388 -166.5zM577.5 117q176.5 0 285 129t108.5 319q0 193 -107.5 321t-285.5 128q-176 0 -285 -128t-109 -321q0 -190 108.5 -319 t285 -129z" glyph-name="ograve" horiz-adv-x="1157" unicode="ò"/><glyph d="M715 1536h141l-215 -307h-115zM578 -14q-236 0 -386.5 166.5t-150.5 412.5t150.5 413t386.5 167q238 0 388 -167t150 -413t-150 -412.5t-388 -166.5zM577.5 117q176.5 0 285 129t108.5 319q0 193 -107.5 321t-285.5 128q-176 0 -285 -128t-109 -321q0 -190 108.5 -319 t285 -129z" glyph-name="oacute" horiz-adv-x="1157" unicode="ó"/><glyph d="M506 1536h145l205 -350h-115l-161 280l-164 -280h-115zM578 -14q-236 0 -386.5 166.5t-150.5 412.5t150.5 413t386.5 167q238 0 388 -167t150 -413t-150 -412.5t-388 -166.5zM577.5 117q176.5 0 285 129t108.5 319q0 193 -107.5 321t-285.5 128q-176 0 -285 -128 t-109 -321q0 -190 108.5 -319t285 -129z" glyph-name="ocircumflex" horiz-adv-x="1157" unicode="ô"/><glyph d="M725 1217q-117 0 -184 108q-41 68 -107 68q-53 0 -80.5 -44t-19.5 -114h-90q-10 106 43 176t143 70q115 0 184 -109q41 -68 109 -67q51 0 79.5 43t20.5 112h88q12 -106 -41 -174.5t-145 -68.5zM578 -14q-236 0 -386.5 166.5t-150.5 412.5t150.5 413t386.5 167 q238 0 388 -167t150 -413t-150 -412.5t-388 -166.5zM577.5 117q176.5 0 285 129t108.5 319q0 193 -107.5 321t-285.5 128q-176 0 -285 -128t-109 -321q0 -190 108.5 -319t285 -129z" glyph-name="otilde" horiz-adv-x="1157" unicode="õ"/><glyph d="M399 1219q-41 0 -70.5 29.5t-29.5 70.5t29.5 70.5t70.5 29.5t71 -29.5t30 -70.5t-30 -70.5t-71 -29.5zM758 1219q-41 0 -71 29.5t-30 70.5t30 70.5t71 29.5t69.5 -29.5t28.5 -70.5t-28.5 -70.5t-69.5 -29.5zM578 -14q-236 0 -386.5 166.5t-150.5 412.5t150.5 413 t386.5 167q238 0 388 -167t150 -413t-150 -412.5t-388 -166.5zM577.5 117q176.5 0 285 129t108.5 319q0 193 -107.5 321t-285.5 128q-176 0 -285 -128t-109 -321q0 -190 108.5 -319t285 -129z" glyph-name="odieresis" horiz-adv-x="1157" unicode="ö"/><glyph d="M745.5 819q-36.5 0 -65.5 26.5t-29 65.5t29 67t65.5 28t65.5 -28t29 -67t-29 -65.5t-65.5 -26.5zM195 616h1114v-120h-1114v120zM745.5 123q-36.5 0 -65.5 26.5t-29 65.5t29 66.5t65.5 27.5t65.5 -27.5t29 -66.5t-29 -65.5t-65.5 -26.5z" glyph-name="divide" horiz-adv-x="1488" unicode="÷"/><glyph d="M911 1024q184 -172 185 -455q0 -248 -147.5 -416.5t-381.5 -168.5q-162 0 -286 86l-86 -131h-84l116 174q-186 168 -186 456q0 248 147.5 417t378.5 169q166 0 289 -88l88 131h82zM180 569q0 -207 123 -340l479 723q-92 70 -215 70q-174 0 -280.5 -130t-106.5 -323z M567 117q174 0 279.5 130t105.5 322q0 207 -118 338l-478 -725q92 -65 211 -65z" glyph-name="oslash" horiz-adv-x="1136" unicode="ø"/><glyph d="M537 1229l-215 307h141l188 -307h-114zM1057 1126v-1126h-127l-17 180q-59 -86 -165.5 -139t-219.5 -53q-184 0 -300.5 117.5t-116.5 300.5v720h147v-704q0 -135 83 -219t218 -84q141 0 246.5 86t105.5 217v704h146z" glyph-name="ugrave" horiz-adv-x="1163" unicode="ù"/><glyph d="M664 1229h-115l188 307h142zM1057 1126v-1126h-127l-17 180q-59 -86 -165.5 -139t-219.5 -53q-184 0 -300.5 117.5t-116.5 300.5v720h147v-704q0 -135 83 -219t218 -84q141 0 246.5 86t105.5 217v704h146z" glyph-name="uacute" horiz-adv-x="1163" unicode="ú"/><glyph d="M438 1186h-114l204 350h146l205 -350h-115l-162 280zM1057 1126v-1126h-127l-17 180q-59 -86 -165.5 -139t-219.5 -53q-184 0 -300.5 117.5t-116.5 300.5v720h147v-704q0 -135 83 -219t218 -84q141 0 246.5 86t105.5 217v704h146z" glyph-name="ucircumflex" horiz-adv-x="1163" unicode="û"/><glyph d="M422 1219q-41 0 -70.5 29.5t-29.5 70.5t29.5 70.5t70.5 29.5t70.5 -29.5t29.5 -70.5t-29.5 -70.5t-70.5 -29.5zM780 1219q-41 0 -70.5 29.5t-29.5 70.5t29.5 70.5t70.5 29.5t70 -29.5t29 -70.5t-29 -70.5t-70 -29.5zM1057 1126v-1126h-127l-17 180q-59 -86 -165.5 -139 t-219.5 -53q-184 0 -300.5 117.5t-116.5 300.5v720h147v-704q0 -135 83 -219t218 -84q141 0 246.5 86t105.5 217v704h146z" glyph-name="udieresis" horiz-adv-x="1163" unicode="ü"/><glyph d="M623 1229h-115l188 307h142zM1069 1126l-666 -1638h-137l236 573h-43l-445 1065h148l391 -936l367 936h149z" glyph-name="yacute" horiz-adv-x="1138" unicode="ý"/><glyph d="M727 1044q217 0 369.5 -155.5t152.5 -376.5t-152.5 -376.5t-369.5 -155.5q-135 0 -247.5 65.5t-180.5 177.5v-733h-135v2046h135v-735q68 113 180.5 178t247.5 65zM711 100q170 0 290.5 121t120.5 291q0 172 -120.5 292t-290.5 120t-291 -120t-121 -292q0 -170 121 -291 t291 -121z" glyph-name="thorn" horiz-adv-x="1333" unicode="þ"/><glyph d="M397 1219q-41 0 -70.5 29.5t-29.5 70.5t29.5 70.5t70.5 29.5t71 -29.5t30 -70.5t-30 -70.5t-71 -29.5zM756 1219q-41 0 -71 29.5t-30 70.5t30 70.5t71 29.5t69.5 -29.5t28.5 -70.5t-28.5 -70.5t-69.5 -29.5zM1069 1126l-666 -1638h-137l236 573h-43l-445 1065h148 l391 -936l367 936h149z" glyph-name="ydieresis" horiz-adv-x="1138" unicode="ÿ"/><glyph d="M1059 1755h-635v94h635v-94zM1137 401h-762l-158 -401h-151l616 1536h154l616 -1536h-152zM1096 526l-338 865l-336 -865h674z" glyph-name="Amacron" horiz-adv-x="1517" unicode="Ā"/><glyph d="M803 1243h-635v94h635v-94zM436 -8q-162 0 -269.5 92t-107.5 233q0 334 465 365l293 18v43q0 135 -81 206t-222 71q-123 0 -200.5 -69.5t-90.5 -176.5h-139q16 154 129 261.5t307 107.5q201 0 315.5 -109.5t114.5 -296.5l2 -461q0 -90 18.5 -125.5t63.5 -33.5v-117 q-31 0 -57 6q-139 29 -152 170q-45 -78 -153.5 -131t-235.5 -53zM442 117q145 0 260 88t115 203v170l-293 -21q-188 -12 -261 -76.5t-73 -165.5q0 -90 77 -144t175 -54z" glyph-name="amacron" horiz-adv-x="1091" unicode="ā"/><glyph d="M739 1677q-143 0 -236 84t-93 221h88q0 -90 69.5 -153.5t171.5 -63.5q104 0 175 63.5t71 153.5h86q0 -137 -93.5 -221t-238.5 -84zM1137 401h-762l-158 -401h-151l616 1536h154l616 -1536h-152zM1096 526l-338 865l-336 -865h674z" glyph-name="Abreve" horiz-adv-x="1517" unicode="Ă"/><glyph d="M483 1165q-143 0 -236 84t-93 221h88q0 -90 69.5 -153.5t171.5 -63.5q104 0 175 63.5t71 153.5h86q0 -137 -93.5 -221t-238.5 -84zM436 -8q-162 0 -269.5 92t-107.5 233q0 334 465 365l293 18v43q0 135 -81 206t-222 71q-123 0 -200.5 -69.5t-90.5 -176.5h-139 q16 154 129 261.5t307 107.5q201 0 315.5 -109.5t114.5 -296.5l2 -461q0 -90 18.5 -125.5t63.5 -33.5v-117q-31 0 -57 6q-139 29 -152 170q-45 -78 -153.5 -131t-235.5 -53zM442 117q145 0 260 88t115 203v170l-293 -21q-188 -12 -261 -76.5t-73 -165.5q0 -90 77 -144 t175 -54z" glyph-name="abreve" horiz-adv-x="1091" unicode="ă"/><glyph d="M1518 -365l47 -67q-106 -104 -265 -100q-100 4 -158.5 59t-58.5 149q0 172 236 324h-19l-163 401h-762l-158 -401h-151l616 1536h154l616 -1536h-18q-98 -43 -176 -128t-78 -183q0 -63 36.5 -102.5t104.5 -39.5q119 0 197 88zM422 526h674l-338 865z" glyph-name="Aogonek" horiz-adv-x="1630" unicode="Ą"/><glyph d="M1182 -367l47 -67q-111 -106 -264 -101q-100 4 -158.5 60.5t-58.5 148.5q0 84 66.5 172t162.5 160q-139 29 -152 170q-45 -78 -153.5 -131t-235.5 -53q-162 0 -269.5 92t-107.5 233q0 334 465 365l293 18v43q0 135 -81 206t-222 71q-123 0 -200.5 -69.5t-90.5 -176.5 h-139q16 154 129 261.5t307 107.5q201 0 315.5 -109.5t114.5 -296.5l2 -461q0 -90 18.5 -125.5t63.5 -33.5v-92l66 -27q-98 -43 -177 -128t-79 -183q0 -63 37 -102.5t104 -39.5q119 0 197 88zM817 408v170l-293 -21q-188 -12 -261 -76.5t-73 -165.5q0 -90 77 -144t175 -54 q145 0 260 88t115 203z" glyph-name="aogonek" horiz-adv-x="1146" unicode="ą"/><glyph d="M995 2048h142l-215 -307h-115zM797 -20q-322 -4 -525.5 225t-203.5 563t203.5 561t525.5 227q152 0 278.5 -49t202.5 -123.5t120 -152.5t54 -150h-152q-14 55 -46.5 110.5t-91 111t-154 89t-211.5 33.5q-268 0 -433 -188t-165 -469t164.5 -468t433.5 -187q201 0 341 101 t162 214h152q-8 -63 -55 -137t-126 -144.5t-204 -117.5t-270 -49z" glyph-name="Cacute" horiz-adv-x="1560" unicode="Ć"/><glyph d="M694 1536h142l-215 -307h-115zM582 -12q-231 0 -376 164.5t-145 414.5q0 248 144.5 409t376.5 161q190 0 325 -102.5t156 -260.5h-135q-18 104 -113.5 172t-224.5 68q-178 0 -284.5 -120t-106.5 -327t108.5 -330.5t286.5 -123.5q123 0 212 68.5t122 176.5h129 q-35 -160 -163 -265t-312 -105z" glyph-name="cacute" horiz-adv-x="1150" unicode="ć"/><glyph d="M799 1731q-41 0 -71 29.5t-30 70.5t30 70.5t71 29.5t70.5 -29.5t29.5 -70.5t-29.5 -70.5t-70.5 -29.5zM797 -20q-322 -4 -525.5 225t-203.5 563t203.5 561t525.5 227q152 0 278.5 -49t202.5 -123.5t120 -152.5t54 -150h-152q-14 55 -46.5 110.5t-91 111t-154 89 t-211.5 33.5q-268 0 -433 -188t-165 -469t164.5 -468t433.5 -187q201 0 341 101t162 214h152q-8 -63 -55 -137t-126 -144.5t-204 -117.5t-270 -49z" glyph-name="Cdotaccent" horiz-adv-x="1560" unicode="Ċ"/><glyph d="M559 1219q-41 0 -70.5 29.5t-29.5 70.5t29.5 70.5t70.5 29.5t70.5 -29.5t29.5 -70.5t-29.5 -70.5t-70.5 -29.5zM582 -12q-231 0 -376 164.5t-145 414.5q0 248 144.5 409t376.5 161q190 0 325 -102.5t156 -260.5h-135q-18 104 -113.5 172t-224.5 68q-178 0 -284.5 -120 t-106.5 -327t108.5 -330.5t286.5 -123.5q123 0 212 68.5t122 176.5h129q-35 -160 -163 -265t-312 -105z" glyph-name="cdotaccent" horiz-adv-x="1150" unicode="ċ"/><glyph d="M520 2048h111l168 -272l166 272h110l-205 -350h-145zM797 -20q-322 -4 -525.5 225t-203.5 563t203.5 561t525.5 227q152 0 278.5 -49t202.5 -123.5t120 -152.5t54 -150h-152q-14 55 -46.5 110.5t-91 111t-154 89t-211.5 33.5q-268 0 -433 -188t-165 -469t164.5 -468 t433.5 -187q201 0 341 101t162 214h152q-8 -63 -55 -137t-126 -144.5t-204 -117.5t-270 -49z" glyph-name="Ccaron" horiz-adv-x="1560" unicode="Č"/><glyph d="M281 1536h110l168 -272l166 272h111l-205 -350h-146zM582 -12q-231 0 -376 164.5t-145 414.5q0 248 144.5 409t376.5 161q190 0 325 -102.5t156 -260.5h-135q-18 104 -113.5 172t-224.5 68q-178 0 -284.5 -120t-106.5 -327t108.5 -330.5t286.5 -123.5q123 0 212 68.5 t122 176.5h129q-35 -160 -163 -265t-312 -105z" glyph-name="ccaron" horiz-adv-x="1150" unicode="č"/><glyph d="M293 2048h110l168 -272l166 272h111l-205 -350h-145zM143 1536h449q164 0 300 -45t242.5 -136t166 -246t59.5 -357q0 -344 -220 -548t-548 -204h-449v1536zM590 125q276 0 453.5 163t177.5 464q0 342 -173.5 501.5t-457.5 159.5h-309v-1288h309z" glyph-name="Dcaron" horiz-adv-x="1468" unicode="Ď"/><glyph d="M1116 1536v-1536h-123l-16 201q-139 -211 -408 -211q-229 0 -371.5 160.5t-142.5 406.5q0 248 144.5 414t373.5 166q254 0 402 -215v614h141zM1372 1339q-68 25 -67 97q0 41 28.5 70.5t71.5 29.5q41 0 68.5 -29.5t27.5 -70.5t-29.5 -103.5t-60.5 -103.5l-31 -43h-43z M590 109q145 0 249.5 96t135.5 248v209q-31 152 -135.5 248t-249.5 96q-174 0 -283.5 -129t-109.5 -319.5t109.5 -319.5t283.5 -129z" glyph-name="dcaron" horiz-adv-x="1622" unicode="ď"/><glyph d="M731 1536q164 0 300 -45t242.5 -136t166 -246t59.5 -357q0 -344 -220 -548t-548 -204h-448v719h-140v100h140v717h448zM729 125q276 0 453.5 163t177.5 464q0 342 -173 501.5t-458 159.5h-309v-594h287v-100h-287v-594h309z" glyph-name="Dcroat" horiz-adv-x="1607" unicode="Đ"/><glyph d="M1169 1223h-139v-1223h-121l-8 184q-135 -205 -373 -204q-211 0 -342 153.5t-131 378.5q0 227 131 379.5t342 152.5q236 0 371 -198v377h-307v100h307v213h131v-213h139v-100zM547 100q133 0 228 88t124 228v192q-29 139 -124 227.5t-228 88.5q-162 0 -261.5 -118 t-99.5 -294q0 -174 99.5 -293t261.5 -119z" glyph-name="dcroat" horiz-adv-x="1290" unicode="đ"/><glyph d="M895 1755h-635v94h635v-94zM238 1413v-582h704v-124h-704v-582h790v-125h-930v1536h930v-123h-790z" glyph-name="Emacron" horiz-adv-x="1144" unicode="Ē"/><glyph d="M891 1255h-635v95h635v-95zM1075 569q0 -37 -2 -57h-872q2 -186 115.5 -292.5t248.5 -108.5q141 -2 226.5 58t111.5 157h129q-6 -49 -33.5 -102.5t-78 -109t-139.5 -90t-201 -34.5q-233 2 -373.5 165.5t-140.5 405.5q0 248 138 410t371 162q229 0 364.5 -157t135.5 -407z M578 1008q-162 0 -259.5 -103.5t-115.5 -275.5h741q-16 172 -111 275.5t-255 103.5z" glyph-name="emacron" horiz-adv-x="1142" unicode="ē"/><glyph d="M577.5 1731q-40.5 0 -70.5 29.5t-30 70.5t30 70.5t70.5 29.5t70.5 -29.5t30 -70.5t-30 -70.5t-70.5 -29.5zM238 1413v-582h704v-124h-704v-582h790v-125h-930v1536h930v-123h-790z" glyph-name="Edotaccent" horiz-adv-x="1144" unicode="Ė"/><glyph d="M573 1231q-41 0 -70.5 29.5t-29.5 70.5t29.5 71t70.5 30t71 -30t30 -71t-30 -70.5t-71 -29.5zM1075 569q0 -37 -2 -57h-872q2 -186 115.5 -292.5t248.5 -108.5q141 -2 226.5 58t111.5 157h129q-6 -49 -33.5 -102.5t-78 -109t-139.5 -90t-201 -34.5q-233 2 -373.5 165.5 t-140.5 405.5q0 248 138 410t371 162q229 0 364.5 -157t135.5 -407zM578 1008q-162 0 -259.5 -103.5t-115.5 -275.5h741q-16 172 -111 275.5t-255 103.5z" glyph-name="edotaccent" horiz-adv-x="1142" unicode="ė"/><glyph d="M1073 -365l47 -67q-106 -104 -264 -100q-100 4 -158.5 59t-58.5 149q0 172 235 324h-776v1536h930v-123h-790v-582h704v-124h-704v-582h790v-125h-37q-98 -43 -177 -128t-79 -183q0 -63 37 -102.5t105 -39.5q118 0 196 88z" glyph-name="Eogonek" horiz-adv-x="1236" unicode="Ę"/><glyph d="M1075 569q0 -37 -2 -57h-872q2 -186 115.5 -292.5t248.5 -108.5q141 -2 226.5 58t111.5 157h129q-12 -86 -80.5 -178.5t-197.5 -133.5l2 -2q-6 -2 -23 -8q-63 -82 -63 -164q0 -63 36.5 -102t104.5 -39q119 0 197 88l47 -68q-106 -104 -264 -100q-100 4 -159 59.5 t-59 149.5q0 78 50 154q-2 0 2 1t22.5 6t26.5 7q-43 -6 -94 -6q-233 2 -373.5 165.5t-140.5 405.5q0 248 138 410t371 162q229 0 364.5 -157t135.5 -407zM203 629h741q-16 172 -111.5 275.5t-254.5 103.5q-162 0 -259.5 -103.5t-115.5 -275.5z" glyph-name="eogonek" horiz-adv-x="1124" unicode="ę"/><glyph d="M504 1698l-205 350h111l168 -272l165 272h111l-205 -350h-145zM238 1413v-582h704v-124h-704v-582h790v-125h-930v1536h930v-123h-790z" glyph-name="Ecaron" horiz-adv-x="1144" unicode="Ě"/><glyph d="M500 1198l-205 350h111l167 -272l166 272h111l-205 -350h-145zM1075 569q0 -37 -2 -57h-872q2 -186 115.5 -292.5t248.5 -108.5q141 -2 226.5 58t111.5 157h129q-6 -49 -33.5 -102.5t-78 -109t-139.5 -90t-201 -34.5q-233 2 -373.5 165.5t-140.5 405.5q0 248 138 410 t371 162q229 0 364.5 -157t135.5 -407zM578 1008q-162 0 -259.5 -103.5t-115.5 -275.5h741q-16 172 -111 275.5t-255 103.5z" glyph-name="ecaron" horiz-adv-x="1142" unicode="ě"/><glyph d="M737 1677q-143 0 -236 84t-93 221h88q0 -90 69.5 -153.5t171.5 -63.5q104 0 175 63.5t71 153.5h86q0 -137 -93.5 -221t-238.5 -84zM1415 772v-119v-653h-94l-35 262q-84 -139 -207 -205.5t-325 -66.5q-217 0 -382 113.5t-245 286.5t-80 374q0 348 195.5 570t507.5 222 q252 0 422.5 -125.5t207.5 -347.5h-131q-49 170 -187 256t-306 86q-264 0 -422 -183t-158 -478q0 -287 166 -466t408 -179q274 0 404 142t130 386h-438v125h569z" glyph-name="Gbreve" horiz-adv-x="1527" unicode="Ğ"/><glyph d="M592 1165q-143 0 -236.5 84t-93.5 221h88q0 -90 69.5 -153.5t172.5 -63.5q104 0 175 63.5t71 153.5h86q0 -137 -93.5 -221t-238.5 -84zM532 -492q-213 0 -355 94.5t-142 252.5q0 78 42 142t116 101q-6 4 -30 21.5t-36 29t-29.5 31t-26 43t-8.5 49.5q0 61 35 104.5 t103 88.5q-106 104 -107 276q0 166 116 277.5t296 111.5q131 0 242 -63q25 57 87 93t134 36v-131q-43 0 -78 -22.5t-45 -59.5q82 -106 82 -242q0 -174 -115 -281.5t-307 -107.5q-154 0 -232 54q-41 -16 -59 -50t-8 -71q31 -104 192 -107l226 -2q346 -4 387 -250 q29 -168 -98.5 -293t-381.5 -125zM791 741q0 111 -82 187t-203 76q-119 0 -199 -76t-80 -186.5t80 -187.5t199 -77q123 0 204 75.5t81 188.5zM877 -76q-14 74 -85 104.5t-210 30.5h-248q-74 -18 -114 -74.5t-40 -127.5q0 -100 102.5 -162t237.5 -62q195 0 288.5 82t68.5 209 z" glyph-name="gbreve" horiz-adv-x="1056" unicode="ğ"/><glyph d="M862 1731q-41 0 -70.5 29.5t-29.5 70.5t29.5 70.5t70.5 29.5t71 -29.5t30 -70.5t-30 -70.5t-71 -29.5zM1415 772v-119v-653h-94l-35 262q-84 -139 -207 -205.5t-325 -66.5q-217 0 -382 113.5t-245 286.5t-80 374q0 348 195.5 570t507.5 222q252 0 422.5 -125.5 t207.5 -347.5h-131q-49 170 -187 256t-306 86q-264 0 -422 -183t-158 -478q0 -287 166 -466t408 -179q274 0 404 142t130 386h-438v125h569z" glyph-name="Gdotaccent" horiz-adv-x="1527" unicode="Ġ"/><glyph d="M594 1219q-41 0 -70.5 29.5t-29.5 70.5t29.5 70.5t70.5 29.5t70.5 -29.5t29.5 -70.5t-29.5 -70.5t-70.5 -29.5zM532 -492q-213 0 -355 94.5t-142 252.5q0 78 42 142t116 101q-6 4 -30 21.5t-36 29t-29.5 31t-26 43t-8.5 49.5q0 61 35 104.5t103 88.5q-106 104 -107 276 q0 166 116 277.5t296 111.5q131 0 242 -63q25 57 87 93t134 36v-131q-43 0 -78 -22.5t-45 -59.5q82 -106 82 -242q0 -174 -115 -281.5t-307 -107.5q-154 0 -232 54q-41 -16 -59 -50t-8 -71q31 -104 192 -107l226 -2q346 -4 387 -250q29 -168 -98.5 -293t-381.5 -125z M791 741q0 111 -82 187t-203 76q-119 0 -199 -76t-80 -186.5t80 -187.5t199 -77q123 0 204 75.5t81 188.5zM877 -76q-14 74 -85 104.5t-210 30.5h-248q-74 -18 -114 -74.5t-40 -127.5q0 -100 102.5 -162t237.5 -62q195 0 288.5 82t68.5 209z" glyph-name="gdotaccent" horiz-adv-x="1056" unicode="ġ"/><glyph d="M1415 772v-119v-653h-94l-35 262q-84 -139 -207 -205.5t-325 -66.5q-217 0 -382 113.5t-245 286.5t-80 374q0 348 195.5 570t507.5 222q252 0 422.5 -125.5t207.5 -347.5h-131q-49 170 -187 256t-306 86q-264 0 -422 -183t-158 -478q0 -287 166 -466t408 -179 q274 0 404 142t130 386h-438v125h569zM825 -272q-68 25 -67 96q0 41 28.5 70.5t71.5 29.5q41 0 68.5 -29.5t27.5 -70.5t-30.5 -103.5t-59.5 -105.5l-30 -41h-43z" glyph-name="Gcommaaccent" horiz-adv-x="1527" unicode="Ģ"/><glyph d="M627 1378q68 -25 67 -96q0 -41 -28.5 -70.5t-71.5 -29.5q-41 0 -68.5 29.5t-27.5 70.5t29.5 103.5t60.5 105.5l30 41h44zM532 -492q-213 0 -355 94.5t-142 252.5q0 78 42 142t116 101q-6 4 -30 21.5t-36 29t-29.5 31t-26 43t-8.5 49.5q0 61 35 104.5t103 88.5 q-106 104 -107 276q0 166 116 277.5t296 111.5q131 0 242 -63q25 57 87 93t134 36v-131q-43 0 -78 -22.5t-45 -59.5q82 -106 82 -242q0 -174 -115 -281.5t-307 -107.5q-154 0 -232 54q-41 -16 -59 -50t-8 -71q31 -104 192 -107l226 -2q346 -4 387 -250q29 -168 -98.5 -293 t-381.5 -125zM791 741q0 111 -82 187t-203 76q-119 0 -199 -76t-80 -186.5t80 -187.5t199 -77q123 0 204 75.5t81 188.5zM877 -76q-14 74 -85 104.5t-210 30.5h-248q-74 -18 -114 -74.5t-40 -127.5q0 -100 102.5 -162t237.5 -62q195 0 288.5 82t68.5 209z" glyph-name="gcommaaccent" horiz-adv-x="1056" unicode="ģ"/><glyph d="M1612 1163h-146v-1163h-137v707h-878v-707h-140v1163h-147v68h147v305h140v-305h878v305h137v-305h146v-68zM1329 1163h-878v-332h878v332z" glyph-name="Hbar" horiz-adv-x="1775" unicode="Ħ"/><glyph d="M743 1139q184 0 297 -113t113 -297v-729h-147v715q0 133 -82 213t-217 80q-141 0 -247 -85t-106 -214v-709h-147v1229h-76v100h76v205h147v-205h355v-100h-355v-275q59 84 165.5 134.5t223.5 50.5z" glyph-name="hbar" horiz-adv-x="1249" unicode="ħ"/><glyph d="M379 1729q-117 0 -184 108q-41 68 -107 68q-53 0 -82 -44t-20 -114h-90q-10 106 44 176t144 70q115 0 184 -109q41 -68 109 -67q51 0 79.5 43t20.5 112h88q12 -106 -41 -174.5t-145 -68.5zM164 1536h139v-1536h-139v1536z" glyph-name="Itilde" horiz-adv-x="466" unicode="Ĩ"/><glyph d="M379 1217q-117 0 -184 108q-41 68 -107 68q-53 0 -82 -44t-20 -114h-90q-10 106 44 176t144 70q115 0 184 -109q41 -68 109 -67q51 0 79.5 43t20.5 112h88q12 -106 -41 -174.5t-145 -68.5zM164 1024h135v-1024h-135v1024z" glyph-name="itilde" horiz-adv-x="462" unicode="ĩ"/><glyph d="M-86 1849h637v-94h-637v94zM164 1536h139v-1536h-139v1536z" glyph-name="Imacron" horiz-adv-x="466" unicode="Ī"/><glyph d="M-88 1337h637v-94h-637v94zM164 1024h135v-1024h-135v1024z" glyph-name="imacron" horiz-adv-x="462" unicode="ī"/><glyph d="M420 -432q-106 -104 -264 -100q-100 4 -159.5 59t-59.5 149q0 170 237 324h-10v1536h139v-1536h-12q-98 -43 -177 -128t-79 -183q0 -63 37 -102.5t104 -39.5q119 0 197 88z" glyph-name="Iogonek" horiz-adv-x="466" unicode="Į"/><glyph d="M231 1219q-41 0 -70.5 29.5t-29.5 70.5t29.5 70.5t70.5 29.5t71 -29.5t30 -70.5t-30 -70.5t-71 -29.5zM418 -432q-106 -104 -264 -100q-100 4 -160 59t-60 149q0 170 238 324h-8v1024h135v-1024h-10q-98 -43 -177 -128t-79 -183q0 -63 36.5 -102.5t104.5 -39.5 q119 0 197 88z" glyph-name="iogonek" horiz-adv-x="462" unicode="į"/><glyph d="M233.5 1731q-40.5 0 -70.5 29.5t-30 70.5t30 70.5t70.5 29.5t70.5 -29.5t30 -70.5t-30 -70.5t-70.5 -29.5zM164 1536h139v-1536h-139v1536z" glyph-name="Idotaccent" horiz-adv-x="466" unicode="İ"/><glyph d="M164 1024h135v-1024h-135v1024z" glyph-name="dotlessi" horiz-adv-x="462" unicode="ı"/><glyph d="M301 1536h139v-1536h-139v1536zM958 -20q-90 0 -153 18v143q68 -23 153 -22q80 0 138.5 57t58.5 139v1221h137v-1221q0 -139 -97.5 -237t-236.5 -98z" glyph-name="IJ" horiz-adv-x="1460" unicode="Ĳ"/><glyph d="M1047 1339q-41 0 -70 30t-29 71q0 39 30 68.5t68.5 29.5t68.5 -29.5t30 -68.5q0 -41 -29.5 -71t-68.5 -30zM350 1219q-41 0 -70.5 29.5t-29.5 70.5t29.5 70.5t70.5 29.5t71 -29.5t30 -70.5t-30 -70.5t-71 -29.5zM774 -506v129h45q94 0 124 45t30 127v1331h137l2 -1351 q0 -281 -293 -281h-45zM283 1024h135v-1024h-135v1024z" glyph-name="ij" horiz-adv-x="1355" unicode="ĳ"/><glyph d="M1028 0l-766 717v-717h-139v1536h139v-743l692 741h181l-732 -774l801 -760h-176zM567 -348q-68 25 -67 96q0 41 28.5 70.5t71.5 29.5q41 0 68.5 -29.5t27.5 -70.5t-30.5 -103.5t-59.5 -103.5l-31 -43h-43z" glyph-name="Kcommaaccent" horiz-adv-x="1206" unicode="Ķ"/><glyph d="M125 0v1536h147v-922l443 512h186l-485 -536l561 -590h-184l-521 549v-549h-147zM481 -348q-68 25 -67 96q0 41 28.5 70.5t71.5 29.5q41 0 68.5 -29.5t27.5 -70.5t-30.5 -103.5t-59.5 -103.5l-31 -43h-43z" glyph-name="kcommaaccent" horiz-adv-x="980" unicode="ķ"/><glyph d="M369 2048h141l-215 -307h-115zM164 1536h139v-1411h580v-125h-719v1536z" glyph-name="Lacute" horiz-adv-x="929" unicode="Ĺ"/><glyph d="M365 2048h141l-215 -307h-115zM195 0l2 1536h137v-1536h-139z" glyph-name="lacute" horiz-adv-x="626" unicode="ĺ"/><glyph d="M164 1536h139v-1411h580v-125h-719v1536zM485 -348q-68 25 -67 96q0 41 28.5 70.5t71.5 29.5q41 0 68.5 -29.5t27.5 -70.5t-30.5 -103.5t-59.5 -103.5l-30 -43h-43z" glyph-name="Lcommaaccent" horiz-adv-x="929" unicode="Ļ"/><glyph d="M195 0l2 1536h137v-1536h-139zM250 -352q-68 25 -68 96q0 41 29 70.5t72 29.5q41 0 68.5 -29.5t27.5 -70.5t-30 -103.5t-60 -103.5l-31 -43h-43z" glyph-name="lcommaaccent" horiz-adv-x="626" unicode="ļ"/><glyph d="M164 1536h139v-1411h580v-125h-719v1536zM768 1339q-68 25 -68 97q0 41 29 70.5t72 29.5q41 0 68.5 -29.5t27.5 -70.5t-30.5 -103.5t-59.5 -103.5l-31 -43h-43z" glyph-name="Lcaron" horiz-adv-x="956" unicode="Ľ"/><glyph d="M596 1346q-68 25 -68 96q0 41 29 70.5t72 29.5q41 0 68.5 -29.5t27.5 -70.5t-30.5 -103.5t-59.5 -105.5l-31 -41h-43zM195 0l2 1536h137v-1536h-139z" glyph-name="lcaron" horiz-adv-x="808" unicode="ľ"/><glyph d="M195 0l2 1536h137v-1536h-139zM583.5 653q-34.5 0 -59 24.5t-24.5 59.5q0 33 24.5 58.5t59 25.5t59.5 -25.5t25 -58.5q0 -35 -25 -59.5t-59.5 -24.5z" glyph-name="ldot" horiz-adv-x="770" unicode="ŀ"/><glyph d="M883 125v-125h-719v639l-115 -121h-108l223 240v778h139v-631l113 123h114l-227 -242v-661h580z" glyph-name="Lslash" horiz-adv-x="929" unicode="Ł"/><glyph d="M565 995l-221 -233l-10 -10v-752h-139v602l-111 -117h-109l220 236l2 815h137v-666l10 11l107 114h114z" glyph-name="lslash" horiz-adv-x="626" unicode="ł"/><glyph d="M840 1741h-115l188 307h142zM1403 1536v-1536h-125l-975 1303v-1303h-139v1536h125l977 -1303v1303h137z" glyph-name="Nacute" horiz-adv-x="1566" unicode="Ń"/><glyph d="M662 1229h-115l188 307h142zM655 1139q180 0 291 -113t111 -299v-727h-144v715q0 133 -79.5 213t-212.5 80q-139 0 -243 -85t-104 -214v-709h-143v1126h121l18 -178q57 86 162.5 138.5t222.5 52.5z" glyph-name="nacute" horiz-adv-x="1191" unicode="ń"/><glyph d="M1403 1536v-1536h-125l-975 1303v-1303h-139v1536h125l977 -1303v1303h137zM766 -352q-68 25 -68 96q0 41 29 70.5t72 29.5q41 0 68.5 -29.5t27.5 -70.5t-29.5 -103.5t-60.5 -103.5l-31 -43h-43z" glyph-name="Ncommaaccent" horiz-adv-x="1566" unicode="Ņ"/><glyph d="M655 1139q180 0 291 -113t111 -299v-727h-144v715q0 133 -79.5 213t-212.5 80q-139 0 -243 -85t-104 -214v-709h-143v1126h121l18 -178q57 86 162.5 138.5t222.5 52.5zM563 -352q-68 25 -67 96q0 41 28.5 70.5t71.5 29.5q41 0 68.5 -29.5t27.5 -70.5t-30.5 -103.5 t-59.5 -103.5l-31 -43h-43z" glyph-name="ncommaaccent" horiz-adv-x="1191" unicode="ņ"/><glyph d="M705 1698l-205 350h110l168 -272l166 272h111l-205 -350h-145zM1403 1536v-1536h-125l-975 1303v-1303h-139v1536h125l977 -1303v1303h137z" glyph-name="Ncaron" horiz-adv-x="1566" unicode="Ň"/><glyph d="M526 1186l-204 350h110l168 -272l166 272h111l-205 -350h-146zM655 1139q180 0 291 -113t111 -299v-727h-144v715q0 133 -79.5 213t-212.5 80q-139 0 -243 -85t-104 -214v-709h-143v1126h121l18 -178q57 86 162.5 138.5t222.5 52.5z" glyph-name="ncaron" horiz-adv-x="1191" unicode="ň"/><glyph d="M1425 1536v-1708q0 -111 -75.5 -167t-192.5 -52v98q57 -4 94 23.5t37 97.5v197l-962 1271v-1296h-133v1536h118l981 -1296v1296h133z" glyph-name="Eng" horiz-adv-x="1617" unicode="Ŋ"/><glyph d="M1057 727v-727h-25v-178q0 -111 -76.5 -167t-193.5 -52v96q135 -8 135 123v188h16v705q0 133 -79.5 213t-212.5 80q-139 0 -243 -85t-104 -214v-709h-143v1126h121l18 -178q57 86 163 138.5t222 52.5q180 0 291 -113t111 -299z" glyph-name="eng" horiz-adv-x="1230" unicode="ŋ"/><glyph d="M543 1849h635v-94h-635v94zM858 -20q-324 0 -536.5 228t-212.5 560t213 560t536 228q322 0 536 -228t214 -560t-214 -560t-536 -228zM858 113q270 0 443.5 189.5t173.5 465.5q0 279 -173.5 468t-443.5 189t-444 -189t-174 -468q0 -276 174 -465.5t444 -189.5z" glyph-name="Omacron" horiz-adv-x="1716" unicode="Ō"/><glyph d="M262 1337h635v-94h-635v94zM577.5 -20q-217.5 0 -354.5 153.5t-137 378.5t137 378.5t354.5 153.5t355.5 -153.5t138 -378.5t-138 -378.5t-355.5 -153.5zM577.5 100q161.5 0 261 119t99.5 293q0 176 -99.5 294t-261 118t-261 -118t-99.5 -294q0 -174 99.5 -293t261 -119z " glyph-name="omacron" horiz-adv-x="1157" unicode="ō"/><glyph d="M952 2048h135l-333 -354h-107zM1274 2048h133l-332 -354h-108zM858 -20q-324 0 -536.5 228t-212.5 560t213 560t536 228q322 0 536 -228t214 -560t-214 -560t-536 -228zM858 113q270 0 443.5 189.5t173.5 465.5q0 279 -173.5 468t-443.5 189t-444 -189t-174 -468 q0 -276 174 -465.5t444 -189.5z" glyph-name="Ohungarumlaut" horiz-adv-x="1716" unicode="Ő"/><glyph d="M672 1536h135l-334 -354h-106zM993 1536h133l-331 -354h-109zM577.5 -20q-217.5 0 -354.5 153.5t-137 378.5t137 378.5t354.5 153.5t355.5 -153.5t138 -378.5t-138 -378.5t-355.5 -153.5zM577.5 100q161.5 0 261 119t99.5 293q0 176 -99.5 294t-261 118t-261 -118 t-99.5 -294q0 -174 99.5 -293t261 -119z" glyph-name="ohungarumlaut" horiz-adv-x="1157" unicode="ő"/><glyph d="M2400 1413h-790v-582h704v-124h-704v-582h790v-125h-930v266q-111 -133 -268.5 -208.5t-337.5 -75.5q-328 0 -558 230t-230 558t230.5 558.5t557.5 230.5q180 0 338 -76t268 -209v262h930v-123zM864 115q203 0 367 112.5t239 292.5v500q-74 182 -238.5 293.5 t-367.5 111.5q-274 0 -464.5 -190.5t-190.5 -464.5q0 -272 191.5 -463.5t463.5 -191.5z" glyph-name="OE" horiz-adv-x="2650" unicode="Œ"/><glyph d="M1997 569q0 -37 -2 -57h-873q2 -186 116 -292.5t249 -108.5q141 -2 226 58t112 157h129q-6 -49 -34 -102.5t-78 -109t-139 -90t-202 -34.5q-162 2 -281.5 84t-179.5 221v-37q-68 -129 -186.5 -203.5t-269.5 -74.5q-231 0 -379 168.5t-148 416.5t147.5 417t379.5 169 q152 0 270.5 -75t185.5 -204v-36q59 137 177 217t280 80q229 0 364.5 -157t135.5 -407zM584 113q174 0 279.5 130t105.5 322q0 195 -105.5 324t-279.5 129q-172 0 -278.5 -130t-106.5 -322.5t106.5 -322.5t278.5 -130zM1124 629h742q-16 172 -111.5 275.5t-255.5 103.5 q-162 0 -259.5 -103.5t-115.5 -275.5z" glyph-name="oe" horiz-adv-x="2082" unicode="œ"/><glyph d="M668 1741h-115l188 307h142zM1176 0h-156l-399 659h-400v-659h-139v1536h616q174 0 298 -133t124 -311q0 -158 -103.5 -282t-254.5 -144zM694 776q123 0 211 96.5t88 223.5q0 125 -89 221t-210 96h-473v-637h473z" glyph-name="Racute" horiz-adv-x="1185" unicode="Ŕ"/><glyph d="M440 1229h-114l188 307h141zM690 1137l-2 -123q-170 16 -286.5 -82t-116.5 -281v-651h-148v1126h127l21 -223q23 51 47 87t69 76t119 57.5t170 13.5z" glyph-name="racute" horiz-adv-x="774" unicode="ŕ"/><glyph d="M1176 0h-156l-399 659h-400v-659h-139v1536h616q174 0 298 -133t124 -311q0 -158 -103.5 -282t-254.5 -144zM694 776q123 0 211 96.5t88 223.5q0 125 -89 221t-210 96h-473v-637h473zM578 -344q-68 25 -68 96q0 41 28.5 71t71.5 30q41 0 69 -30t28 -71t-30 -103.5 t-61 -103.5l-30 -43h-43z" glyph-name="Rcommaaccent" horiz-adv-x="1185" unicode="Ŗ"/><glyph d="M690 1137l-2 -123q-170 16 -286.5 -82t-116.5 -281v-651h-148v1126h127l21 -223q23 51 47 87t69 76t119 57.5t170 13.5zM197 -346q-68 25 -68 96q0 41 28.5 70.5t71.5 29.5q41 0 69 -29.5t28 -70.5t-30 -103.5t-60 -105.5l-31 -41h-43z" glyph-name="rcommaaccent" horiz-adv-x="774" unicode="ŗ"/><glyph d="M532 1698l-204 350h110l168 -272l166 272h111l-205 -350h-146zM1176 0h-156l-399 659h-400v-659h-139v1536h616q174 0 298 -133t124 -311q0 -158 -103.5 -282t-254.5 -144zM694 776q123 0 211 96.5t88 223.5q0 125 -89 221t-210 96h-473v-637h473z" glyph-name="Rcaron" horiz-adv-x="1185" unicode="Ř"/><glyph d="M326 1186l-205 350h110l168 -272l166 272h111l-205 -350h-145zM690 1137l-2 -123q-170 16 -286.5 -82t-116.5 -281v-651h-148v1126h127l21 -223q23 51 47 87t69 76t119 57.5t170 13.5z" glyph-name="rcaron" horiz-adv-x="774" unicode="ř"/><glyph d="M858 2046h141l-215 -307h-114zM590 -20q-227 0 -380 129t-167 307h147q18 -125 121 -214t281 -89t290.5 78.5t114.5 224.5q0 90 -67.5 158.5t-127 93t-194.5 69.5q-31 10 -47 17q-92 31 -140 49t-123 56t-113 75t-67.5 96.5t-29.5 130.5q0 188 150.5 291.5t351.5 103.5 q242 0 372 -108.5t160 -286.5h-125q-16 113 -122.5 194t-284.5 81q-141 0 -251 -68t-110 -197q0 -47 22.5 -87t50.5 -66.5t84 -56t92 -44t106 -40.5q29 -10 43 -17q25 -10 85 -31.5t89.5 -34t83 -37t83 -44t67.5 -51t56.5 -65.5t33 -79t14.5 -96q0 -205 -162 -323.5 t-387 -118.5z" glyph-name="Sacute" horiz-adv-x="1273" unicode="Ś"/><glyph d="M627 1536h141l-215 -307h-115zM483 -18q-203 0 -311.5 105.5t-116.5 231.5h129q12 -82 98.5 -152.5t201 -70.5t192.5 62.5t78 158.5q0 98 -78 146.5t-225 73.5q-160 27 -257.5 91t-97.5 201q0 143 114 227.5t267 84.5q180 0 281.5 -78t118.5 -227h-123q-18 98 -97 141 t-155 45q-104 4 -181 -41t-77 -133q0 -92 72.5 -133t207.5 -62q377 -59 377 -325q0 -145 -120 -245.5t-298 -100.5z" glyph-name="sacute" horiz-adv-x="958" unicode="ś"/><glyph d="M1139 422q0 -193 -144.5 -310.5t-355.5 -129.5l-55 -123q109 23 185.5 -31.5t76.5 -153.5q0 -86 -59.5 -145t-145.5 -59q-66 0 -133.5 34.5t-99.5 85.5l65 33q27 -33 75 -56.5t93 -23.5q55 0 92 38t37 93q0 78 -63.5 109t-155.5 -2l-64 45l76 154q-217 8 -361.5 135 t-158.5 301h147q18 -125 121 -214t281 -89t290.5 78.5t114.5 224.5q0 90 -67.5 158.5t-127 93t-194.5 69.5q-31 10 -47 17q-92 31 -140 49t-123 56t-113 75t-67.5 96.5t-29.5 130.5q0 188 150.5 291.5t351.5 103.5q242 0 372 -108.5t160 -286.5h-125q-16 113 -122.5 194 t-284.5 81q-141 0 -251 -68t-110 -197q0 -47 22.5 -87t50.5 -66.5t84 -56t92 -44t106 -40.5q29 -10 43 -17q25 -10 85 -31.5t89.5 -34t83 -37t83 -44t67.5 -51t56.5 -65.5t33 -79t14.5 -96z" glyph-name="Scedilla" horiz-adv-x="1273" unicode="Ş"/><glyph d="M483 -18q-203 0 -311.5 105.5t-116.5 231.5h129q12 -82 98.5 -152.5t201 -70.5t192.5 62.5t78 158.5q0 98 -78 146.5t-225 73.5q-160 27 -257.5 91t-97.5 201q0 143 114 227.5t267 84.5q180 0 281.5 -78t118.5 -227h-123q-18 98 -97 141t-155 45q-104 4 -181 -41 t-77 -133q0 -92 72.5 -133t207.5 -62q377 -59 377 -325q0 -145 -120 -245.5t-298 -100.5zM524 -18l-57 -125q109 23 185.5 -31.5t76.5 -153.5q0 -86 -59.5 -145t-145.5 -59q-66 0 -133 34.5t-100 85.5l65 33q27 -33 75 -56.5t93 -23.5q55 0 92 38t37 93q0 78 -63.5 109 t-155.5 -2l-63 45l75 158h78z" glyph-name="scedilla" horiz-adv-x="958" unicode="ş"/><glyph d="M444 2046h111l168 -272l166 272h110l-204 -350h-146zM590 -20q-227 0 -380 129t-167 307h147q18 -125 121 -214t281 -89t290.5 78.5t114.5 224.5q0 90 -67.5 158.5t-127 93t-194.5 69.5q-31 10 -47 17q-92 31 -140 49t-123 56t-113 75t-67.5 96.5t-29.5 130.5 q0 188 150.5 291.5t351.5 103.5q242 0 372 -108.5t160 -286.5h-125q-16 113 -122.5 194t-284.5 81q-141 0 -251 -68t-110 -197q0 -47 22.5 -87t50.5 -66.5t84 -56t92 -44t106 -40.5q29 -10 43 -17q25 -10 85 -31.5t89.5 -34t83 -37t83 -44t67.5 -51t56.5 -65.5t33 -79 t14.5 -96q0 -205 -162 -323.5t-387 -118.5z" glyph-name="Scaron" horiz-adv-x="1273" unicode="Š"/><glyph d="M213 1536h111l168 -272l165 272h111l-205 -350h-145zM483 -18q-203 0 -311.5 105.5t-116.5 231.5h129q12 -82 98.5 -152.5t201 -70.5t192.5 62.5t78 158.5q0 98 -78 146.5t-225 73.5q-160 27 -257.5 91t-97.5 201q0 143 114 227.5t267 84.5q180 0 281.5 -78t118.5 -227 h-123q-18 98 -97 141t-155 45q-104 4 -181 -41t-77 -133q0 -92 72.5 -133t207.5 -62q377 -59 377 -325q0 -145 -120 -245.5t-298 -100.5z" glyph-name="scaron" horiz-adv-x="958" unicode="š"/><glyph d="M1087 1413h-471v-1411h-137v1411h-471v125h1079v-125zM657 -532q-66 0 -133 34.5t-100 85.5l65 33q27 -33 75 -56.5t93 -23.5q55 0 92 38t37 93q0 78 -63.5 109t-155.5 -2l-63 45l86 176h76l-66 -143q109 23 185.5 -31.5t76.5 -153.5q0 -86 -59.5 -145t-145.5 -59z" glyph-name="Tcommaaccent" horiz-adv-x="1052" unicode="Ţ"/><glyph d="M508 -2q-295 0 -295 281l2 737h-172v114h172v406h143v-406h252v-116l-258 2v-717q0 -41 4 -65.5t17.5 -52t47.5 -41t87 -13.5h119v-129h-119zM420 -143q109 23 185.5 -31.5t76.5 -153.5q0 -86 -59.5 -145t-145.5 -59q-66 0 -133.5 34.5t-99.5 85.5l65 33q27 -33 75 -56.5 t93 -23.5q55 0 92 38t37 93q0 78 -63.5 109t-155.5 -2l-63 45l77 160l76 -4z" glyph-name="tcommaaccent" horiz-adv-x="657" unicode="ţ"/><glyph d="M551 1698l-205 350h111l168 -272l166 272h110l-205 -350h-145zM1087 1413h-471v-1411h-137v1411h-471v125h1079v-125z" glyph-name="Tcaron" horiz-adv-x="1052" unicode="Ť"/><glyph d="M541 1372q-68 25 -68 96q0 41 28.5 71t71.5 30q41 0 69 -30t28 -71t-30 -103t-60 -103l-31 -43h-43zM508 -2q-295 0 -295 281l2 737h-172v114h172v406h143v-406h252v-116l-258 2v-717q0 -41 4 -65.5t17.5 -52t47.5 -41t87 -13.5h119v-129h-119z" glyph-name="tcaron" horiz-adv-x="706" unicode="ť"/><glyph d="M1087 1413h-471v-594h302v-100h-302v-717h-137v717h-139v100h139v594h-471v125h1079v-125z" glyph-name="Tbar" horiz-adv-x="1052" unicode="Ŧ"/><glyph d="M631 461h-279v-162q0 -41 4 -65.5t17.5 -52t47.5 -41t87 -13.5h119v-129h-119q-295 0 -295 281v182h-160v100h160l2 455h-172v114h172v406h143v-406h252v-116l-258 2v-455h279v-100z" glyph-name="tbar" horiz-adv-x="657" unicode="ŧ"/><glyph d="M885 1729q-117 0 -185 108q-41 68 -106 68q-53 0 -81 -44t-19 -114h-91q-10 106 43.5 176t143.5 70q115 0 184 -109q41 -68 109 -67q51 0 79.5 43t20.5 112h88q12 -106 -41 -174.5t-145 -68.5zM655.5 -20q-237.5 0 -404.5 153.5t-167 372.5v1030h139v-1010 q0 -174 127 -298t305 -124q182 0 316.5 124t134.5 298v1010h137v-1030q0 -217 -175 -371.5t-412.5 -154.5z" glyph-name="Utilde" horiz-adv-x="1474" unicode="Ũ"/><glyph d="M422 1849h635v-94h-635v94zM655.5 -20q-237.5 0 -404.5 153.5t-167 372.5v1030h139v-1010q0 -174 127 -298t305 -124q182 0 316.5 124t134.5 298v1010h137v-1030q0 -217 -175 -371.5t-412.5 -154.5z" glyph-name="Umacron" horiz-adv-x="1474" unicode="Ū"/><glyph d="M920 1243h-635v94h635v-94zM1057 1126v-1126h-127l-17 180q-59 -86 -165.5 -139t-219.5 -53q-184 0 -300.5 117.5t-116.5 300.5v720h147v-704q0 -135 83 -219t218 -84q141 0 246.5 86t105.5 217v704h146z" glyph-name="umacron" horiz-adv-x="1198" unicode="ū"/><glyph d="M739 1661q-82 0 -140 58.5t-58 138.5q0 82 58 140t140 58q80 0 137.5 -58.5t57.5 -139.5q0 -80 -57.5 -138.5t-137.5 -58.5zM739.5 1731q53.5 0 90 36.5t36.5 90t-37.5 92.5t-89.5 39q-53 0 -91 -39t-38 -92.5t38 -90t91.5 -36.5zM655.5 -20q-237.5 0 -404.5 153.5 t-167 372.5v1030h139v-1010q0 -174 127 -298t305 -124q182 0 316.5 124t134.5 298v1010h137v-1030q0 -217 -175 -371.5t-412.5 -154.5z" glyph-name="Uring" horiz-adv-x="1474" unicode="Ů"/><glyph d="M602 1149q-82 0 -140.5 58.5t-58.5 138.5q0 82 58.5 140t140.5 58q80 0 137.5 -58.5t57.5 -139.5q0 -80 -57.5 -138.5t-137.5 -58.5zM602 1477q-53 0 -91 -39t-38 -92.5t38 -90t91 -36.5t90 36.5t37 90t-38 92.5t-89 39zM1057 1126v-1126h-127l-17 180 q-59 -86 -165.5 -139t-219.5 -53q-184 0 -300.5 117.5t-116.5 300.5v720h147v-704q0 -135 83 -219t218 -84q141 0 246.5 86t105.5 217v704h146z" glyph-name="uring" horiz-adv-x="1198" unicode="ů"/><glyph d="M831 2048h136l-334 -354h-107zM1153 2048h133l-332 -354h-108zM655.5 -20q-237.5 0 -404.5 153.5t-167 372.5v1030h139v-1010q0 -174 127 -298t305 -124q182 0 316.5 124t134.5 298v1010h137v-1030q0 -217 -175 -371.5t-412.5 -154.5z" glyph-name="Uhungarumlaut" horiz-adv-x="1474" unicode="Ű"/><glyph d="M496 1182h-107l305 354h135zM709 1182l307 354h133l-332 -354h-108zM1057 1126v-1126h-127l-17 180q-59 -86 -165.5 -139t-219.5 -53q-184 0 -300.5 117.5t-116.5 300.5v720h147v-704q0 -135 83 -219t218 -84q141 0 246.5 86t105.5 217v704h146z" glyph-name="uhungarumlaut" horiz-adv-x="1198" unicode="ű"/><glyph d="M655.5 -20q-237.5 0 -404.5 153.5t-167 372.5v1030h139v-1010q0 -174 127 -298t305 -124q182 0 316.5 124t134.5 298v1010h137v-1030q0 -217 -175 -371.5t-412.5 -154.5zM891 2q-88 -47 -155.5 -128t-67.5 -171q0 -63 36.5 -102t104.5 -39q119 0 197 88l47 -68 q-106 -104 -265 -100q-100 4 -158.5 59.5t-58.5 149.5q0 156 187 291z" glyph-name="Uogonek" horiz-adv-x="1474" unicode="Ų"/><glyph d="M1118 -365l47 -67q-106 -104 -264 -100q-100 4 -158.5 59t-58.5 149q0 176 227 324h19l-17 180q-59 -86 -165.5 -139t-219.5 -53q-184 0 -300.5 117.5t-116.5 300.5v720h147v-704q0 -135 83 -219t218 -84q141 0 246.5 86t105.5 217v704h146v-1126h-23q-98 -43 -176 -128 t-78 -183q0 -63 37 -102.5t105 -39.5q118 0 196 88z" glyph-name="uogonek" horiz-adv-x="1198" unicode="ų"/><glyph d="M909 1698h-114l204 350h146l205 -350h-115l-162 280zM1999 1536l-486 -1536h-170l-329 1264l-336 -1264h-170l-488 1536h150l416 -1370l362 1370h144l344 -1372l413 1372h150z" glyph-name="Wcircumflex" horiz-adv-x="2142" unicode="Ŵ"/><glyph d="M586 1186h-115l205 350h145l205 -350h-115l-161 280zM1589 1116l-336 -1116h-163l-256 942l-252 -942h-162l-338 1116h162l266 -938l250 938h155l248 -944l267 944h159z" glyph-name="wcircumflex" horiz-adv-x="1435" unicode="ŵ"/><glyph d="M489 1698h-114l205 350h145l205 -350h-115l-162 280zM721 729v-729h-137v725l-537 811h156l448 -688l451 688h153z" glyph-name="Ycircumflex" horiz-adv-x="1302" unicode="Ŷ"/><glyph d="M377 1186h-115l205 350h145l205 -350h-115l-161 280zM1069 1126l-666 -1638h-137l236 573h-43l-445 1065h148l391 -936l367 936h149z" glyph-name="ycircumflex" horiz-adv-x="1200" unicode="ŷ"/><glyph d="M475 1731q-41 0 -70.5 29.5t-29.5 70.5t29.5 70.5t70.5 29.5t70.5 -29.5t29.5 -70.5t-29.5 -70.5t-70.5 -29.5zM833.5 1731q-40.5 0 -70.5 29.5t-30 70.5t30 70.5t70.5 29.5t69.5 -29.5t29 -70.5t-29 -70.5t-69.5 -29.5zM721 729v-729h-137v725l-537 811h156l448 -688 l451 688h153z" glyph-name="Ydieresis" horiz-adv-x="1302" unicode="Ÿ"/><glyph d="M741 1741h-114l188 307h141zM1255 125v-125h-1159v70l932 1343h-909v123h1102v-70l-932 -1341h966z" glyph-name="Zacute" horiz-adv-x="1353" unicode="Ź"/><glyph d="M684 1536h141l-215 -307h-114zM86 90l678 819h-662v115h846v-84l-678 -825h699v-115h-883v90z" glyph-name="zacute" horiz-adv-x="1054" unicode="ź"/><glyph d="M680 1731q-41 0 -70.5 29.5t-29.5 70.5t29.5 70.5t70.5 29.5t70.5 -29.5t29.5 -70.5t-29.5 -70.5t-70.5 -29.5zM1255 125v-125h-1159v70l932 1343h-909v123h1102v-70l-932 -1341h966z" glyph-name="Zdotaccent" horiz-adv-x="1353" unicode="Ż"/><glyph d="M549 1219q-41 0 -70.5 29.5t-29.5 70.5t29.5 70.5t70.5 29.5t70.5 -29.5t29.5 -70.5t-29.5 -70.5t-70.5 -29.5zM86 90l678 819h-662v115h846v-84l-678 -825h699v-115h-883v90z" glyph-name="zdotaccent" horiz-adv-x="1054" unicode="ż"/><glyph d="M606 1698l-205 350h111l168 -272l166 272h110l-204 -350h-146zM1255 125v-125h-1159v70l932 1343h-909v123h1102v-70l-932 -1341h966z" glyph-name="Zcaron" horiz-adv-x="1353" unicode="Ž"/><glyph d="M270 1536h111l168 -272l166 272h110l-204 -350h-146zM86 90l678 819h-662v115h846v-84l-678 -825h699v-115h-883v90z" glyph-name="zcaron" horiz-adv-x="1054" unicode="ž"/><glyph d="M698 1454q-76 0 -134 -52t-72 -134l-39 -244h290l-16 -106h-291l-227 -1430h-123l225 1430h-170l17 106h172l41 262q18 115 110 192.5t209 77.5q78 0 125 -34l-12 -105q-42 37 -105 37z" glyph-name="florin" horiz-adv-x="856" unicode="ƒ"/><glyph d="M668 1698l-205 350h110l168 -272l166 272h111l-205 -350h-145zM1137 401h-762l-158 -401h-151l616 1536h154l616 -1536h-152zM1096 526l-338 865l-336 -865h674z" glyph-name="uni01CD" horiz-adv-x="1480" unicode="Ǎ"/><glyph d="M432 1186l-205 350h111l168 -272l166 272h110l-204 -350h-146zM436 -8q-162 0 -269.5 92t-107.5 233q0 334 465 365l293 18v43q0 135 -81 206t-222 71q-123 0 -200.5 -69.5t-90.5 -176.5h-139q16 154 129 261.5t307 107.5q201 0 315.5 -109.5t114.5 -296.5l2 -461 q0 -90 18.5 -125.5t63.5 -33.5v-117q-31 0 -57 6q-139 29 -152 170q-45 -78 -153.5 -131t-235.5 -53zM442 117q145 0 260 88t115 203v170l-293 -21q-188 -12 -261 -76.5t-73 -165.5q0 -90 77 -144t175 -54z" glyph-name="uni01CE" horiz-adv-x="1097" unicode="ǎ"/><glyph d="M-47 2048h113l167 -272l166 272h111l-205 -350h-145zM164 1536h139v-1536h-139v1536z" glyph-name="uni01CF" horiz-adv-x="466" unicode="Ǐ"/><glyph d="M-49 1536h112l168 -272l166 272h111l-205 -350h-145zM164 1024h135v-1024h-135v1024z" glyph-name="uni01D0" horiz-adv-x="462" unicode="ǐ"/><glyph d="M582 2048h110l168 -272l166 272h111l-205 -350h-146zM858 -20q-324 0 -536.5 228t-212.5 560t213 560t536 228q322 0 536 -228t214 -560t-214 -560t-536 -228zM858 113q270 0 443.5 189.5t173.5 465.5q0 279 -173.5 468t-443.5 189t-444 -189t-174 -468 q0 -276 174 -465.5t444 -189.5z" glyph-name="uni01D1" horiz-adv-x="1716" unicode="Ǒ"/><glyph d="M301 1536h111l168 -272l165 272h111l-205 -350h-145zM577.5 -20q-217.5 0 -354.5 153.5t-137 378.5t137 378.5t354.5 153.5t355.5 -153.5t138 -378.5t-138 -378.5t-355.5 -153.5zM577.5 100q161.5 0 261 119t99.5 293q0 176 -99.5 294t-261 118t-261 -118t-99.5 -294 q0 -174 99.5 -293t261 -119z" glyph-name="uni01D2" horiz-adv-x="1157" unicode="ǒ"/><glyph d="M461 2048h110l168 -272l166 272h111l-205 -350h-145zM737.5 -20q-237.5 0 -402.5 153.5t-165 372.5v1030h139v-1010q0 -176 125 -299t303 -123q180 0 305 123t125 299v1010h138v-1030q0 -219 -165 -372.5t-402.5 -153.5z" glyph-name="uni01D3" horiz-adv-x="1474" unicode="Ǔ"/><glyph d="M528 1186l-204 350h110l168 -272l166 272h111l-205 -350h-146zM1057 1126v-1126h-127l-17 180q-59 -86 -165.5 -139t-219.5 -53q-184 0 -300.5 117.5t-116.5 300.5v720h147v-704q0 -135 83 -219t218 -84q141 0 246.5 86t105.5 217v704h146z" glyph-name="uni01D4" horiz-adv-x="1198" unicode="ǔ"/><glyph d="M788 1698l-204 350h110l168 -272l166 272h111l-205 -350h-146zM1415 772v-119v-653h-94l-35 262q-84 -139 -207 -205.5t-325 -66.5q-217 0 -382 113.5t-245 286.5t-80 374q0 348 195.5 570t507.5 222q252 0 422.5 -125.5t207.5 -347.5h-131q-49 170 -187 256t-306 86 q-264 0 -422 -183t-158 -478q0 -287 166 -466t408 -179q274 0 404 142t130 386h-438v125h569z" glyph-name="Gcaron" horiz-adv-x="1507" unicode="Ǧ"/><glyph d="M520 1186l-205 350h111l168 -272l166 272h110l-204 -350h-146zM532 -492q-213 0 -355 94.5t-142 252.5q0 78 42 142t116 101q-6 4 -30 21.5t-36 29t-29.5 31t-26 43t-8.5 49.5q0 61 35 104.5t103 88.5q-106 104 -107 276q0 166 116 277.5t296 111.5q131 0 242 -63 q25 57 87 93t134 36v-131q-43 0 -78 -22.5t-45 -59.5q82 -106 82 -242q0 -174 -115 -281.5t-307 -107.5q-154 0 -232 54q-41 -16 -59 -50t-8 -71q31 -104 192 -107l226 -2q346 -4 387 -250q29 -168 -98.5 -293t-381.5 -125zM791 741q0 111 -82 187t-203 76q-119 0 -199 -76 t-80 -186.5t80 -187.5t199 -77q123 0 204 75.5t81 188.5zM877 -76q-14 74 -85 104.5t-210 30.5h-248q-74 -18 -114 -74.5t-40 -127.5q0 -100 102.5 -162t237.5 -62q195 0 288.5 82t68.5 209z" glyph-name="gcaron" horiz-adv-x="1224" unicode="ǧ"/><glyph d="M922 1741h-115l188 307h142zM1333 1386q129 -111 202 -272.5t73 -345.5q0 -332 -214 -560t-536 -228q-219 0 -399 114l-76 -110h-107l111 163q-131 109 -204.5 271t-73.5 350q0 332 213 560t536 228q225 0 406 -118l75 112h105zM240 768q0 -156 58 -289t163 -223 l729 1073q-147 96 -332 96q-270 0 -444 -189t-174 -468zM858 113q270 0 443.5 189.5t173.5 465.5q0 319 -215 508l-728 -1073q146 -90 326 -90z" glyph-name="Oslashacute" horiz-adv-x="1716" unicode="Ǿ"/><glyph d="M641 1229h-115l189 307h141zM899 926q172 -156 172 -414q0 -225 -138 -378.5t-355 -153.5q-147 0 -269 77l-80 -118h-77l108 157q-174 156 -174 416q0 225 137 378.5t355 153.5q152 0 270 -79l82 118h76zM217 512q0 -190 115 -309l446 657q-86 63 -200 64 q-162 0 -261.5 -118t-99.5 -294zM578 100q162 0 261 119t99 293q0 188 -113 307l-444 -659q86 -60 197 -60z" glyph-name="oslashacute" horiz-adv-x="1157" unicode="ǿ"/><glyph d="M590 -20q-227 0 -380 129t-167 307h147q18 -125 121 -214t281 -89t290.5 78.5t114.5 224.5q0 90 -67.5 158.5t-127 93t-194.5 69.5q-31 10 -47 17q-92 31 -140 49t-123 56t-113 75t-67.5 96.5t-29.5 130.5q0 188 150.5 291.5t351.5 103.5q242 0 372 -108.5t160 -286.5 h-125q-16 113 -122.5 194t-284.5 81q-141 0 -251 -68t-110 -197q0 -47 22.5 -87t50.5 -66.5t84 -56t92 -44t106 -40.5q29 -10 43 -17q25 -10 85 -31.5t89.5 -34t83 -37t83 -44t67.5 -51t56.5 -65.5t33 -79t14.5 -96q0 -205 -162 -323.5t-387 -118.5zM629 -350q-68 25 -68 96 q0 41 28.5 70.5t72.5 29.5q41 0 68.5 -29.5t27.5 -70.5t-31 -103.5t-59 -105.5l-31 -41h-43z" glyph-name="Scommaaccent" horiz-adv-x="1273" unicode="Ș"/><glyph d="M483 -18q-203 0 -311.5 105.5t-116.5 231.5h129q12 -82 98.5 -152.5t201 -70.5t192.5 62.5t78 158.5q0 98 -78 146.5t-225 73.5q-160 27 -257.5 91t-97.5 201q0 143 114 227.5t267 84.5q180 0 281.5 -78t118.5 -227h-123q-18 98 -97 141t-155 45q-104 4 -181 -41 t-77 -133q0 -92 72.5 -133t207.5 -62q377 -59 377 -325q0 -145 -120 -245.5t-298 -100.5zM457 -342q-68 25 -68 96q0 41 28.5 71t71.5 30q41 0 69 -30t28 -71t-31 -103.5t-59 -105.5l-31 -41h-43z" glyph-name="scommaaccent" horiz-adv-x="958" unicode="ș"/><glyph d="M1087 1413h-471v-1411h-137v1411h-471v125h1079v-125zM575 -340q-68 25 -67 96q0 41 28.5 71t71.5 30q41 0 69 -30t28 -71t-31 -103.5t-60 -103.5l-30 -43h-43z" glyph-name="uni021A" horiz-adv-x="1052" unicode="Ț"/><glyph d="M508 -2q-295 0 -295 281l2 737h-172v114h172v406h143v-406h252v-116l-258 2v-717q0 -41 4 -65.5t17.5 -52t47.5 -41t87 -13.5h119v-129h-119zM369 -340q-68 25 -68 96q0 41 28.5 71t71.5 30q41 0 69 -30t28 -71t-30 -103.5t-60 -103.5l-31 -43h-43z" glyph-name="uni021B" horiz-adv-x="657" unicode="ț"/><glyph d="M1028 1413h-790v-582h704v-124h-704v-582h790v-125h-414l-65 -143q109 23 185.5 -31.5t76.5 -153.5q0 -86 -59.5 -145t-145.5 -59q-66 0 -133 34.5t-100 85.5l65 33q27 -33 75 -56.5t93 -23.5q55 0 92 38t37 93q0 78 -63.5 109t-155.5 -2l-63 45l86 176h-441v1536h930 v-123z" glyph-name="uni0228" horiz-adv-x="1107" unicode="Ȩ"/><glyph d="M1075 569q0 -37 -2 -57h-872q2 -186 115.5 -292.5t248.5 -108.5q141 -2 226.5 58t111.5 157h129q-16 -113 -119.5 -219.5t-298.5 -116.5q-6 -6 -12 -10l-57 -123q109 23 185.5 -31.5t76.5 -153.5q0 -86 -59.5 -145t-145.5 -59q-66 0 -133.5 34.5t-99.5 85.5l65 33 q27 -33 75 -56.5t93 -23.5q55 0 92 38t37 93q0 78 -63.5 109t-155.5 -2l-63 45l77 158q-27 10 -30 14q-197 31 -313.5 189.5t-116.5 375.5q0 248 138 410t371 162q229 0 364.5 -157t135.5 -407zM203 629h741q-16 172 -111.5 275.5t-254.5 103.5q-162 0 -259.5 -103.5 t-115.5 -275.5z" glyph-name="uni0229" horiz-adv-x="1124" unicode="ȩ"/><glyph d="M90 -532q-80 0 -127 32v121q49 -39 115 -39q68 0 115 49.5t47 118.5v1274h135v-1280q0 -115 -83 -195.5t-202 -80.5z" glyph-name="uni0237" horiz-adv-x="571" unicode="ȷ"/><glyph d="M274 1536h146l205 -350h-115l-162 280l-164 -280h-114z" glyph-name="circumflex" horiz-adv-x="108" unicode="ˆ"/><glyph d="M70 1536h110l168 -272l166 272h111l-205 -350h-146z" glyph-name="caron" horiz-adv-x="108" unicode="ˇ"/><glyph d="M592 1165q-143 0 -236.5 84t-93.5 221h88q0 -90 69.5 -153.5t172.5 -63.5q104 0 175 63.5t71 153.5h86q0 -137 -93.5 -221t-238.5 -84z" glyph-name="breve" horiz-adv-x="108" unicode="˘"/><glyph d="M293 1219q-41 0 -70.5 29.5t-29.5 70.5t29.5 70.5t70.5 29.5t70.5 -29.5t29.5 -70.5t-29.5 -70.5t-70.5 -29.5z" glyph-name="dotaccent" horiz-adv-x="108" unicode="˙"/><glyph d="M180 1149q-82 0 -141 58.5t-59 138.5q0 82 59 140t141 58q80 0 137.5 -58.5t57.5 -139.5q0 -80 -57.5 -138.5t-137.5 -58.5zM180 1219q53 0 90 36.5t37 90t-38 92.5t-89 39q-53 0 -91 -39t-38 -92.5t38 -90t91 -36.5z" glyph-name="ring" horiz-adv-x="108" unicode="˚"/><glyph d="M270 -532q-100 4 -158.5 59t-58.5 149q0 186 277 349l76 -25q-98 -43 -177 -128t-79 -183q0 -63 36.5 -102.5t104.5 -39.5q119 0 196 88l48 -67q-107 -104 -265 -100z" glyph-name="ogonek" horiz-adv-x="108" unicode="˛"/><glyph d="M553 1278q-117 0 -184 108q-41 68 -107 68q-53 0 -80.5 -44t-19.5 -114h-90q-10 106 43 176t143 70q115 0 184 -108q41 -68 109 -68q51 0 79.5 43t20.5 113h88q12 -106 -41 -175t-145 -69z" glyph-name="tilde" horiz-adv-x="114" unicode="˜"/><glyph d="M375 1536h135l-334 -354h-106zM696 1536h133l-331 -354h-109z" glyph-name="hungarumlaut" horiz-adv-x="108" unicode="˝"/><glyph d="M-399 1536h141l188 -307h-114z" glyph-name="gravecomb" unicode="̀"/><glyph d="M-211 1536h141l-215 -307h-114z" glyph-name="acutecomb" unicode="́"/><glyph d="M-420 1536h146l204 -350h-114l-162 280l-164 -280h-115z" glyph-name="uni0302" unicode="̂"/><glyph d="M-260 1278q-117 0 -184 108q-41 68 -107 68q-53 0 -80.5 -44t-19.5 -114h-90q-10 106 43 176t143 70q115 0 184 -108q41 -68 109 -68q51 0 79.5 43t20.5 113h88q12 -106 -41 -175t-145 -69z" glyph-name="tildecomb" unicode="̃"/><glyph d="M-702 1337h634v-94h-634v94z" glyph-name="uni0304" unicode="̄"/><glyph d="M-692 1165q-143 0 -236.5 84t-93.5 221h88q0 -90 69.5 -153.5t172.5 -63.5q104 0 175 63.5t71 153.5h86q0 -137 -93.5 -221t-238.5 -84z" glyph-name="uni0306" unicode="̆"/><glyph d="M-291 1219q-41 0 -70.5 29.5t-29.5 70.5t29.5 70.5t70.5 29.5t71 -29.5t30 -70.5t-30 -70.5t-71 -29.5z" glyph-name="uni0307" unicode="̇"/><glyph d="M-592 1219q-41 0 -70.5 29.5t-29.5 70.5t29.5 70.5t70.5 29.5t70.5 -29.5t29.5 -70.5t-29.5 -70.5t-70.5 -29.5zM-233.5 1219q-40.5 0 -70.5 29.5t-30 70.5t30 70.5t70.5 29.5t69.5 -29.5t29 -70.5t-29 -70.5t-69.5 -29.5z" glyph-name="uni0308" unicode="̈"/><glyph d="M-176 1149q-82 0 -141.5 58.5t-59.5 138.5q0 82 59.5 140t141.5 58q80 0 137 -58.5t57 -139.5q0 -80 -57 -138.5t-137 -58.5zM-176 1219q53 0 90 36.5t37 90t-38 92.5t-89 39q-53 0 -91 -39t-38 -92.5t38 -90t91 -36.5z" glyph-name="uni030A" unicode="̊"/><glyph d="M-524 1536h135l-334 -354h-106zM-203 1536h133l-331 -354h-109z" glyph-name="uni030B" unicode="̋"/><glyph d="M-625 1536h111l168 -272l166 272h110l-204 -350h-146z" glyph-name="uni030C" unicode="̌"/><glyph d="M-207 1378q68 -25 68 -96q0 -41 -29 -70.5t-72 -29.5q-41 0 -68.5 29.5t-27.5 70.5t31 103.5t59 105.5l31 41h43z" glyph-name="uni0312" unicode="̒"/><glyph d="M-168 -512q-41 0 -70.5 29.5t-29.5 70.5t29.5 71t70.5 30t70.5 -31t29.5 -70q0 -41 -29.5 -70.5t-70.5 -29.5z" glyph-name="dotbelowcomb" unicode="̣"/><glyph d="M-176 -2q-68 25 -68 96q0 41 29 71t72 30q41 0 68.5 -30t27.5 -71t-29.5 -103.5t-60.5 -105.5l-31 -41h-43z" glyph-name="uni0326" unicode="̦"/><glyph d="M-272 -532q-66 0 -133.5 34.5t-100.5 85.5l66 33q27 -33 75 -56.5t93 -23.5q55 0 92 38t37 93q0 78 -63.5 109t-155.5 -2l-64 45l86 176h76l-66 -143q109 23 185.5 -31.5t76.5 -153.5q0 -86 -59 -145t-145 -59z" glyph-name="uni0327" unicode="̧"/><glyph d="M-332 -532q-100 4 -158.5 59t-58.5 149q0 186 277 349l75 -25q-98 -43 -177 -128t-79 -183q0 -63 37 -102.5t105 -39.5q119 0 196 88l47 -67q-106 -104 -264 -100z" glyph-name="uni0328" unicode="̨"/><glyph d="M-934 590h578v-101h-578v101z" glyph-name="uni0335" unicode="̵"/><glyph d="M-1518 567h1448v-67h-1448v67z" glyph-name="uni0336" unicode="̶"/><glyph d="M-360 776h114l-481 -510h-107z" glyph-name="uni0337" unicode="̷"/><glyph d="M-156 1552h105l-1061 -1566h-107z" glyph-name="uni0338" unicode="̸"/><glyph d="M78 94l653 1460h160l645 -1458v-96h-1458v94zM1397 109l-400 892q-8 18 -84.5 196.5t-95.5 234.5h-24q-8 -27 -37 -96.5t-69 -160t-56 -131.5l-422 -935h1188z" glyph-name="Delta" horiz-adv-x="1613" unicode="Δ"/><glyph d="M1282 0l-543 1378l-540 -1378h-152l617 1536h153l617 -1536h-152z" glyph-name="Lambda" horiz-adv-x="1480" unicode="Λ"/><glyph d="M147 1536h867v-123h-867v123zM246 831h672v-124h-672v124zM147 125h867v-125h-867v125z" glyph-name="Xi" horiz-adv-x="1208" unicode="Ξ"/><glyph d="M129 102h367v17q-143 106 -237.5 283.5t-94.5 394.5q0 315 216 528t542 213q217 0 390 -104.5t264 -271.5t91 -359q0 -219 -99.5 -404.5t-234.5 -279.5v-17h371v-102h-582v74q170 86 291 274.5t121 435.5q-2 160 -69.5 305.5t-210 246t-330.5 100.5q-276 0 -450.5 -190.5 t-174.5 -465.5q0 -242 122 -432t288 -274v-74h-580v102z" glyph-name="Omega" horiz-adv-x="1832" unicode="Ω"/><glyph d="M911 1126h146v-1126h-127l-17 180q-59 -86 -165.5 -139t-219.5 -53q-147 0 -252 75v-575h-104v688q-61 100 -61 230v720h147v-704q0 -135 83 -219t218 -84q141 0 246.5 86t105.5 217v704z" glyph-name="mu" horiz-adv-x="1243" unicode="μ"/><glyph d="M158 0q68 166 123 461t65 547q-209 0 -305 -31q20 47 25.5 60.5t21.5 37t21.5 24.5t34 8t46 4t71.5 -3h97h990l-13 -100h-217v-678q0 -225 37 -330h-129q-35 63 -35 309v699l-516 2q-12 -238 -68.5 -554.5t-121.5 -455.5h-127z" glyph-name="pi" horiz-adv-x="1396" unicode="π"/><glyph d="M844 809q139 -29 229 -141.5t90 -264.5q0 -174 -119.5 -288.5t-293.5 -114.5h-678v1536h594q176 0 296.5 -113.5t120.5 -285.5q0 -133 -65 -222.5t-174 -105.5zM944 1120q0 121 -85 207t-206 86h-444v-565h444q123 0 207 76.5t84 195.5zM733 125q121 0 206 86t85 207 q0 123 -86 218t-205 95h-524v-606h524zM627 -154q41 0 70.5 -29.5t29.5 -70.5t-29.5 -70.5t-70.5 -29.5t-71 29.5t-30 70.5t30 70.5t71 29.5z" glyph-name="uni1E04" horiz-adv-x="1316" unicode="Ḅ"/><glyph d="M664 1137q229 0 373.5 -166t144.5 -414q0 -246 -142.5 -409.5t-371.5 -163.5q-266 0 -410 217l-22 -201h-115v1536h143v-614q146 215 400 215zM647 109q176 0 284.5 129t108.5 319q0 193 -107.5 321t-285.5 128q-145 0 -248.5 -96.5t-134.5 -247.5v-209 q31 -152 134.5 -248t248.5 -96zM643 -154q41 0 70.5 -29.5t29.5 -70.5t-29.5 -70.5t-70.5 -29.5t-70.5 29.5t-29.5 70.5t29.5 70.5t70.5 29.5z" glyph-name="uni1E05" horiz-adv-x="1224" unicode="ḅ"/><glyph d="M1319 1536v-1536h-137v707h-879v-707h-139v1536h139v-705h879v705h137zM750 -154q41 0 70.5 -29.5t29.5 -70.5t-29.5 -70.5t-70.5 -29.5t-71 29.5t-30 70.5t30 70.5t71 29.5z" glyph-name="uni1E24" horiz-adv-x="1482" unicode="Ḥ"/><glyph d="M668 1139q184 0 296.5 -113t112.5 -297v-729h-147v715q0 133 -82 213t-217 80q-141 0 -246.5 -85t-105.5 -214v-709h-148v1534h148v-580q59 84 165.5 134.5t223.5 50.5zM586 -154q41 0 70.5 -29.5t29.5 -70.5t-29.5 -70.5t-70.5 -29.5t-71 29.5t-30 70.5t30 70.5t71 29.5 z" glyph-name="uni1E25" horiz-adv-x="1191" unicode="ḥ"/><glyph d="M164 1536h139v-1411h580v-125h-719v1536zM524 -354q-41 0 -70.5 29.5t-29.5 70.5t29.5 70.5t70.5 29.5t71 -29.5t30 -70.5t-30 -70.5t-71 -29.5z" glyph-name="uni1E36" horiz-adv-x="929" unicode="Ḷ"/><glyph d="M195 0l2 1536h137v-1536h-139zM278.5 -354q-40.5 0 -70.5 29.5t-30 70.5t30 70.5t70.5 29.5t70.5 -29.5t30 -70.5t-30 -70.5t-70.5 -29.5z" glyph-name="uni1E37" horiz-adv-x="626" unicode="ḷ"/><glyph d="M778 1731q-41 0 -70.5 29.5t-29.5 70.5t29.5 70.5t70.5 29.5t71 -29.5t30 -70.5t-30 -70.5t-71 -29.5zM1403 1536v-1536h-125l-975 1303v-1303h-139v1536h125l977 -1303v1303h137z" glyph-name="uni1E44" horiz-adv-x="1566" unicode="Ṅ"/><glyph d="M600 1219q-41 0 -70.5 29.5t-29.5 70.5t29.5 70.5t70.5 29.5t70.5 -29.5t29.5 -70.5t-29.5 -70.5t-70.5 -29.5zM655 1139q180 0 291 -113t111 -299v-727h-144v715q0 133 -79.5 213t-212.5 80q-139 0 -243 -85t-104 -214v-709h-143v1126h121l18 -178q57 86 162.5 138.5 t222.5 52.5z" glyph-name="uni1E45" horiz-adv-x="1191" unicode="ṅ"/><glyph d="M1403 1536v-1536h-125l-975 1303v-1303h-139v1536h125l977 -1303v1303h137zM793 -154q39 0 69.5 -29.5t30.5 -70.5t-29.5 -70.5t-70.5 -29.5t-71 29.5t-30 70.5t30 70.5t71 29.5z" glyph-name="uni1E46" horiz-adv-x="1566" unicode="Ṇ"/><glyph d="M655 1139q180 0 291 -113t111 -299v-727h-144v715q0 133 -79.5 213t-212.5 80q-139 0 -243 -85t-104 -214v-709h-143v1126h121l18 -178q57 86 162.5 138.5t222.5 52.5zM600 -154q39 0 69.5 -29.5t30.5 -70.5t-29.5 -70.5t-70.5 -29.5t-70.5 29.5t-29.5 70.5t29.5 70.5 t70.5 29.5z" glyph-name="uni1E47" horiz-adv-x="1191" unicode="ṇ"/><glyph d="M590 -20q-227 0 -380 129t-167 307h147q18 -125 121 -214t281 -89t290.5 78.5t114.5 224.5q0 90 -67.5 158.5t-127 93t-194.5 69.5q-31 10 -47 17q-92 31 -140 49t-123 56t-113 75t-67.5 96.5t-29.5 130.5q0 188 150.5 291.5t351.5 103.5q242 0 372 -108.5t160 -286.5 h-125q-16 113 -122.5 194t-284.5 81q-141 0 -251 -68t-110 -197q0 -47 22.5 -87t50.5 -66.5t84 -56t92 -44t106 -40.5q29 -10 43 -17q25 -10 85 -31.5t89.5 -34t83 -37t83 -44t67.5 -51t56.5 -65.5t33 -79t14.5 -96q0 -205 -162 -323.5t-387 -118.5zM694 -352 q-41 0 -70.5 29.5t-29.5 70.5t29.5 70.5t70.5 29.5q39 0 70 -30.5t31 -69.5q0 -41 -30 -70.5t-71 -29.5z" glyph-name="uni1E62" horiz-adv-x="1273" unicode="Ṣ"/><glyph d="M483 -18q-203 0 -311.5 105.5t-116.5 231.5h129q12 -82 98.5 -152.5t201 -70.5t192.5 62.5t78 158.5q0 98 -78 146.5t-225 73.5q-160 27 -257.5 91t-97.5 201q0 143 114 227.5t267 84.5q180 0 281.5 -78t118.5 -227h-123q-18 98 -97 141t-155 45q-104 4 -181 -41 t-77 -133q0 -92 72.5 -133t207.5 -62q377 -59 377 -325q0 -145 -120 -245.5t-298 -100.5zM496 -354q-41 0 -71 29.5t-30 70.5t30 70.5t71 29.5t70.5 -29.5t29.5 -70.5t-29.5 -70.5t-70.5 -29.5z" glyph-name="uni1E63" horiz-adv-x="958" unicode="ṣ"/><glyph d="M1087 1413h-471v-1411h-137v1411h-471v125h1079v-125zM608 -154q39 0 70 -29.5t31 -70.5t-30 -70.5t-71 -29.5t-70.5 29.5t-29.5 70.5t29.5 70.5t70.5 29.5z" glyph-name="uni1E6C" horiz-adv-x="1052" unicode="Ṭ"/><glyph d="M508 -2q-295 0 -295 281l2 737h-172v114h172v406h143v-406h252v-116l-258 2v-717q0 -41 4 -65.5t17.5 -52t47.5 -41t87 -13.5h119v-129h-119zM408 -154q39 0 69.5 -29.5t30.5 -70.5t-29.5 -70.5t-70.5 -29.5t-71 29.5t-30 70.5t30 70.5t71 29.5z" glyph-name="uni1E6D" horiz-adv-x="657" unicode="ṭ"/><glyph d="M1008 1741l-215 307h141l188 -307h-114zM1999 1536l-486 -1536h-170l-329 1264l-336 -1264h-170l-488 1536h150l416 -1370l362 1370h144l344 -1372l413 1372h150z" glyph-name="Wgrave" horiz-adv-x="2142" unicode="Ẁ"/><glyph d="M666 1229l-215 307h141l188 -307h-114zM1589 1116l-336 -1116h-163l-256 942l-252 -942h-162l-338 1116h162l266 -938l250 938h155l248 -944l267 944h159z" glyph-name="wgrave" horiz-adv-x="1435" unicode="ẁ"/><glyph d="M1135 1741h-115l188 307h142zM1999 1536l-486 -1536h-170l-329 1264l-336 -1264h-170l-488 1536h150l416 -1370l362 1370h144l344 -1372l413 1372h150z" glyph-name="Wacute" horiz-adv-x="2142" unicode="Ẃ"/><glyph d="M811 1229h-115l189 307h141zM1589 1116l-336 -1116h-163l-256 942l-252 -942h-162l-338 1116h162l266 -938l250 938h155l248 -944l267 944h159z" glyph-name="wacute" horiz-adv-x="1435" unicode="ẃ"/><glyph d="M893 1731q-41 0 -70.5 29.5t-29.5 70.5t29.5 70.5t70.5 29.5t70.5 -29.5t29.5 -70.5t-29.5 -70.5t-70.5 -29.5zM1251 1731q-41 0 -70.5 29.5t-29.5 70.5t29.5 70.5t70.5 29.5t70 -29.5t29 -70.5t-29 -70.5t-70 -29.5zM1999 1536l-486 -1536h-170l-329 1264l-336 -1264 h-170l-488 1536h150l416 -1370l362 1370h144l344 -1372l413 1372h150z" glyph-name="Wdieresis" horiz-adv-x="2142" unicode="Ẅ"/><glyph d="M571 1219q-41 0 -70.5 29.5t-29.5 70.5t29.5 70.5t70.5 29.5t71 -29.5t30 -70.5t-30 -70.5t-71 -29.5zM930 1219q-41 0 -71 29.5t-30 70.5t30 70.5t71 29.5t69.5 -29.5t28.5 -70.5t-28.5 -70.5t-69.5 -29.5zM1589 1116l-336 -1116h-163l-256 942l-252 -942h-162 l-338 1116h162l266 -938l250 938h155l248 -944l267 944h159z" glyph-name="wdieresis" horiz-adv-x="1435" unicode="ẅ"/><glyph d="M1255 125v-125h-1159v70l932 1343h-909v123h1102v-70l-932 -1341h966zM670 -154q39 0 69.5 -29.5t30.5 -70.5t-29.5 -70.5t-70.5 -29.5t-71 29.5t-30 70.5t30 70.5t71 29.5z" glyph-name="uni1E92" horiz-adv-x="1353" unicode="Ẓ"/><glyph d="M86 90l678 819h-662v115h846v-84l-678 -825h699v-115h-883v90zM528 -354q-41 0 -70.5 29.5t-29.5 70.5t29.5 70.5t70.5 29.5t71 -29.5t30 -70.5t-30 -70.5t-71 -29.5z" glyph-name="uni1E93" horiz-adv-x="1054" unicode="ẓ"/><glyph d="M1137 401h-762l-158 -401h-151l616 1536h154l616 -1536h-152zM1096 526l-338 865l-336 -865h674zM741 -154q41 0 71 -29.5t30 -70.5t-30 -70.5t-71 -29.5t-70.5 29.5t-29.5 70.5t29.5 70.5t70.5 29.5z" glyph-name="uni1EA0" horiz-adv-x="1480" unicode="Ạ"/><glyph d="M436 -8q-162 0 -269.5 92t-107.5 233q0 334 465 365l293 18v43q0 135 -81 206t-222 71q-123 0 -200.5 -69.5t-90.5 -176.5h-139q16 154 129 261.5t307 107.5q201 0 315.5 -109.5t114.5 -296.5l2 -461q0 -90 18.5 -125.5t63.5 -33.5v-117q-31 0 -57 6q-139 29 -152 170 q-45 -78 -153.5 -131t-235.5 -53zM442 117q145 0 260 88t115 203v170l-293 -21q-188 -12 -261 -76.5t-73 -165.5q0 -90 77 -144t175 -54zM516 -154q41 0 70.5 -29.5t29.5 -70.5t-29.5 -70.5t-70.5 -29.5t-70.5 29.5t-29.5 70.5t29.5 70.5t70.5 29.5z" glyph-name="uni1EA1" horiz-adv-x="1097" unicode="ạ"/><glyph d="M238 1413v-582h704v-124h-704v-582h790v-125h-930v1536h930v-123h-790zM577.5 -154q40.5 0 70.5 -29.5t30 -70.5t-30 -70.5t-70.5 -29.5t-70.5 29.5t-30 70.5t30 70.5t70.5 29.5z" glyph-name="uni1EB8" horiz-adv-x="1107" unicode="Ẹ"/><glyph d="M1075 569q0 -37 -2 -57h-872q2 -186 115.5 -292.5t248.5 -108.5q141 -2 226.5 58t111.5 157h129q-6 -49 -33.5 -102.5t-78 -109t-139.5 -90t-201 -34.5q-233 2 -373.5 165.5t-140.5 405.5q0 248 138 410t371 162q229 0 364.5 -157t135.5 -407zM578 1008 q-162 0 -259.5 -103.5t-115.5 -275.5h741q-16 172 -111 275.5t-255 103.5zM573 -154q41 0 71 -29.5t30 -70.5t-30 -70.5t-71 -29.5t-70.5 29.5t-29.5 70.5t29.5 70.5t70.5 29.5z" glyph-name="uni1EB9" horiz-adv-x="1124" unicode="ẹ"/><glyph d="M244 1747q-10 106 43 176t143 70q115 0 184 -109q41 -68 109 -67q51 0 79.5 43t20.5 112h88q12 -106 -41 -174.5t-145 -68.5q-117 0 -184 108q-41 68 -107 68q-53 0 -80.5 -44t-19.5 -114h-90zM238 1413v-582h704v-124h-704v-582h790v-125h-930v1536h930v-123h-790z" glyph-name="uni1EBC" horiz-adv-x="1107" unicode="Ẽ"/><glyph d="M238 1245q-10 106 43 176t143 70q115 0 184 -109q41 -68 109 -67q51 0 79.5 43t20.5 112h88q12 -106 -41 -174.5t-145 -68.5q-117 0 -184 108q-41 68 -107 68q-53 0 -81 -44t-19 -114h-90zM1075 569q0 -37 -2 -57h-872q2 -186 115.5 -292.5t248.5 -108.5q141 -2 226.5 58 t111.5 157h129q-6 -49 -33.5 -102.5t-78 -109t-139.5 -90t-201 -34.5q-233 2 -373.5 165.5t-140.5 405.5q0 248 138 410t371 162q229 0 364.5 -157t135.5 -407zM578 1008q-162 0 -259.5 -103.5t-115.5 -275.5h741q-16 172 -111 275.5t-255 103.5z" glyph-name="uni1EBD" horiz-adv-x="1124" unicode="ẽ"/><glyph d="M164 1536h139v-1536h-139v1536zM233.5 -354q-40.5 0 -70.5 29.5t-30 70.5t30 70.5t70.5 29.5t70.5 -29.5t30 -70.5t-30 -70.5t-70.5 -29.5z" glyph-name="uni1ECA" horiz-adv-x="466" unicode="Ị"/><glyph d="M268 1219q-41 0 -70.5 29.5t-29.5 70.5t29.5 70.5t70.5 29.5t71 -29.5t30 -70.5t-30 -70.5t-71 -29.5zM201 1024h135v-1024h-135v1024zM278.5 -379q-40.5 0 -70.5 30t-30 70.5t30 70.5t70.5 30t70.5 -30t30 -70.5t-30 -70.5t-70.5 -30z" glyph-name="uni1ECB" horiz-adv-x="536" unicode="ị"/><glyph d="M858 -20q-324 0 -536.5 228t-212.5 560t213 560t536 228q322 0 536 -228t214 -560t-214 -560t-536 -228zM858 113q270 0 443.5 189.5t173.5 465.5q0 279 -173.5 468t-443.5 189t-444 -189t-174 -468q0 -276 174 -465.5t444 -189.5zM860 -354q-41 0 -70.5 29.5t-29.5 70.5 t29.5 70.5t70.5 29.5t71 -29.5t30 -70.5t-30 -70.5t-71 -29.5z" glyph-name="uni1ECC" horiz-adv-x="1716" unicode="Ọ"/><glyph d="M577.5 -20q-217.5 0 -354.5 153.5t-137 378.5t137 378.5t354.5 153.5t355.5 -153.5t138 -378.5t-138 -378.5t-355.5 -153.5zM577.5 100q161.5 0 261 119t99.5 293q0 176 -99.5 294t-261 118t-261 -118t-99.5 -294q0 -174 99.5 -293t261 -119zM580 -354q-41 0 -71 29.5 t-30 70.5t30 70.5t71 29.5q39 0 69.5 -29.5t30.5 -70.5t-29.5 -70.5t-70.5 -29.5z" glyph-name="uni1ECD" horiz-adv-x="1157" unicode="ọ"/><glyph d="M737.5 -20q-237.5 0 -402.5 153.5t-165 372.5v1030h139v-1010q0 -176 125 -299t303 -123q180 0 305 123t125 299v1010h138v-1030q0 -219 -165 -372.5t-402.5 -153.5zM739 -354q-41 0 -70.5 29.5t-29.5 70.5t29.5 70.5t70.5 29.5q39 0 70 -29.5t31 -70.5t-30 -70.5 t-71 -29.5z" glyph-name="uni1EE4" horiz-adv-x="1474" unicode="Ụ"/><glyph d="M590 1741l-215 307h141l189 -307h-115zM721 729v-729h-137v725l-537 811h156l448 -688l451 688h153z" glyph-name="Ygrave" horiz-adv-x="1302" unicode="Ỳ"/><glyph d="M496 1229l-215 307h141l188 -307h-114zM1069 1126l-666 -1638h-137l236 573h-43l-445 1065h148l391 -936l367 936h149z" glyph-name="ygrave" horiz-adv-x="1200" unicode="ỳ"/><glyph d="M584 725l-537 811h156l448 -688l451 688h153l-534 -807v-729h-137v725zM653 -154q39 0 70 -29.5t31 -70.5t-30 -70.5t-71 -29.5t-70.5 29.5t-29.5 70.5t29.5 70.5t70.5 29.5z" glyph-name="uni1EF4" horiz-adv-x="1302" unicode="Ỵ"/><glyph d="M319 1747q-10 106 43.5 176t143.5 70q115 0 184 -109q41 -68 109 -67q51 0 79.5 43t20.5 112h88q12 -106 -41 -174.5t-145 -68.5q-117 0 -185 108q-41 68 -106 68q-53 0 -81 -44t-19 -114h-91zM721 729v-729h-137v725l-537 811h156l448 -688l451 688h153z" glyph-name="uni1EF8" horiz-adv-x="1302" unicode="Ỹ"/><glyph d="M193 582h1024v-99h-1024v99z" glyph-name="endash" horiz-adv-x="1406" unicode="–"/><glyph d="M20 582h2048v-99h-2048v99z" glyph-name="emdash" horiz-adv-x="2086" unicode="—"/><glyph d="M135 1186q-41 0 -68.5 29.5t-27.5 70.5t29.5 103.5t60.5 105.5l31 41h43l-35 -154q68 -25 68 -96q0 -41 -29 -70.5t-72 -29.5z" glyph-name="quoteleft" horiz-adv-x="276" unicode="‘"/><glyph d="M106 1339q-68 25 -67 97q0 41 28.5 70.5t71.5 29.5q41 0 69 -29.5t28 -70.5t-30 -103.5t-61 -103.5l-30 -43h-43z" glyph-name="quoteright" horiz-adv-x="276" unicode="’"/><glyph d="M106 -2q-68 25 -67 96q0 41 28.5 71t71.5 30q41 0 69 -30t28 -71t-30 -103.5t-61 -105.5l-30 -41h-43z" glyph-name="quotesinglbase" horiz-adv-x="276" unicode="‚"/><glyph d="M135 1186q-41 0 -68.5 29.5t-27.5 70.5t29.5 103.5t60.5 105.5l31 41h43l-35 -154q68 -25 68 -96q0 -41 -29 -70.5t-72 -29.5zM408 1186q-41 0 -69 29.5t-28 70.5t31 103.5t59 105.5l31 41h43l-35 -154q68 -25 68 -96q0 -41 -28.5 -70.5t-71.5 -29.5z" glyph-name="quotedblleft" horiz-adv-x="548" unicode="“"/><glyph d="M106 1339q-68 25 -67 97q0 41 28.5 70.5t71.5 29.5q41 0 69 -29.5t28 -70.5t-30 -103.5t-61 -103.5l-30 -43h-43zM379 1339q-68 25 -68 97q0 41 29 70.5t72 29.5q41 0 68.5 -29.5t27.5 -70.5t-31 -103.5t-59 -103.5l-31 -43h-43z" glyph-name="quotedblright" horiz-adv-x="548" unicode="”"/><glyph d="M106 0q-68 25 -67 96q0 41 28.5 71t71.5 30q41 0 69 -30t28 -71t-30 -103.5t-61 -103.5l-30 -43h-43zM379 0q-68 25 -68 96q0 41 29 71t72 30q41 0 68.5 -30t27.5 -71t-31 -103.5t-59 -103.5l-31 -43h-43z" glyph-name="quotedblbase" horiz-adv-x="548" unicode="„"/><glyph d="M1087 862h-364v-1210h-94v1210h-355v94h355v416h94v-416h364v-94z" glyph-name="dagger" horiz-adv-x="1361" unicode="†"/><glyph d="M723 862v-692h364v-94h-364v-424h-94v424h-355v94h355v692h-355v94h355v416h94v-416h364v-94h-364z" glyph-name="daggerdbl" horiz-adv-x="1361" unicode="‡"/><glyph d="M465 432q-94 0 -163 66.5t-69 163.5q0 94 69 162.5t163 68.5q92 0 160.5 -68.5t68.5 -162.5q0 -96 -67.5 -163t-161.5 -67z" glyph-name="bullet" horiz-adv-x="927" unicode="•"/><glyph d="M236 -14q-39 0 -69 29.5t-30 68.5q0 41 29 70.5t69.5 29.5t69.5 -29.5t29 -70.5t-28.5 -69.5t-69.5 -28.5zM713 -14q-41 0 -70 29.5t-29 68.5q0 41 29 70.5t70 29.5t70.5 -29.5t29.5 -70.5t-29.5 -69.5t-70.5 -28.5zM1190 -14q-39 0 -67.5 28.5t-28.5 69.5t28.5 70.5 t67.5 29.5q41 0 70.5 -29.5t29.5 -70.5t-29.5 -69.5t-70.5 -28.5z" glyph-name="ellipsis" horiz-adv-x="1415" unicode="…"/><glyph d="M391.5 938q-110.5 0 -188.5 91t-78 218t78 218t188.5 91t188 -91t77.5 -218t-77.5 -218t-188 -91zM1198 1536h141l-1056 -1536h-142zM391.5 1044q65.5 0 112.5 59.5t47 143.5t-47 143.5t-112.5 59.5t-112 -59.5t-46.5 -143.5t46.5 -143.5t112 -59.5zM1091.5 -20 q-110.5 0 -188.5 91t-78 220q0 127 78 218t188.5 91t188.5 -91t78 -218q0 -129 -78 -220t-188.5 -91zM1726.5 -20q-110.5 0 -188.5 91t-78 220q0 127 78 218t188.5 91t188.5 -91t78 -218q0 -129 -78 -220t-188.5 -91zM1091.5 88q65.5 0 111.5 58.5t46 144.5q0 84 -46 142.5 t-111.5 58.5t-112.5 -58.5t-47 -142.5q0 -86 47 -144.5t112.5 -58.5zM1726.5 88q65.5 0 111.5 58.5t46 144.5q0 84 -46 142.5t-111.5 58.5t-112.5 -58.5t-47 -142.5q0 -86 47 -144.5t112.5 -58.5z" glyph-name="perthousand" horiz-adv-x="2101" unicode="‰"/><glyph d="M113 571l311 377h119l-312 -377l312 -376h-119z" glyph-name="guilsinglleft" horiz-adv-x="694" unicode="‹"/><glyph d="M463 571l-311 377h118l312 -377l-312 -376h-118z" glyph-name="guilsinglright" horiz-adv-x="694" unicode="›"/><glyph d="M1042 1536h142l-1071 -1536h-144z" glyph-name="fraction" horiz-adv-x="1183" unicode="⁄"/><glyph d="M66 909h141q18 256 158.5 414t377.5 158q207 0 333 -113t151 -311h-109q-23 160 -119 246t-256 86q-188 0 -298.5 -129.5t-125.5 -350.5h517l-15 -78h-504v-200h465l-14 -78h-449q14 -223 123 -348t303 -125q168 0 268.5 94t125.5 266h106q-27 -215 -157 -335.5 t-343 -120.5q-238 0 -380 155.5t-158 413.5h-141v78h139v200h-139v78z" glyph-name="Euro" horiz-adv-x="1318" unicode="€"/><glyph d="M664 -10q-190 0 -292 116.5t-112 286.5v25q-25 -16 -75 -55t-72 -56l-47 88q23 18 63.5 48t72 54.5t56.5 49.5v612q0 145 33 252t88 164t115.5 82.5t130.5 25.5q147 0 224 -102t77 -254q0 -201 -135.5 -400.5t-393.5 -422.5l2 -55q2 -168 87 -256.5t204 -88.5 q115 0 209 72t148 170l73 -63q-165 -293 -456 -293zM397 643q201 197 309.5 356.5t108.5 317.5q0 260 -194 260q-86 0 -155 -96.5t-69 -300.5v-537z" glyph-name="afii61289" horiz-adv-x="1241" unicode="ℓ"/><glyph d="M41 1536h479v-70h-201v-651h-77v651h-201v70zM1364 1530v-717h-64v623l-266 -623h-43l-260 623v-623h-67v717h88l262 -635l264 635h86z" glyph-name="trademark" horiz-adv-x="1460" unicode="™"/><glyph d="M938 -18q-362 0 -618.5 230t-256.5 554q0 328 256 559t619 231q365 0 621 -231t256 -559v-21h-1418q-12 0 -12 -8v-430q0 -23 18 -49q227 -233 537 -233q166 0 313.5 69.5t251.5 192.5h125q-119 -141 -301 -223t-391 -82zM1485 788q8 0 8 15v430q0 33 -20 51 q-229 225 -532.5 225t-534.5 -231q-20 -25 -21 -53v-422q0 -14 12 -15h1088z" glyph-name="estimated" horiz-adv-x="1880" unicode="℮"/><glyph d="M1546 598h-1100l62 -260l-498 385l498 385l-62 -262h1100v-248z" glyph-name="arrowleft" horiz-adv-x="1720" unicode="←"/><glyph d="M375 1100l-262 -62l385 498l385 -498l-260 62v-1100h-248v1100z" glyph-name="arrowup" horiz-adv-x="1054" unicode="↑"/><glyph d="M1274 846l-62 262l498 -385l-498 -385l62 260h-1100v248h1100z" glyph-name="arrowright" horiz-adv-x="1720" unicode="→"/><glyph d="M623 1536v-1100l260 62l-385 -498l-385 498l262 -62v1100h248z" glyph-name="arrowdown" horiz-adv-x="995" unicode="↓"/><glyph d="M-133 682l498 385l-64 -260l1149 -2l-61 260l497 -385l-495 -385l61 262l-1151 2l59 -264z" glyph-name="arrowboth" horiz-adv-x="1753" unicode="↔"/><glyph d="M113 350l262 -61v798l-262 -61l385 496l385 -498l-260 61v-794l260 61l-385 -497z" glyph-name="arrowupdn" horiz-adv-x="995" unicode="↕"/><glyph d="M1055 137l-779 776l-141 -227l-80 625l625 -80l-229 -141l778 -779z" glyph-name="uni2196" horiz-adv-x="1095" unicode="↖"/><glyph d="M645 1090l-229 141l624 80l-79 -625l-142 227l-778 -776l-174 174z" glyph-name="uni2197" horiz-adv-x="1095" unicode="↗"/><glyph d="M43 1399l778 -776l142 227l79 -625l-624 80l229 141l-778 779z" glyph-name="uni2198" horiz-adv-x="1097" unicode="↘"/><glyph d="M451 446l229 -141l-625 -80l80 625l141 -227l779 776l174 -174z" glyph-name="uni2199" horiz-adv-x="1097" unicode="↙"/><glyph d="M358 1442q256 29 432.5 -195.5t172.5 -574.5q-2 -276 -138.5 -465t-335.5 -189q-231 0 -326 173.5t-1 422.5q88 233 274.5 319.5t378.5 -9.5q-49 213 -174 329.5t-283 87.5v101zM842 672q0 76 -8 133q-168 113 -324 50.5t-236 -273.5q-72 -195 -9 -332t224 -137 q145 0 248 163t105 396z" glyph-name="partialdiff" horiz-adv-x="1073" unicode="∂"/><glyph d="M1300 1006q158 -174 158 -410q0 -254 -179 -433t-433 -179q-233 0 -410 155l-88 -86l-47 47l88 86q-156 172 -156 410q0 254 179.5 433t433.5 179q231 0 407 -155l88 88l48 -47zM344 596q0 -186 123 -330l709 707q-141 125 -330 125q-209 0 -355.5 -146.5t-146.5 -355.5z M846 96q209 0 354.5 145.5t145.5 354.5q0 186 -123 330l-709 -707q139 -123 332 -123z" glyph-name="emptyset" horiz-adv-x="1689" unicode="∅"/><glyph d="M1401 1339h-592v-1585h-107v1585h-591v101h1290v-101z" glyph-name="product" horiz-adv-x="1509" unicode="∏"/><glyph d="M193 -172l770 770l-770 770v72h1161v-107h-975l729 -735l-729 -735h975v-107h-1161v72z" glyph-name="summation" horiz-adv-x="1546" unicode="∑"/><glyph d="M131 637h1229v-96h-1229v96z" glyph-name="minus" horiz-adv-x="1488" unicode="−"/><glyph d="M283 575h-131v95h198l217 -660l742 1546l86 -36l-805 -1680h-68z" glyph-name="radical" horiz-adv-x="1484" unicode="√"/><glyph d="M403 309q-113 0 -190.5 82t-81.5 205q4 123 82 205t190 82q178 0 375 -215q190 215 375 215q115 0 191.5 -80t80.5 -207q-4 -127 -80.5 -207t-191.5 -80q-182 0 -375 215q-197 -215 -375 -215zM403 403q141 0 312 193q-168 193 -312 192q-72 0 -124 -55t-54 -137 q4 -80 55 -136.5t123 -56.5zM1153 403q72 0 124 55.5t54 137.5q-2 82 -54 137t-124 55q-145 0 -313 -192q170 -193 313 -193z" glyph-name="infinity" horiz-adv-x="1554" unicode="∞"/><glyph d="M350 -387q-72 0 -118 50t-37 130h77q0 -100 78 -100q29 0 51.5 21.5t22.5 58.5v1585q0 72 46 116t112 44q70 0 114.5 -50.5t36.5 -130.5h-78q0 100 -75 101q-31 0 -53.5 -21.5t-22.5 -58.5v-1585q0 -72 -45.5 -116t-108.5 -44z" glyph-name="integral" horiz-adv-x="927" unicode="∫"/><glyph d="M811 657q-57 0 -110.5 27t-79 52.5t-68.5 72.5q-94 113 -182 113q-86 0 -140.5 -69t-50.5 -169h-82q-4 141 75 229t200 88q76 0 132 -37.5t118 -113.5q45 -55 85 -84t97 -29q86 0 140 66.5t50 169.5h82q6 -135 -70.5 -225.5t-195.5 -90.5zM811 268q-57 0 -110.5 27 t-79 52.5t-68.5 72.5q-94 113 -182 112q-86 0 -140.5 -67.5t-50.5 -169.5h-82q-4 141 75 230t200 89q76 0 131 -37.5t119 -113.5q88 -115 182 -115q86 0 140 66.5t50 171.5h82q6 -135 -70.5 -226.5t-195.5 -91.5z" glyph-name="approxequal" horiz-adv-x="1175" unicode="≈"/><glyph d="M936 688l-248 -289h672v-94h-752l-254 -299h-96l256 299h-383v94h463l248 289h-711v94h791l213 248h96l-215 -248h344v-94h-424z" glyph-name="notequal" horiz-adv-x="1488" unicode="≠"/><glyph d="M1384 1268l-1017 -486l1017 -487v-119l-1130 545v125l1130 540v-118zM254 88h1130v-88h-1130v88z" glyph-name="lessequal" horiz-adv-x="1636" unicode="≤"/><glyph d="M1384 846v-125l-1130 -545v119l1016 487l-1016 486v118zM254 88h1130v-88h-1130v88z" glyph-name="greaterequal" horiz-adv-x="1636" unicode="≥"/><glyph d="M193 723l618 618l616 -616l-616 -619zM1272 725l-461 463l-463 -465l463 -461z" glyph-name="lozenge" horiz-adv-x="1619" unicode="◊"/><glyph glyph-name="glyph432"/><glyph d="M375 1100l-262 -62l385 498l385 -498l-260 62v-1100h-248v1100z" glyph-name="glyph433" horiz-adv-x="995"/><glyph d="M244 1219q-41 0 -71 29.5t-30 70.5t30 70.5t71 29.5t70.5 -29.5t29.5 -70.5t-29.5 -70.5t-70.5 -29.5zM176 1024h135v-1024h-135v1024z" glyph-name="i.locl" horiz-adv-x="552"/><glyph d="M1137 401h-762l-158 -401h-151l616 1536h154l616 -1536h-152zM1096 526l-338 865l-336 -865h674z" glyph-name="glyph435" horiz-adv-x="1517"/><glyph d="M803 1741h-115l189 307h141zM1137 401h-762l-158 -401h-151l616 1536h154l616 -1536h-152zM1096 526l-338 865l-336 -865h674z" glyph-name="glyph436" horiz-adv-x="1517"/><glyph d="M739 1677q-143 0 -236 84t-93 221h88q0 -90 69.5 -153.5t171.5 -63.5q104 0 175 63.5t71 153.5h86q0 -137 -93.5 -221t-238.5 -84zM1137 401h-762l-158 -401h-151l616 1536h154l616 -1536h-152zM1096 526l-338 865l-336 -865h674z" glyph-name="glyph437" horiz-adv-x="1517"/><glyph d="M668 1698l-205 350h110l168 -272l166 272h111l-205 -350h-145zM1137 401h-762l-158 -401h-151l616 1536h154l616 -1536h-152zM1096 526l-338 865l-336 -865h674z" glyph-name="glyph438" horiz-adv-x="1517"/><glyph d="M578 1698h-115l205 350h145l205 -350h-115l-162 280zM1137 401h-762l-158 -401h-151l616 1536h154l616 -1536h-152zM1096 526l-338 865l-336 -865h674z" glyph-name="glyph439" horiz-adv-x="1517"/><glyph d="M563 1731q-41 0 -70.5 29.5t-29.5 70.5t29.5 70.5t70.5 29.5t71 -29.5t30 -70.5t-30 -70.5t-71 -29.5zM922 1731q-41 0 -71 29.5t-30 70.5t30 70.5t71 29.5t69.5 -29.5t28.5 -70.5t-28.5 -70.5t-69.5 -29.5zM1137 401h-762l-158 -401h-151l616 1536h154l616 -1536h-152z M1096 526l-338 865l-336 -865h674z" glyph-name="glyph440" horiz-adv-x="1517"/><glyph d="M1137 401h-762l-158 -401h-151l616 1536h154l616 -1536h-152zM1096 526l-338 865l-336 -865h674zM741 -154q41 0 71 -29.5t30 -70.5t-30 -70.5t-71 -29.5t-70.5 29.5t-29.5 70.5t29.5 70.5t70.5 29.5z" glyph-name="glyph441" horiz-adv-x="1517"/><glyph d="M678 1741l-215 307h141l189 -307h-115zM1137 401h-762l-158 -401h-151l616 1536h154l616 -1536h-152zM1096 526l-338 865l-336 -865h674z" glyph-name="glyph442" horiz-adv-x="1517"/><glyph d="M1059 1755h-635v94h635v-94zM1137 401h-762l-158 -401h-151l616 1536h154l616 -1536h-152zM1096 526l-338 865l-336 -865h674z" glyph-name="glyph443" horiz-adv-x="1517"/><glyph d="M1518 -365l47 -67q-106 -104 -265 -100q-100 4 -158.5 59t-58.5 149q0 172 236 324h-19l-163 401h-762l-158 -401h-151l616 1536h154l616 -1536h-18q-98 -43 -176 -128t-78 -183q0 -63 36.5 -102.5t104.5 -39.5q119 0 197 88zM422 526h674l-338 865z" glyph-name="glyph444" horiz-adv-x="1480"/><glyph d="M848 1503l604 -1503h-152l-163 401h-762l-158 -401h-151l600 1497h-19q-102 55 -102 172q0 82 58.5 139.5t139.5 57.5q80 0 137.5 -57.5t57.5 -139.5q0 -107 -90 -166zM614 1669q0 -55 38 -92t91.5 -37t90 37t36.5 92q0 53 -36.5 91t-90 38t-91.5 -38t-38 -91zM422 526 h674l-338 865z" glyph-name="glyph445" horiz-adv-x="1517"/><glyph d="M408 1747q-10 106 43 176t143 70q115 0 184 -109q41 -68 109 -67q51 0 79.5 43t20.5 112h88q12 -106 -41 -174.5t-145 -68.5q-117 0 -184 108q-41 68 -107 68q-53 0 -81 -44t-19 -114h-90zM1137 401h-762l-158 -401h-151l616 1536h154l616 -1536h-152zM1096 526l-338 865 l-336 -865h674z" glyph-name="glyph446" horiz-adv-x="1517"/><glyph d="M682 1536h1012v-121h-690v-592h604v-110h-604v-592h690v-121h-826v344h-516l-131 -344h-155zM868 455v960h-88l-381 -960h469z" glyph-name="glyph447" horiz-adv-x="1810"/><glyph d="M741 809q139 -29 229.5 -141.5t90.5 -264.5q0 -174 -120 -288.5t-294 -114.5h-575v1536h491q176 0 297 -113.5t121 -285.5q0 -133 -65.5 -222.5t-174.5 -105.5zM842 1120q0 121 -85 207t-206 86h-342v-565h342q123 0 207 76.5t84 195.5zM631 125q121 0 206 86t85 207 q0 123 -86 218t-205 95h-422v-606h422z" glyph-name="glyph448" horiz-adv-x="1128"/><glyph d="M844 809q139 -29 229 -141.5t90 -264.5q0 -174 -119.5 -288.5t-293.5 -114.5h-678v1536h594q176 0 296.5 -113.5t120.5 -285.5q0 -133 -65 -222.5t-174 -105.5zM944 1120q0 121 -85 207t-206 86h-444v-565h444q123 0 207 76.5t84 195.5zM733 125q121 0 206 86t85 207 q0 123 -86 218t-205 95h-524v-606h524zM627 -154q41 0 70.5 -29.5t29.5 -70.5t-29.5 -70.5t-70.5 -29.5t-71 29.5t-30 70.5t30 70.5t71 29.5z" glyph-name="glyph449" horiz-adv-x="1230"/><glyph d="M797 -20q-322 -4 -525.5 225t-203.5 563t203.5 561t525.5 227q152 0 278.5 -49t202.5 -123.5t120 -152.5t54 -150h-152q-14 55 -46.5 110.5t-91 111t-154 89t-211.5 33.5q-268 0 -433 -188t-165 -469t164.5 -468t433.5 -187q201 0 341 101t162 214h152q-8 -63 -55 -137 t-126 -144.5t-204 -117.5t-270 -49z" glyph-name="glyph450" horiz-adv-x="1560"/><glyph d="M995 2048h142l-215 -307h-115zM797 -20q-322 -4 -525.5 225t-203.5 563t203.5 561t525.5 227q152 0 278.5 -49t202.5 -123.5t120 -152.5t54 -150h-152q-14 55 -46.5 110.5t-91 111t-154 89t-211.5 33.5q-268 0 -433 -188t-165 -469t164.5 -468t433.5 -187q201 0 341 101 t162 214h152q-8 -63 -55 -137t-126 -144.5t-204 -117.5t-270 -49z" glyph-name="glyph451" horiz-adv-x="1560"/><glyph d="M520 2048h111l168 -272l166 272h110l-205 -350h-145zM797 -20q-322 -4 -525.5 225t-203.5 563t203.5 561t525.5 227q152 0 278.5 -49t202.5 -123.5t120 -152.5t54 -150h-152q-14 55 -46.5 110.5t-91 111t-154 89t-211.5 33.5q-268 0 -433 -188t-165 -469t164.5 -468 t433.5 -187q201 0 341 101t162 214h152q-8 -63 -55 -137t-126 -144.5t-204 -117.5t-270 -49z" glyph-name="glyph452" horiz-adv-x="1560"/><glyph d="M797 113q201 0 341 101t162 214h152q-6 -49 -34.5 -104.5t-82 -113.5t-123 -106.5t-168 -82t-208.5 -39.5l53 -2l-58 -123q109 23 186 -31.5t77 -153.5q0 -86 -59.5 -145t-145.5 -59q-66 0 -133.5 34.5t-100.5 85.5l66 33q27 -33 75 -56.5t93 -23.5q55 0 92 38t37 93 q0 78 -63.5 109t-155.5 -2l-64 45l76 156h-14q-322 -4 -525.5 225t-203.5 563t203.5 561t525.5 227q152 0 278.5 -49t202.5 -123.5t120 -152.5t54 -150h-152q-14 55 -46.5 110.5t-91 111t-154 89t-211.5 33.5q-268 0 -433 -188t-165 -469t165 -468t433 -187z" glyph-name="glyph453" horiz-adv-x="1560"/><glyph d="M799 1731q-41 0 -71 29.5t-30 70.5t30 70.5t71 29.5t70.5 -29.5t29.5 -70.5t-29.5 -70.5t-70.5 -29.5zM797 -20q-322 -4 -525.5 225t-203.5 563t203.5 561t525.5 227q152 0 278.5 -49t202.5 -123.5t120 -152.5t54 -150h-152q-14 55 -46.5 110.5t-91 111t-154 89 t-211.5 33.5q-268 0 -433 -188t-165 -469t164.5 -468t433.5 -187q201 0 341 101t162 214h152q-8 -63 -55 -137t-126 -144.5t-204 -117.5t-270 -49z" glyph-name="glyph454" horiz-adv-x="1560"/><glyph d="M143 1536h408q164 0 300 -45t242.5 -136t166 -246t59.5 -357q0 -344 -220 -548t-548 -204h-408v1536zM549 125q276 0 453.5 163t177.5 464q0 342 -173 501.5t-458 159.5h-268v-1288h268z" glyph-name="glyph455" horiz-adv-x="1427"/><glyph d="M711 1536q338 0 553 -194.5t215 -573.5t-215 -573.5t-553 -194.5h-408v719h-160v100h160v717h408zM709 125q281 0 455.5 163t174.5 480q0 315 -176 480t-454 165h-269v-594h281v-100h-281v-594h269z" glyph-name="glyph456" horiz-adv-x="1587"/><glyph d="M293 2048h110l168 -272l166 272h111l-205 -350h-145zM143 1536h449q164 0 300 -45t242.5 -136t166 -246t59.5 -357q0 -344 -220 -548t-548 -204h-449v1536zM590 125q276 0 453.5 163t177.5 464q0 342 -173.5 501.5t-457.5 159.5h-309v-1288h309z" glyph-name="glyph457" horiz-adv-x="1468"/><glyph d="M731 1536q164 0 300 -45t242.5 -136t166 -246t59.5 -357q0 -344 -220 -548t-548 -204h-448v719h-140v100h140v717h448zM729 125q276 0 453.5 163t177.5 464q0 342 -173 501.5t-458 159.5h-309v-594h287v-100h-287v-594h309z" glyph-name="glyph458" horiz-adv-x="1607"/><glyph d="M238 1413v-582h643v-124h-643v-582h729v-125h-869v1536h869v-123h-729z" glyph-name="glyph459" horiz-adv-x="1083"/><glyph d="M639 1741h-115l189 307h141zM238 1413v-582h704v-124h-704v-582h790v-125h-930v1536h930v-123h-790z" glyph-name="glyph460" horiz-adv-x="1144"/><glyph d="M504 1698l-205 350h111l168 -272l165 272h111l-205 -350h-145zM238 1413v-582h704v-124h-704v-582h790v-125h-930v1536h930v-123h-790z" glyph-name="glyph461" horiz-adv-x="1144"/><glyph d="M1028 1413h-790v-582h704v-124h-704v-582h790v-125h-414l-65 -143q109 23 185.5 -31.5t76.5 -153.5q0 -86 -59.5 -145t-145.5 -59q-66 0 -133 34.5t-100 85.5l65 33q27 -33 75 -56.5t93 -23.5q55 0 92 38t37 93q0 78 -63.5 109t-155.5 -2l-63 45l86 176h-441v1536h930 v-123z" glyph-name="glyph462" horiz-adv-x="1144"/><glyph d="M414 1698h-115l205 350h145l205 -350h-115l-161 280zM238 1413v-582h704v-124h-704v-582h790v-125h-930v1536h930v-123h-790z" glyph-name="glyph463" horiz-adv-x="1144"/><glyph d="M399 1731q-41 0 -70.5 29.5t-29.5 70.5t29.5 70.5t70.5 29.5t71 -29.5t30 -70.5t-30 -70.5t-71 -29.5zM758 1731q-41 0 -71 29.5t-30 70.5t30 70.5t71 29.5t69.5 -29.5t28.5 -70.5t-28.5 -70.5t-69.5 -29.5zM238 1413v-582h704v-124h-704v-582h790v-125h-930v1536h930 v-123h-790z" glyph-name="glyph464" horiz-adv-x="1144"/><glyph d="M577.5 1731q-40.5 0 -70.5 29.5t-30 70.5t30 70.5t70.5 29.5t70.5 -29.5t30 -70.5t-30 -70.5t-70.5 -29.5zM238 1413v-582h704v-124h-704v-582h790v-125h-930v1536h930v-123h-790z" glyph-name="glyph465" horiz-adv-x="1144"/><glyph d="M238 1413v-582h704v-124h-704v-582h790v-125h-930v1536h930v-123h-790zM577.5 -154q40.5 0 70.5 -29.5t30 -70.5t-30 -70.5t-70.5 -29.5t-70.5 29.5t-30 70.5t30 70.5t70.5 29.5z" glyph-name="glyph466" horiz-adv-x="1144"/><glyph d="M514 1741l-215 307h141l189 -307h-115zM238 1413v-582h704v-124h-704v-582h790v-125h-930v1536h930v-123h-790z" glyph-name="glyph467" horiz-adv-x="1144"/><glyph d="M895 1755h-635v94h635v-94zM238 1413v-582h704v-124h-704v-582h790v-125h-930v1536h930v-123h-790z" glyph-name="glyph468" horiz-adv-x="1144"/><glyph d="M1073 -365l47 -67q-106 -104 -264 -100q-100 4 -158.5 59t-58.5 149q0 172 235 324h-776v1536h930v-123h-790v-582h704v-124h-704v-582h790v-125h-37q-98 -43 -177 -128t-79 -183q0 -63 37 -102.5t105 -39.5q118 0 196 88z" glyph-name="glyph469" horiz-adv-x="1236"/><glyph d="M244 1747q-10 106 43 176t143 70q115 0 184 -109q41 -68 109 -67q51 0 79.5 43t20.5 112h88q12 -106 -41 -174.5t-145 -68.5q-117 0 -184 108q-41 68 -107 68q-53 0 -80.5 -44t-19.5 -114h-90zM238 1413v-582h704v-124h-704v-582h790v-125h-930v1536h930v-123h-790z" glyph-name="glyph470" horiz-adv-x="1144"/><glyph d="M242 1413v-582h643v-124h-643v-707h-140v1536h869v-123h-729z" glyph-name="glyph471" horiz-adv-x="1075"/><glyph d="M756 1425q-264 0 -422 -183t-158 -478q0 -289 164 -472t410 -183q260 0 392 147t142 391h-438v125h569q16 -387 -159 -584.5t-502 -197.5q-221 0 -386 113.5t-243 286.5t-78 374q0 348 195.5 570t507.5 222q252 0 422.5 -125.5t207.5 -347.5h-131q-49 170 -187 256 t-306 86z" glyph-name="glyph472" horiz-adv-x="1529"/><glyph d="M840 1677q-143 0 -236.5 84t-93.5 221h88q0 -90 69.5 -153.5t172.5 -63.5q104 0 174.5 63.5t70.5 153.5h86q0 -137 -93 -221t-238 -84zM1415 772v-119v-653h-94l-35 262q-84 -139 -207 -205.5t-325 -66.5q-217 0 -382 113.5t-245 286.5t-80 374q0 348 195.5 570 t507.5 222q252 0 422.5 -125.5t207.5 -347.5h-131q-49 170 -187 256t-306 86q-264 0 -422 -183t-158 -478q0 -287 166 -466t408 -179q274 0 404 142t130 386h-438v125h569z" glyph-name="glyph473" horiz-adv-x="1527"/><glyph d="M788 1698l-204 350h110l168 -272l166 272h111l-205 -350h-146zM1415 772v-119v-653h-94l-35 262q-84 -139 -207 -205.5t-325 -66.5q-217 0 -382 113.5t-245 286.5t-80 374q0 348 195.5 570t507.5 222q252 0 422.5 -125.5t207.5 -347.5h-131q-49 170 -187 256t-306 86 q-264 0 -422 -183t-158 -478q0 -287 166 -466t408 -179q274 0 404 142t130 386h-438v125h569z" glyph-name="glyph474" horiz-adv-x="1527"/><glyph d="M1415 772v-119v-653h-94l-35 262q-84 -139 -207 -205.5t-325 -66.5q-217 0 -382 113.5t-245 286.5t-80 374q0 348 195.5 570t507.5 222q252 0 422.5 -125.5t207.5 -347.5h-131q-49 170 -187 256t-306 86q-264 0 -422 -183t-158 -478q0 -287 166 -466t408 -179 q274 0 404 142t130 386h-438v125h569zM825 -272q-68 25 -67 96q0 41 28.5 70.5t71.5 29.5q41 0 68.5 -29.5t27.5 -70.5t-30.5 -103.5t-59.5 -105.5l-30 -41h-43z" glyph-name="glyph475" horiz-adv-x="1527"/><glyph d="M862 1731q-41 0 -70.5 29.5t-29.5 70.5t29.5 70.5t70.5 29.5t71 -29.5t30 -70.5t-30 -70.5t-71 -29.5zM1415 772v-119v-653h-94l-35 262q-84 -139 -207 -205.5t-325 -66.5q-217 0 -382 113.5t-245 286.5t-80 374q0 348 195.5 570t507.5 222q252 0 422.5 -125.5 t207.5 -347.5h-131q-49 170 -187 256t-306 86q-264 0 -422 -183t-158 -478q0 -287 166 -466t408 -179q274 0 404 142t130 386h-438v125h569z" glyph-name="glyph476" horiz-adv-x="1527"/><glyph d="M1319 1536v-1536h-137v707h-879v-707h-139v1536h139v-705h879v705h137z" glyph-name="glyph477" horiz-adv-x="1482"/><glyph d="M1612 1163h-146v-1163h-137v707h-878v-707h-140v1163h-147v68h147v305h140v-305h878v305h137v-305h146v-68zM1329 1163h-878v-332h878v332z" glyph-name="glyph478" horiz-adv-x="1775"/><glyph d="M1319 1536v-1536h-137v707h-879v-707h-139v1536h139v-705h879v705h137zM750 -154q41 0 70.5 -29.5t29.5 -70.5t-29.5 -70.5t-70.5 -29.5t-71 29.5t-30 70.5t30 70.5t71 29.5z" glyph-name="glyph479" horiz-adv-x="1482"/><glyph d="M164 1536h139v-1536h-139v1536z" glyph-name="glyph480" horiz-adv-x="466"/><glyph d="M301 1536h139v-1536h-139v1536zM958 -20q-90 0 -153 18v143q68 -23 153 -22q80 0 138.5 57t58.5 139v1221h137v-1221q0 -139 -97.5 -237t-236.5 -98z" glyph-name="glyph481" horiz-adv-x="1460"/><glyph d="M369 2048h141l-215 -307h-115zM164 1536h139v-1536h-139v1536z" glyph-name="glyph482" horiz-adv-x="466"/><glyph d="M-47 2048h113l167 -272l166 272h111l-205 -350h-145zM164 1536h139v-1536h-139v1536z" glyph-name="glyph483" horiz-adv-x="466"/><glyph d="M160 2048h145l205 -350h-115l-162 280l-163 -280h-117zM164 1536h139v-1536h-139v1536z" glyph-name="glyph484" horiz-adv-x="466"/><glyph d="M53 1731q-41 0 -71.5 29.5t-30.5 70.5t30.5 70.5t71.5 29.5t71 -29.5t30 -70.5t-30 -70.5t-71 -29.5zM412 1731q-41 0 -71 29.5t-30 70.5t30 70.5t71 29.5t69.5 -29.5t28.5 -70.5t-28.5 -70.5t-69.5 -29.5zM164 1536h139v-1536h-139v1536z" glyph-name="glyph485" horiz-adv-x="466"/><glyph d="M233.5 1731q-40.5 0 -70.5 29.5t-30 70.5t30 70.5t70.5 29.5t70.5 -29.5t30 -70.5t-30 -70.5t-70.5 -29.5zM164 1536h139v-1536h-139v1536z" glyph-name="glyph486" horiz-adv-x="466"/><glyph d="M164 1536h139v-1536h-139v1536zM233.5 -354q-40.5 0 -70.5 29.5t-30 70.5t30 70.5t70.5 29.5t70.5 -29.5t30 -70.5t-30 -70.5t-70.5 -29.5z" glyph-name="glyph487" horiz-adv-x="466"/><glyph d="M-49 2048h143l189 -307h-115zM164 1536h139v-1536h-139v1536z" glyph-name="glyph488" horiz-adv-x="466"/><glyph d="M-86 1849h637v-94h-637v94zM164 1536h139v-1536h-139v1536z" glyph-name="glyph489" horiz-adv-x="466"/><glyph d="M420 -432q-106 -104 -264 -100q-100 4 -159.5 59t-59.5 149q0 170 237 324h-10v1536h139v-1536h-12q-98 -43 -177 -128t-79 -183q0 -63 37 -102.5t104 -39.5q119 0 197 88z" glyph-name="glyph490" horiz-adv-x="466"/><glyph d="M379 1729q-117 0 -184 108q-41 68 -107 68q-53 0 -82 -44t-20 -114h-90q-10 106 44 176t144 70q115 0 184 -109q41 -68 109 -67q51 0 79.5 43t20.5 112h88q12 -106 -41 -174.5t-145 -68.5zM164 1536h139v-1536h-139v1536z" glyph-name="glyph491" horiz-adv-x="466"/><glyph d="M242 -20q-90 0 -154 18v143q68 -23 154 -22q80 0 138 57t58 139v1221h137v-1221q0 -139 -97 -237t-236 -98z" glyph-name="glyph492" horiz-adv-x="745"/><glyph d="M946 0l-684 717v-717h-139v1536h139v-743l610 741h181l-650 -774l719 -760h-176z" glyph-name="glyph493" horiz-adv-x="1175"/><glyph d="M1028 0l-766 717v-717h-139v1536h139v-743l692 741h181l-732 -774l801 -760h-176zM567 -348q-68 25 -67 96q0 41 28.5 70.5t71.5 29.5q41 0 68.5 -29.5t27.5 -70.5t-30.5 -103.5t-59.5 -103.5l-31 -43h-43z" glyph-name="glyph494" horiz-adv-x="1257"/><glyph d="M102 1536h140v-1411h579v-125h-719v1536z" glyph-name="glyph495" horiz-adv-x="919"/><glyph d="M307 2048h142l-216 -307h-114zM102 1536h140v-1411h579v-125h-719v1536z" glyph-name="glyph496" horiz-adv-x="919"/><glyph d="M102 1536h140v-1411h579v-125h-719v1536zM707 1339q-68 25 -68 97q0 41 28.5 70.5t71.5 29.5q41 0 69 -29.5t28 -70.5t-31 -103.5t-60 -103.5l-30 -43h-43z" glyph-name="glyph497" horiz-adv-x="933"/><glyph d="M102 1536h140v-1411h579v-125h-719v1536zM424 -348q-68 25 -68 96q0 41 29 70.5t72 29.5q41 0 68.5 -29.5t27.5 -70.5t-30.5 -103.5t-59.5 -103.5l-31 -43h-43z" glyph-name="glyph498" horiz-adv-x="919"/><glyph d="M102 1536h140v-1411h579v-125h-719v1536zM463 -354q-41 0 -71 29.5t-30 70.5t30 70.5t71 29.5t70.5 -29.5t29.5 -70.5t-29.5 -70.5t-70.5 -29.5z" glyph-name="glyph499" horiz-adv-x="919"/><glyph d="M1044 125v-125h-718v639l-115 -121h-109l224 240v778h139v-631l113 123h114l-227 -242v-661h579z" glyph-name="glyph500" horiz-adv-x="1142"/><glyph d="M1665 1536v-1536h-137v1329l-570 -1329h-90l-565 1329v-1329h-139v1536h186l563 -1364l568 1364h184z" glyph-name="glyph501" horiz-adv-x="1828"/><glyph d="M1321 1536v-1536h-125l-975 1303v-1303h-139v1536h125l977 -1303v1303h137z" glyph-name="glyph502" horiz-adv-x="1464"/><glyph d="M758 1741h-115l188 307h142zM1321 1536v-1536h-125l-975 1303v-1303h-139v1536h125l977 -1303v1303h137z" glyph-name="glyph503" horiz-adv-x="1464"/><glyph d="M623 1698l-205 350h110l168 -272l166 272h111l-205 -350h-145zM1321 1536v-1536h-125l-975 1303v-1303h-139v1536h125l977 -1303v1303h137z" glyph-name="glyph504" horiz-adv-x="1464"/><glyph d="M1321 1536v-1536h-125l-975 1303v-1303h-139v1536h125l977 -1303v1303h137zM684 -352q-68 25 -68 96q0 41 29 70.5t72 29.5q41 0 68.5 -29.5t27.5 -70.5t-29.5 -103.5t-60.5 -103.5l-31 -43h-43z" glyph-name="glyph505" horiz-adv-x="1464"/><glyph d="M696 1731q-41 0 -70.5 29.5t-29.5 70.5t29.5 70.5t70.5 29.5t71 -29.5t30 -70.5t-30 -70.5t-71 -29.5zM1321 1536v-1536h-125l-975 1303v-1303h-139v1536h125l977 -1303v1303h137z" glyph-name="glyph506" horiz-adv-x="1464"/><glyph d="M1321 1536v-1536h-125l-975 1303v-1303h-139v1536h125l977 -1303v1303h137zM711 -154q39 0 69.5 -29.5t30.5 -70.5t-29.5 -70.5t-70.5 -29.5t-71 29.5t-30 70.5t30 70.5t71 29.5z" glyph-name="glyph507" horiz-adv-x="1464"/><glyph d="M1315 1536v-1708q0 -111 -76 -167t-192 -52v98q57 -4 94 23.5t37 97.5v197l-963 1271v-1296h-133v1536h119l981 -1296v1296h133z" glyph-name="glyph508" horiz-adv-x="1458"/><glyph d="M442 1747q-10 106 43.5 176t143.5 70q115 0 184 -109q41 -68 109 -67q51 0 79.5 43t20.5 112h88q12 -106 -41 -174.5t-145 -68.5q-117 0 -185 108q-41 68 -106 68q-53 0 -81 -44t-20 -114h-90zM1321 1536v-1536h-125l-975 1303v-1303h-139v1536h125l977 -1303v1303h137z " glyph-name="glyph509" horiz-adv-x="1464"/><glyph d="M797 -20q-324 0 -537 228t-213 560t213 560t537 228q322 0 535.5 -228t213.5 -560t-213.5 -560t-535.5 -228zM796.5 113q270.5 0 443.5 189.5t173 465.5q0 279 -173 468t-443.5 189t-444.5 -189t-174 -468q0 -276 174 -465.5t444.5 -189.5z" glyph-name="glyph510" horiz-adv-x="1630"/><glyph d="M934 2048h141l-215 -307h-115zM797 -20q-324 0 -537 228t-213 560t213 560t537 228q322 0 535.5 -228t213.5 -560t-213.5 -560t-535.5 -228zM796.5 113q270.5 0 443.5 189.5t173 465.5q0 279 -173 468t-443.5 189t-444.5 -189t-174 -468q0 -276 174 -465.5t444.5 -189.5z " glyph-name="glyph511" horiz-adv-x="1630"/><glyph d="M520 2048h111l168 -272l166 272h110l-205 -350h-145zM797 -20q-324 0 -537 228t-213 560t213 560t537 228q322 0 535.5 -228t213.5 -560t-213.5 -560t-535.5 -228zM796.5 113q270.5 0 443.5 189.5t173 465.5q0 279 -173 468t-443.5 189t-444.5 -189t-174 -468 q0 -276 174 -465.5t444.5 -189.5z" glyph-name="glyph512" horiz-adv-x="1630"/><glyph d="M725 2048h145l205 -350h-114l-162 280l-164 -280h-115zM797 -20q-324 0 -537 228t-213 560t213 560t537 228q322 0 535.5 -228t213.5 -560t-213.5 -560t-535.5 -228zM796.5 113q270.5 0 443.5 189.5t173 465.5q0 279 -173 468t-443.5 189t-444.5 -189t-174 -468 q0 -276 174 -465.5t444.5 -189.5z" glyph-name="glyph513" horiz-adv-x="1630"/><glyph d="M618.5 1731q-40.5 0 -70.5 29.5t-30 70.5t30 70.5t70.5 29.5t70.5 -29.5t30 -70.5t-30 -70.5t-70.5 -29.5zM977 1731q-41 0 -70.5 29.5t-29.5 70.5t29.5 70.5t70.5 29.5t69.5 -29.5t28.5 -70.5t-28.5 -70.5t-69.5 -29.5zM797 -20q-324 0 -537 228t-213 560t213 560 t537 228q322 0 535.5 -228t213.5 -560t-213.5 -560t-535.5 -228zM796.5 113q270.5 0 443.5 189.5t173 465.5q0 279 -173 468t-443.5 189t-444.5 -189t-174 -468q0 -276 174 -465.5t444.5 -189.5z" glyph-name="glyph514" horiz-adv-x="1630"/><glyph d="M797 -20q-324 0 -537 228t-213 560t213 560t537 228q322 0 535.5 -228t213.5 -560t-213.5 -560t-535.5 -228zM796.5 113q270.5 0 443.5 189.5t173 465.5q0 279 -173 468t-443.5 189t-444.5 -189t-174 -468q0 -276 174 -465.5t444.5 -189.5zM799 -354q-41 0 -71 29.5 t-30 70.5t30 70.5t71 29.5t70.5 -29.5t29.5 -70.5t-29.5 -70.5t-70.5 -29.5z" glyph-name="glyph515" horiz-adv-x="1630"/><glyph d="M518 2048h141l189 -307h-115zM797 -20q-324 0 -537 228t-213 560t213 560t537 228q322 0 535.5 -228t213.5 -560t-213.5 -560t-535.5 -228zM796.5 113q270.5 0 443.5 189.5t173 465.5q0 279 -173 468t-443.5 189t-444.5 -189t-174 -468q0 -276 174 -465.5t444.5 -189.5z " glyph-name="glyph516" horiz-adv-x="1630"/><glyph d="M891 2048h135l-334 -354h-106zM1212 2048h134l-332 -354h-109zM797 -20q-324 0 -537 228t-213 560t213 560t537 228q322 0 535.5 -228t213.5 -560t-213.5 -560t-535.5 -228zM796.5 113q270.5 0 443.5 189.5t173 465.5q0 279 -173 468t-443.5 189t-444.5 -189t-174 -468 q0 -276 174 -465.5t444.5 -189.5z" glyph-name="glyph517" horiz-adv-x="1630"/><glyph d="M481 1849h635v-94h-635v94zM797 -20q-324 0 -537 228t-213 560t213 560t537 228q322 0 535.5 -228t213.5 -560t-213.5 -560t-535.5 -228zM796.5 113q270.5 0 443.5 189.5t173 465.5q0 279 -173 468t-443.5 189t-444.5 -189t-174 -468q0 -276 174 -465.5t444.5 -189.5z " glyph-name="glyph518" horiz-adv-x="1630"/><glyph d="M1272 1386q129 -111 201.5 -272.5t72.5 -345.5q0 -332 -214 -560t-535 -228q-219 0 -400 114l-75 -110h-107l111 163q-131 109 -205 271t-74 350q0 332 213 560t537 228q225 0 405 -118l76 112h104zM178 768q0 -156 58.5 -289t162.5 -223l729 1073q-147 96 -331 96 q-270 0 -444.5 -189t-174.5 -468zM797 113q270 0 443 189.5t173 465.5q0 319 -215 508l-727 -1073q146 -90 326 -90z" glyph-name="glyph519" horiz-adv-x="1630"/><glyph d="M860 1741h-115l189 307h141zM1272 1386q129 -111 201.5 -272.5t72.5 -345.5q0 -332 -214 -560t-535 -228q-219 0 -400 114l-75 -110h-107l111 163q-131 109 -205 271t-74 350q0 332 213 560t537 228q225 0 405 -118l76 112h104zM178 768q0 -156 58.5 -289t162.5 -223 l729 1073q-147 96 -331 96q-270 0 -444.5 -189t-174.5 -468zM797 113q270 0 443 189.5t173 465.5q0 319 -215 508l-727 -1073q146 -90 326 -90z" glyph-name="glyph520" horiz-adv-x="1630"/><glyph d="M944 1729q-117 0 -184 108q-41 68 -107 68q-53 0 -80.5 -44t-19.5 -114h-90q-10 106 43 176t143 70q115 0 185 -109q41 -68 108 -67q51 0 80 43t20 112h88q12 -106 -41 -174.5t-145 -68.5zM797 -20q-324 0 -537 228t-213 560t213 560t537 228q322 0 535.5 -228 t213.5 -560t-213.5 -560t-535.5 -228zM796.5 113q270.5 0 443.5 189.5t173 465.5q0 279 -173 468t-443.5 189t-444.5 -189t-174 -468q0 -276 174 -465.5t444.5 -189.5z" glyph-name="glyph521" horiz-adv-x="1630"/><glyph d="M2372 1413h-791v-582h705v-124h-705v-582h791v-125h-930v266q-111 -133 -268.5 -208.5t-337.5 -75.5q-328 0 -558.5 230t-230.5 558t230.5 558.5t558.5 230.5q180 0 337.5 -76t268.5 -209v262h930v-123zM836 115q203 0 366.5 112.5t239.5 292.5v500q-74 182 -239 293.5 t-367 111.5q-274 0 -465 -190.5t-191 -464.5q0 -272 192 -463.5t464 -191.5z" glyph-name="glyph522" horiz-adv-x="2488"/><glyph d="M637 1536q174 0 298 -133t124 -309q0 -178 -124 -310.5t-298 -132.5h-395v-651h-140v1536h535zM629 770q125 0 214 95.5t89 226.5q0 129 -90 225t-213 96h-387v-643h387z" glyph-name="glyph523" horiz-adv-x="1138"/><glyph d="M635 1325q176 0 299 -124t123 -300q0 -174 -123 -296t-299 -122h-397v-483h-136v1528h136v-203h397zM631 604q127 0 214 87t87 214q0 125 -88 212t-213 87h-393v-600h393z" glyph-name="glyph524" horiz-adv-x="1136"/><glyph d="M1608 119v-119h-31q-131 0 -234 104l-57 60q-207 -184 -489 -184q-324 0 -537 228t-213 560t213 560t537 228q322 0 535.5 -228t213.5 -560q0 -295 -172 -512l68 -72q61 -66 137 -65h29zM797 113q236 0 399 145l-268 283l88 88l266 -279q131 178 131 418q0 279 -173 468 t-443.5 189t-444.5 -189t-174 -468q0 -276 174.5 -465.5t444.5 -189.5z" glyph-name="glyph525" horiz-adv-x="1660"/><glyph d="M1094 0h-156l-399 659h-318v-659h-139v1536h534q174 0 298 -133t124 -311q0 -158 -103.5 -282t-254.5 -144zM612 776q123 0 211 96.5t88 223.5q0 125 -89 221t-210 96h-391v-637h391z" glyph-name="glyph526" horiz-adv-x="1165"/><glyph d="M668 1741h-115l188 307h142zM1176 0h-156l-399 659h-400v-659h-139v1536h616q174 0 298 -133t124 -311q0 -158 -103.5 -282t-254.5 -144zM694 776q123 0 211 96.5t88 223.5q0 125 -89 221t-210 96h-473v-637h473z" glyph-name="glyph527" horiz-adv-x="1247"/><glyph d="M532 1698l-204 350h110l168 -272l166 272h111l-205 -350h-146zM1176 0h-156l-399 659h-400v-659h-139v1536h616q174 0 298 -133t124 -311q0 -158 -103.5 -282t-254.5 -144zM694 776q123 0 211 96.5t88 223.5q0 125 -89 221t-210 96h-473v-637h473z" glyph-name="glyph528" horiz-adv-x="1247"/><glyph d="M1176 0h-156l-399 659h-400v-659h-139v1536h616q174 0 298 -133t124 -311q0 -158 -103.5 -282t-254.5 -144zM694 776q123 0 211 96.5t88 223.5q0 125 -89 221t-210 96h-473v-637h473zM578 -344q-68 25 -68 96q0 41 28.5 71t71.5 30q41 0 69 -30t28 -71t-30 -103.5 t-61 -103.5l-30 -43h-43z" glyph-name="glyph529" horiz-adv-x="1247"/><glyph d="M569 -20q-225 0 -368.5 128t-157.5 308h147q18 -129 111.5 -216t270 -87t279.5 77.5t105 225.5q0 39 -10 72.5t-23.5 58t-45 50.5t-51 39t-66.5 33.5t-67.5 29t-78 29t-73.5 26.5q-70 27 -93.5 35t-87 35.5t-89 45t-69.5 51t-62.5 65.5t-35 78t-16.5 97 q0 190 142.5 292.5t338.5 102.5q463 0 533 -415h-125q-18 121 -116.5 208t-291.5 87q-137 0 -238.5 -68t-101.5 -197q0 -59 28 -106t85 -83t108.5 -59.5t133.5 -54.5q14 -6 22 -8l84 -31.5t89.5 -34t78.5 -35t80 -45t61.5 -52t54 -65.5t30 -78t14.5 -97q0 -205 -153 -323.5 t-376 -118.5z" glyph-name="glyph530" horiz-adv-x="1146"/><glyph d="M858 2046h141l-215 -307h-114zM590 -20q-227 0 -380 129t-167 307h147q18 -125 121 -214t281 -89t290.5 78.5t114.5 224.5q0 90 -67.5 158.5t-127 93t-194.5 69.5q-31 10 -47 17q-92 31 -140 49t-123 56t-113 75t-67.5 96.5t-29.5 130.5q0 188 150.5 291.5t351.5 103.5 q242 0 372 -108.5t160 -286.5h-125q-16 113 -122.5 194t-284.5 81q-141 0 -251 -68t-110 -197q0 -47 22.5 -87t50.5 -66.5t84 -56t92 -44t106 -40.5q29 -10 43 -17q25 -10 85 -31.5t89.5 -34t83 -37t83 -44t67.5 -51t56.5 -65.5t33 -79t14.5 -96q0 -205 -162 -323.5 t-387 -118.5z" glyph-name="glyph531" horiz-adv-x="1183"/><glyph d="M444 2046h111l168 -272l166 272h110l-204 -350h-146zM590 -20q-227 0 -380 129t-167 307h147q18 -125 121 -214t281 -89t290.5 78.5t114.5 224.5q0 90 -67.5 158.5t-127 93t-194.5 69.5q-31 10 -47 17q-92 31 -140 49t-123 56t-113 75t-67.5 96.5t-29.5 130.5 q0 188 150.5 291.5t351.5 103.5q242 0 372 -108.5t160 -286.5h-125q-16 113 -122.5 194t-284.5 81q-141 0 -251 -68t-110 -197q0 -47 22.5 -87t50.5 -66.5t84 -56t92 -44t106 -40.5q29 -10 43 -17q25 -10 85 -31.5t89.5 -34t83 -37t83 -44t67.5 -51t56.5 -65.5t33 -79 t14.5 -96q0 -205 -162 -323.5t-387 -118.5z" glyph-name="glyph532" horiz-adv-x="1183"/><glyph d="M1139 422q0 -193 -144.5 -310.5t-355.5 -129.5l-55 -123q109 23 185.5 -31.5t76.5 -153.5q0 -86 -59.5 -145t-145.5 -59q-66 0 -133.5 34.5t-99.5 85.5l65 33q27 -33 75 -56.5t93 -23.5q55 0 92 38t37 93q0 78 -63.5 109t-155.5 -2l-64 45l76 154q-217 8 -361.5 135 t-158.5 301h147q18 -125 121 -214t281 -89t290.5 78.5t114.5 224.5q0 90 -67.5 158.5t-127 93t-194.5 69.5q-31 10 -47 17q-92 31 -140 49t-123 56t-113 75t-67.5 96.5t-29.5 130.5q0 188 150.5 291.5t351.5 103.5q242 0 372 -108.5t160 -286.5h-125q-16 113 -122.5 194 t-284.5 81q-141 0 -251 -68t-110 -197q0 -47 22.5 -87t50.5 -66.5t84 -56t92 -44t106 -40.5q29 -10 43 -17q25 -10 85 -31.5t89.5 -34t83 -37t83 -44t67.5 -51t56.5 -65.5t33 -79t14.5 -96z" glyph-name="glyph533" horiz-adv-x="1183"/><glyph d="M590 -20q-227 0 -380 129t-167 307h147q18 -125 121 -214t281 -89t290.5 78.5t114.5 224.5q0 90 -67.5 158.5t-127 93t-194.5 69.5q-31 10 -47 17q-92 31 -140 49t-123 56t-113 75t-67.5 96.5t-29.5 130.5q0 188 150.5 291.5t351.5 103.5q242 0 372 -108.5t160 -286.5 h-125q-16 113 -122.5 194t-284.5 81q-141 0 -251 -68t-110 -197q0 -47 22.5 -87t50.5 -66.5t84 -56t92 -44t106 -40.5q29 -10 43 -17q25 -10 85 -31.5t89.5 -34t83 -37t83 -44t67.5 -51t56.5 -65.5t33 -79t14.5 -96q0 -205 -162 -323.5t-387 -118.5zM629 -350q-68 25 -68 96 q0 41 28.5 70.5t72.5 29.5q41 0 68.5 -29.5t27.5 -70.5t-31 -103.5t-59 -105.5l-31 -41h-43z" glyph-name="glyph534" horiz-adv-x="1183"/><glyph d="M590 -20q-227 0 -380 129t-167 307h147q18 -125 121 -214t281 -89t290.5 78.5t114.5 224.5q0 90 -67.5 158.5t-127 93t-194.5 69.5q-31 10 -47 17q-92 31 -140 49t-123 56t-113 75t-67.5 96.5t-29.5 130.5q0 188 150.5 291.5t351.5 103.5q242 0 372 -108.5t160 -286.5 h-125q-16 113 -122.5 194t-284.5 81q-141 0 -251 -68t-110 -197q0 -47 22.5 -87t50.5 -66.5t84 -56t92 -44t106 -40.5q29 -10 43 -17q25 -10 85 -31.5t89.5 -34t83 -37t83 -44t67.5 -51t56.5 -65.5t33 -79t14.5 -96q0 -205 -162 -323.5t-387 -118.5zM694 -352 q-41 0 -70.5 29.5t-29.5 70.5t29.5 70.5t70.5 29.5q39 0 70 -30.5t31 -69.5q0 -41 -30 -70.5t-71 -29.5z" glyph-name="glyph535" horiz-adv-x="1183"/><glyph d="M1087 1413h-471v-1411h-137v1411h-471v125h1079v-125z" glyph-name="glyph536" horiz-adv-x="1155"/><glyph d="M1087 1413h-471v-594h302v-100h-302v-717h-137v717h-139v100h139v594h-471v125h1079v-125z" glyph-name="glyph537" horiz-adv-x="1155"/><glyph d="M551 1698l-205 350h111l168 -272l166 272h110l-205 -350h-145zM1087 1413h-471v-1411h-137v1411h-471v125h1079v-125z" glyph-name="glyph538" horiz-adv-x="1155"/><glyph d="M616 2h-41l-57 -125q109 23 185.5 -31.5t76.5 -152.5q0 -86 -59 -145.5t-146 -59.5q-66 0 -133 35t-100 86l66 33q27 -33 74.5 -56.5t92.5 -23.5q55 0 92.5 38t37.5 93q0 78 -63.5 108.5t-156.5 -2.5l-63 45l78 158h-21v1411h-471v125h1079v-125h-471v-1411z" glyph-name="glyph539" horiz-adv-x="1155"/><glyph d="M1087 1413h-471v-1411h-137v1411h-471v125h1079v-125zM514 -340q-68 25 -68 96q0 41 29 71t72 30q41 0 68.5 -30t27.5 -71t-30.5 -103.5t-59.5 -103.5l-31 -43h-43z" glyph-name="glyph540" horiz-adv-x="1155"/><glyph d="M1087 1413h-471v-1411h-137v1411h-471v125h1079v-125zM551 -154q39 0 69.5 -29.5t30.5 -70.5t-29.5 -70.5t-70.5 -29.5t-70.5 29.5t-29.5 70.5t29.5 70.5t70.5 29.5z" glyph-name="glyph541" horiz-adv-x="1155"/><glyph d="M651.5 -20q-237.5 0 -402.5 153.5t-165 372.5v1030h139v-1010q0 -176 125 -299t303 -123q180 0 305 123t125 299v1010h138v-1030q0 -219 -165 -372.5t-402.5 -153.5z" glyph-name="glyph542" horiz-adv-x="1368"/><glyph d="M874 2048h142l-215 -307h-115zM655.5 -20q-237.5 0 -404.5 153.5t-167 372.5v1030h139v-1010q0 -174 127 -298t305 -124q182 0 316.5 124t134.5 298v1010h137v-1030q0 -217 -175 -371.5t-412.5 -154.5z" glyph-name="glyph543" horiz-adv-x="1392"/><glyph d="M375 2048h110l168 -272l166 272h111l-205 -350h-145zM651.5 -20q-237.5 0 -402.5 153.5t-165 372.5v1030h139v-1010q0 -176 125 -299t303 -123q180 0 305 123t125 299v1010h138v-1030q0 -219 -165 -372.5t-402.5 -153.5z" glyph-name="glyph544" horiz-adv-x="1368"/><glyph d="M666 2048h145l205 -350h-115l-162 280l-164 -280h-114zM655.5 -20q-237.5 0 -404.5 153.5t-167 372.5v1030h139v-1010q0 -174 127 -298t305 -124q182 0 316.5 124t134.5 298v1010h137v-1030q0 -217 -175 -371.5t-412.5 -154.5z" glyph-name="glyph545" horiz-adv-x="1392"/><glyph d="M559 1731q-41 0 -70.5 29.5t-29.5 70.5t29.5 70.5t70.5 29.5t70.5 -29.5t29.5 -70.5t-29.5 -70.5t-70.5 -29.5zM917.5 1731q-40.5 0 -70.5 29.5t-30 70.5t30 70.5t70.5 29.5t69.5 -29.5t29 -70.5t-29 -70.5t-69.5 -29.5zM655.5 -20q-237.5 0 -404.5 153.5t-167 372.5 v1030h139v-1010q0 -174 127 -298t305 -124q182 0 316.5 124t134.5 298v1010h137v-1030q0 -217 -175 -371.5t-412.5 -154.5z" glyph-name="glyph546" horiz-adv-x="1392"/><glyph d="M651.5 -20q-237.5 0 -402.5 153.5t-165 372.5v1030h139v-1010q0 -176 125 -299t303 -123q180 0 305 123t125 299v1010h138v-1030q0 -219 -165 -372.5t-402.5 -153.5zM653 -354q-41 0 -70.5 29.5t-29.5 70.5t29.5 70.5t70.5 29.5q39 0 70 -29.5t31 -70.5t-30 -70.5 t-71 -29.5z" glyph-name="glyph547" horiz-adv-x="1368"/><glyph d="M459 2048h141l188 -307h-114zM655.5 -20q-237.5 0 -404.5 153.5t-167 372.5v1030h139v-1010q0 -174 127 -298t305 -124q182 0 316.5 124t134.5 298v1010h137v-1030q0 -217 -175 -371.5t-412.5 -154.5z" glyph-name="glyph548" horiz-adv-x="1392"/><glyph d="M831 2048h136l-334 -354h-107zM1153 2048h133l-332 -354h-108zM655.5 -20q-237.5 0 -404.5 153.5t-167 372.5v1030h139v-1010q0 -174 127 -298t305 -124q182 0 316.5 124t134.5 298v1010h137v-1030q0 -217 -175 -371.5t-412.5 -154.5z" glyph-name="glyph549" horiz-adv-x="1435"/><glyph d="M422 1849h635v-94h-635v94zM655.5 -20q-237.5 0 -404.5 153.5t-167 372.5v1030h139v-1010q0 -174 127 -298t305 -124q182 0 316.5 124t134.5 298v1010h137v-1030q0 -217 -175 -371.5t-412.5 -154.5z" glyph-name="glyph550" horiz-adv-x="1392"/><glyph d="M655.5 -20q-237.5 0 -404.5 153.5t-167 372.5v1030h139v-1010q0 -174 127 -298t305 -124q182 0 316.5 124t134.5 298v1010h137v-1030q0 -217 -175 -371.5t-412.5 -154.5zM891 2q-88 -47 -155.5 -128t-67.5 -171q0 -63 36.5 -102t104.5 -39q119 0 197 88l47 -68 q-106 -104 -265 -100q-100 4 -158.5 59.5t-58.5 149.5q0 156 187 291z" glyph-name="glyph551" horiz-adv-x="1392"/><glyph d="M739 1661q-82 0 -140 58.5t-58 138.5q0 82 58 140t140 58q80 0 137.5 -58.5t57.5 -139.5q0 -80 -57.5 -138.5t-137.5 -58.5zM739.5 1731q53.5 0 90 36.5t36.5 90t-37.5 92.5t-89.5 39q-53 0 -91 -39t-38 -92.5t38 -90t91.5 -36.5zM655.5 -20q-237.5 0 -404.5 153.5 t-167 372.5v1030h139v-1010q0 -174 127 -298t305 -124q182 0 316.5 124t134.5 298v1010h137v-1030q0 -217 -175 -371.5t-412.5 -154.5z" glyph-name="glyph552" horiz-adv-x="1392"/><glyph d="M885 1729q-117 0 -185 108q-41 68 -106 68q-53 0 -81 -44t-19 -114h-91q-10 106 43.5 176t143.5 70q115 0 184 -109q41 -68 109 -67q51 0 79.5 43t20.5 112h88q12 -106 -41 -174.5t-145 -68.5zM655.5 -20q-237.5 0 -404.5 153.5t-167 372.5v1030h139v-1010 q0 -174 127 -298t305 -124q182 0 316.5 124t134.5 298v1010h137v-1030q0 -217 -175 -371.5t-412.5 -154.5z" glyph-name="glyph553" horiz-adv-x="1392"/><glyph d="M1382 1536l-616 -1536h-154l-618 1536h158l536 -1374l539 1374h155z" glyph-name="glyph554" horiz-adv-x="1378"/><glyph d="M1999 1536l-486 -1536h-170l-329 1264l-336 -1264h-170l-488 1536h150l416 -1370l362 1370h144l344 -1372l413 1372h150z" glyph-name="glyph555" horiz-adv-x="2039"/><glyph d="M1135 1741h-115l188 307h142zM1999 1536l-486 -1536h-170l-329 1264l-336 -1264h-170l-488 1536h150l416 -1370l362 1370h144l344 -1372l413 1372h150z" glyph-name="glyph556" horiz-adv-x="2039"/><glyph d="M909 1698h-114l204 350h146l205 -350h-115l-162 280zM1999 1536l-486 -1536h-170l-329 1264l-336 -1264h-170l-488 1536h150l416 -1370l362 1370h144l344 -1372l413 1372h150z" glyph-name="glyph557" horiz-adv-x="2039"/><glyph d="M893 1731q-41 0 -70.5 29.5t-29.5 70.5t29.5 70.5t70.5 29.5t70.5 -29.5t29.5 -70.5t-29.5 -70.5t-70.5 -29.5zM1251 1731q-41 0 -70.5 29.5t-29.5 70.5t29.5 70.5t70.5 29.5t70 -29.5t29 -70.5t-29 -70.5t-70 -29.5zM1999 1536l-486 -1536h-170l-329 1264l-336 -1264 h-170l-488 1536h150l416 -1370l362 1370h144l344 -1372l413 1372h150z" glyph-name="glyph558" horiz-adv-x="2039"/><glyph d="M1008 1741l-215 307h141l188 -307h-114zM1999 1536l-486 -1536h-170l-329 1264l-336 -1264h-170l-488 1536h150l416 -1370l362 1370h144l344 -1372l413 1372h150z" glyph-name="glyph559" horiz-adv-x="2039"/><glyph d="M1081 0l-438 662l-436 -662h-160l520 776l-510 760h158l428 -645l430 645h158l-512 -760l524 -776h-162z" glyph-name="glyph560" horiz-adv-x="1290"/><glyph d="M721 729v-729h-137v725l-537 811h156l448 -688l451 688h153z" glyph-name="glyph561" horiz-adv-x="1302"/><glyph d="M715 1741h-115l188 307h142zM721 729v-729h-137v725l-537 811h156l448 -688l451 688h153z" glyph-name="glyph562" horiz-adv-x="1302"/><glyph d="M489 1698h-114l205 350h145l205 -350h-115l-162 280zM721 729v-729h-137v725l-537 811h156l448 -688l451 688h153z" glyph-name="glyph563" horiz-adv-x="1302"/><glyph d="M475 1731q-41 0 -70.5 29.5t-29.5 70.5t29.5 70.5t70.5 29.5t70.5 -29.5t29.5 -70.5t-29.5 -70.5t-70.5 -29.5zM833.5 1731q-40.5 0 -70.5 29.5t-30 70.5t30 70.5t70.5 29.5t69.5 -29.5t29 -70.5t-29 -70.5t-69.5 -29.5zM721 729v-729h-137v725l-537 811h156l448 -688 l451 688h153z" glyph-name="glyph564" horiz-adv-x="1302"/><glyph d="M584 725l-537 811h156l448 -688l451 688h153l-534 -807v-729h-137v725zM653 -154q39 0 70 -29.5t31 -70.5t-30 -70.5t-71 -29.5t-70.5 29.5t-29.5 70.5t29.5 70.5t70.5 29.5z" glyph-name="glyph565" horiz-adv-x="1302"/><glyph d="M590 1741l-215 307h141l189 -307h-115zM721 729v-729h-137v725l-537 811h156l448 -688l451 688h153z" glyph-name="glyph566" horiz-adv-x="1302"/><glyph d="M319 1747q-10 106 43.5 176t143.5 70q115 0 184 -109q41 -68 109 -67q51 0 79.5 43t20.5 112h88q12 -106 -41 -174.5t-145 -68.5q-117 0 -185 108q-41 68 -106 68q-53 0 -81 -44t-19 -114h-91zM721 729v-729h-137v725l-537 811h156l448 -688l451 688h153z" glyph-name="glyph567" horiz-adv-x="1302"/><glyph d="M1255 125v-125h-1159v70l932 1343h-909v123h1102v-70l-932 -1341h966z" glyph-name="glyph568" horiz-adv-x="1353"/><glyph d="M741 1741h-114l188 307h141zM1255 125v-125h-1159v70l932 1343h-909v123h1102v-70l-932 -1341h966z" glyph-name="glyph569" horiz-adv-x="1353"/><glyph d="M606 1698l-205 350h111l168 -272l166 272h110l-204 -350h-146zM1255 125v-125h-1159v70l932 1343h-909v123h1102v-70l-932 -1341h966z" glyph-name="glyph570" horiz-adv-x="1353"/><glyph d="M680 1731q-41 0 -70.5 29.5t-29.5 70.5t29.5 70.5t70.5 29.5t70.5 -29.5t29.5 -70.5t-29.5 -70.5t-70.5 -29.5zM1255 125v-125h-1159v70l932 1343h-909v123h1102v-70l-932 -1341h966z" glyph-name="glyph571" horiz-adv-x="1353"/><glyph d="M1255 125v-125h-1159v70l932 1343h-909v123h1102v-70l-932 -1341h966zM670 -154q39 0 69.5 -29.5t30.5 -70.5t-29.5 -70.5t-70.5 -29.5t-71 29.5t-30 70.5t30 70.5t71 29.5z" glyph-name="glyph572" horiz-adv-x="1353"/><glyph d="M391 -20q-141 0 -236.5 82.5t-95.5 216t113 220.5t344 87h250v90q0 252 -260 252q-262 0 -287 -193h-119q14 137 115.5 221t296.5 84q178 0 281.5 -93t103.5 -277v-670h-121l-10 158q-61 -78 -158.5 -128t-216.5 -50zM389 88q115 0 228.5 58.5t148.5 164.5v183l-250 -2 q-174 -2 -250 -62.5t-76 -150.5q0 -86 57.5 -138.5t141.5 -52.5z" glyph-name="glyph573" horiz-adv-x="954"/><glyph d="M823 1536l-215 -307h-114l188 307h141zM952 276q0 -90 18.5 -125.5t63.5 -33.5v-117q-31 0 -57 6q-139 29 -152 170q-45 -78 -153.5 -131t-235.5 -53q-162 0 -269.5 92t-107.5 233q0 334 465 365l293 18v43q0 135 -81 206t-222 71q-123 0 -200.5 -69.5t-90.5 -176.5h-139 q16 154 129 261.5t307 107.5q201 0 315.5 -109.5t114.5 -296.5zM817 408v170l-293 -21q-188 -12 -261 -76.5t-73 -165.5q0 -90 77 -144t175 -54q145 0 260 88t115 203z" glyph-name="glyph574" horiz-adv-x="1091"/><glyph d="M483 1165q-143 0 -236 84t-93 221h88q0 -90 69.5 -153.5t171.5 -63.5q104 0 175 63.5t71 153.5h86q0 -137 -93.5 -221t-238.5 -84zM436 -8q-162 0 -269.5 92t-107.5 233q0 334 465 365l293 18v43q0 135 -81 206t-222 71q-123 0 -200.5 -69.5t-90.5 -176.5h-139 q16 154 129 261.5t307 107.5q201 0 315.5 -109.5t114.5 -296.5l2 -461q0 -90 18.5 -125.5t63.5 -33.5v-117q-31 0 -57 6q-139 29 -152 170q-45 -78 -153.5 -131t-235.5 -53zM442 117q145 0 260 88t115 203v170l-293 -21q-188 -12 -261 -76.5t-73 -165.5q0 -90 77 -144 t175 -54z" glyph-name="glyph575" horiz-adv-x="1091"/><glyph d="M432 1186l-205 350h111l168 -272l166 272h110l-204 -350h-146zM436 -8q-162 0 -269.5 92t-107.5 233q0 334 465 365l293 18v43q0 135 -81 206t-222 71q-123 0 -200.5 -69.5t-90.5 -176.5h-139q16 154 129 261.5t307 107.5q201 0 315.5 -109.5t114.5 -296.5l2 -461 q0 -90 18.5 -125.5t63.5 -33.5v-117q-31 0 -57 6q-139 29 -152 170q-45 -78 -153.5 -131t-235.5 -53zM442 117q145 0 260 88t115 203v170l-293 -21q-188 -12 -261 -76.5t-73 -165.5q0 -90 77 -144t175 -54z" glyph-name="glyph576" horiz-adv-x="1091"/><glyph d="M502 1466l-164 -280h-115l205 350h145l205 -350h-114zM952 276q0 -90 18.5 -125.5t63.5 -33.5v-117q-31 0 -57 6q-139 29 -152 170q-45 -78 -153.5 -131t-235.5 -53q-162 0 -269.5 92t-107.5 233q0 334 465 365l293 18v43q0 135 -81 206t-222 71q-123 0 -200.5 -69.5 t-90.5 -176.5h-139q16 154 129 261.5t307 107.5q201 0 315.5 -109.5t114.5 -296.5zM817 408v170l-293 -21q-188 -12 -261 -76.5t-73 -165.5q0 -90 77 -144t175 -54q145 0 260 88t115 203z" glyph-name="glyph577" horiz-adv-x="1091"/><glyph d="M307 1219q-41 0 -70.5 29.5t-29.5 70.5t29.5 70.5t70.5 29.5t71 -29.5t30 -70.5t-30 -70.5t-71 -29.5zM666 1219q-41 0 -71 29.5t-30 70.5t30 70.5t71 29.5t69.5 -29.5t28.5 -70.5t-28.5 -70.5t-69.5 -29.5zM436 -8q-162 0 -269.5 92t-107.5 233q0 334 465 365l293 18v43 q0 135 -81 206t-222 71q-123 0 -200.5 -69.5t-90.5 -176.5h-139q16 154 129 261.5t307 107.5q201 0 315.5 -109.5t114.5 -296.5l2 -461q0 -90 18.5 -125.5t63.5 -33.5v-117q-31 0 -57 6q-139 29 -152 170q-45 -78 -153.5 -131t-235.5 -53zM442 117q145 0 260 88t115 203v170 l-293 -21q-188 -12 -261 -76.5t-73 -165.5q0 -90 77 -144t175 -54z" glyph-name="glyph578" horiz-adv-x="1091"/><glyph d="M436 -8q-162 0 -269.5 92t-107.5 233q0 334 465 365l293 18v43q0 135 -81 206t-222 71q-123 0 -200.5 -69.5t-90.5 -176.5h-139q16 154 129 261.5t307 107.5q201 0 315.5 -109.5t114.5 -296.5l2 -461q0 -90 18.5 -125.5t63.5 -33.5v-117q-31 0 -57 6q-139 29 -152 170 q-45 -78 -153.5 -131t-235.5 -53zM442 117q145 0 260 88t115 203v170l-293 -21q-188 -12 -261 -76.5t-73 -165.5q0 -90 77 -144t175 -54zM516 -154q41 0 70.5 -29.5t29.5 -70.5t-29.5 -70.5t-70.5 -29.5t-70.5 29.5t-29.5 70.5t29.5 70.5t70.5 29.5z" glyph-name="glyph579" horiz-adv-x="1091"/><glyph d="M598 1229h-115l-215 307h142zM952 276q0 -90 18.5 -125.5t63.5 -33.5v-117q-31 0 -57 6q-139 29 -152 170q-45 -78 -153.5 -131t-235.5 -53q-162 0 -269.5 92t-107.5 233q0 334 465 365l293 18v43q0 135 -81 206t-222 71q-123 0 -200.5 -69.5t-90.5 -176.5h-139 q16 154 129 261.5t307 107.5q201 0 315.5 -109.5t114.5 -296.5zM817 408v170l-293 -21q-188 -12 -261 -76.5t-73 -165.5q0 -90 77 -144t175 -54q145 0 260 88t115 203z" glyph-name="glyph580" horiz-adv-x="1091"/><glyph d="M803 1243h-635v94h635v-94zM436 -8q-162 0 -269.5 92t-107.5 233q0 334 465 365l293 18v43q0 135 -81 206t-222 71q-123 0 -200.5 -69.5t-90.5 -176.5h-139q16 154 129 261.5t307 107.5q201 0 315.5 -109.5t114.5 -296.5l2 -461q0 -90 18.5 -125.5t63.5 -33.5v-117 q-31 0 -57 6q-139 29 -152 170q-45 -78 -153.5 -131t-235.5 -53zM442 117q145 0 260 88t115 203v170l-293 -21q-188 -12 -261 -76.5t-73 -165.5q0 -90 77 -144t175 -54z" glyph-name="glyph581" horiz-adv-x="1091"/><glyph d="M436 -8q-162 0 -269.5 92t-107.5 233q0 334 465 365l293 18v43q0 135 -81 206t-222 71q-123 0 -200.5 -69.5t-90.5 -176.5h-139q16 154 129 261.5t307 107.5q201 0 315.5 -109.5t114.5 -296.5l2 -461q0 -90 18.5 -125.5t63.5 -33.5v-117q-31 0 -57 6q-139 29 -152 170 q-45 -78 -153.5 -131t-235.5 -53zM442 117q145 0 260 88t115 203v170l-293 -21q-188 -12 -261 -76.5t-73 -165.5q0 -90 77 -144t175 -54zM758 -532q-100 4 -158.5 60t-58.5 148q0 174 231 324h121q-98 -43 -177 -128t-79 -183q0 -63 37 -102.5t104 -39.5q119 0 197 88 l47 -67q-110 -106 -264 -100z" glyph-name="glyph582" horiz-adv-x="1091"/><glyph d="M506 1149q-82 0 -140.5 58.5t-58.5 138.5q0 82 58.5 140t140.5 58q80 0 137 -58.5t57 -139.5q0 -80 -57 -138.5t-137 -58.5zM506 1477q-53 0 -91 -39t-38 -92.5t38 -90t91 -36.5t90 36.5t37 90t-38 92.5t-89 39zM436 -8q-162 0 -269.5 92t-107.5 233q0 334 465 365 l293 18v43q0 135 -81 206t-222 71q-123 0 -200.5 -69.5t-90.5 -176.5h-139q16 154 129 261.5t307 107.5q201 0 315.5 -109.5t114.5 -296.5l2 -461q0 -90 18.5 -125.5t63.5 -33.5v-117q-31 0 -57 6q-139 29 -152 170q-45 -78 -153.5 -131t-235.5 -53zM442 117q145 0 260 88 t115 203v170l-293 -21q-188 -12 -261 -76.5t-73 -165.5q0 -90 77 -144t175 -54z" glyph-name="glyph583" horiz-adv-x="1091"/><glyph d="M152 1235q-10 106 43 176t143 70q119 0 184 -109q41 -68 109 -67q51 0 79.5 43t20.5 112h88q12 -106 -41 -174.5t-145 -68.5q-117 0 -184 108q-41 68 -107 68q-53 0 -81 -44t-19 -114h-90zM436 -8q-162 0 -269.5 92t-107.5 233q0 334 465 365l293 18v43q0 135 -81 206 t-222 71q-123 0 -200.5 -69.5t-90.5 -176.5h-139q16 154 129 261.5t307 107.5q201 0 315.5 -109.5t114.5 -296.5l2 -461q0 -90 18.5 -125.5t63.5 -33.5v-117q-31 0 -57 6q-139 29 -152 170q-45 -78 -153.5 -131t-235.5 -53zM442 117q145 0 260 88t115 203v170l-293 -21 q-188 -12 -261 -76.5t-73 -165.5q0 -90 77 -144t175 -54z" glyph-name="glyph584" horiz-adv-x="1091"/><glyph d="M1884 565q0 -37 -2 -57h-897q12 -201 127 -308.5t285 -107.5q117 0 222 62.5t130 162.5h121q-27 -152 -163 -246t-335 -94q-272 0 -420 211l-2 -188h-119l-6 180q-47 -78 -154.5 -133t-234.5 -55q-162 0 -269.5 92t-107.5 233q0 305 465 365l293 37v24q0 141 -81 213 t-222 72q-127 0 -202.5 -71.5t-88.5 -180.5h-133q16 156 124 261.5t306 105.5q158 0 262.5 -65.5t145.5 -188.5q68 117 182.5 184.5t261.5 65.5q233 -2 372.5 -161t139.5 -413zM989 625h760q-16 174 -114.5 279.5t-260.5 105.5q-164 0 -265.5 -105.5t-119.5 -279.5zM817 408 v200l-293 -39q-190 -25 -263 -93t-73 -169q0 -96 76 -146t178 -50q145 0 260 89t115 208z" glyph-name="glyph585" horiz-adv-x="1826"/><glyph d="M666 1044q211 0 342 -152.5t131 -379.5q0 -225 -131 -378.5t-342 -153.5q-240 0 -375 204l-4 -184h-123v1536h133v-690q131 198 369 198zM647 100q162 0 261.5 119t99.5 293q0 176 -99.5 294t-261.5 118q-133 0 -228 -88t-122 -228v-192q27 -139 122 -227.5t228 -88.5z " glyph-name="glyph586" horiz-adv-x="1224"/><glyph d="M664 1137q229 0 373.5 -166t144.5 -414q0 -246 -142.5 -409.5t-371.5 -163.5q-266 0 -410 217l-22 -201h-115v1536h143v-614q146 215 400 215zM647 109q176 0 284.5 129t108.5 319q0 193 -107.5 321t-285.5 128q-145 0 -248.5 -96.5t-134.5 -247.5v-209 q31 -152 134.5 -248t248.5 -96zM643 -154q41 0 70.5 -29.5t29.5 -70.5t-29.5 -70.5t-70.5 -29.5t-70.5 29.5t-29.5 70.5t29.5 70.5t70.5 29.5z" glyph-name="glyph587" horiz-adv-x="1224"/><glyph d="M539 -20q-217 0 -347.5 150.5t-130.5 381.5t130.5 381.5t347.5 150.5q176 0 300 -96t142 -241h-125q-16 96 -101 158.5t-204 62.5q-166 0 -264.5 -111.5t-98.5 -304.5q0 -195 98.5 -305.5t264.5 -110.5q117 0 197.5 61.5t107.5 161.5h119q-33 -145 -149.5 -242 t-286.5 -97z" glyph-name="glyph588" horiz-adv-x="1069"/><glyph d="M694 1536h142l-215 -307h-115zM582 -12q-231 0 -376 164.5t-145 414.5q0 248 144.5 409t376.5 161q190 0 325 -102.5t156 -260.5h-135q-18 104 -113.5 172t-224.5 68q-178 0 -284.5 -120t-106.5 -327t108.5 -330.5t286.5 -123.5q123 0 212 68.5t122 176.5h129 q-35 -160 -163 -265t-312 -105z" glyph-name="glyph589" horiz-adv-x="1150"/><glyph d="M281 1536h110l168 -272l166 272h111l-205 -350h-146zM582 -12q-231 0 -376 164.5t-145 414.5q0 248 144.5 409t376.5 161q190 0 325 -102.5t156 -260.5h-135q-18 104 -113.5 172t-224.5 68q-178 0 -284.5 -120t-106.5 -327t108.5 -330.5t286.5 -123.5q123 0 212 68.5 t122 176.5h129q-35 -160 -163 -265t-312 -105z" glyph-name="glyph590" horiz-adv-x="1150"/><glyph d="M594 113q123 0 212 68.5t122 176.5h129q-35 -160 -163 -265t-312 -105h-31l-43 -90q109 23 185.5 -31.5t76.5 -153.5q0 -86 -59.5 -145.5t-145.5 -59.5q-66 0 -133 35t-100 86l65 33q27 -33 75 -56.5t93 -23.5q55 0 92 38t37 93q0 78 -63.5 109t-155.5 -2l-63 45l63 133 q-188 39 -301 195.5t-113 373.5q0 248 144.5 409t376.5 161q190 0 325 -102.5t156 -260.5h-135q-18 104 -113.5 172t-224.5 68q-178 0 -284.5 -120t-106.5 -327t108.5 -330.5t286.5 -123.5z" glyph-name="glyph591" horiz-adv-x="1150"/><glyph d="M559 1219q-41 0 -70.5 29.5t-29.5 70.5t29.5 70.5t70.5 29.5t70.5 -29.5t29.5 -70.5t-29.5 -70.5t-70.5 -29.5zM582 -12q-231 0 -376 164.5t-145 414.5q0 248 144.5 409t376.5 161q190 0 325 -102.5t156 -260.5h-135q-18 104 -113.5 172t-224.5 68q-178 0 -284.5 -120 t-106.5 -327t108.5 -330.5t286.5 -123.5q123 0 212 68.5t122 176.5h129q-35 -160 -163 -265t-312 -105z" glyph-name="glyph592" horiz-adv-x="1150"/><glyph d="M1061 1536v-1536h-121l-8 184q-135 -205 -373 -204q-211 0 -342 153.5t-131 378.5q0 227 131 379.5t342 152.5q236 0 371 -198v690h131zM578 100q133 0 228 88t124 228v192q-29 139 -124 227.5t-228 88.5q-162 0 -261.5 -118t-99.5 -294q0 -174 99.5 -293t261.5 -119z " glyph-name="glyph593" horiz-adv-x="1224"/><glyph d="M809 1395q170 -143 269.5 -375t99.5 -508q0 -221 -160 -376.5t-387 -155.5q-225 0 -385 155.5t-160 376.5t160 376.5t385 155.5q201 0 352 -124q-78 242 -246 383l-114 -146l-52 43l113 141q-158 104 -342 109l23 111q211 0 391 -125l96 120l51 -40zM631 100 q170 0 290.5 121t120.5 291q0 172 -120.5 292t-290.5 120t-291 -120t-121 -292q0 -170 121 -291t291 -121z" glyph-name="glyph594" horiz-adv-x="1265"/><glyph d="M1116 1536v-1536h-123l-16 201q-139 -211 -408 -211q-229 0 -371.5 160.5t-142.5 406.5q0 248 144.5 414t373.5 166q254 0 402 -215v614h141zM1372 1339q-68 25 -67 97q0 41 28.5 70.5t71.5 29.5q41 0 68.5 -29.5t27.5 -70.5t-29.5 -103.5t-60.5 -103.5l-31 -43h-43z M590 109q145 0 249.5 96t135.5 248v209q-31 152 -135.5 248t-249.5 96q-174 0 -283.5 -129t-109.5 -319.5t109.5 -319.5t283.5 -129z" glyph-name="glyph595" horiz-adv-x="1533"/><glyph d="M1200 1223h-139v-1223h-121l-8 184q-135 -205 -373 -204q-211 0 -342 153.5t-131 378.5q0 227 131 379.5t342 152.5q236 0 371 -198v377h-307v100h307v213h131v-213h139v-100zM578 100q133 0 228 88t124 228v192q-29 139 -124 227.5t-228 88.5q-162 0 -261.5 -118 t-99.5 -294q0 -174 99.5 -293t261.5 -119z" glyph-name="glyph596" horiz-adv-x="1224"/><glyph d="M1008 520q0 -35 -2 -53h-822q10 -184 114.5 -282.5t262.5 -98.5q106 0 203.5 56.5t120.5 150.5h110q-25 -139 -150.5 -226t-305.5 -87q-219 0 -352.5 151.5t-133.5 380.5t133 380.5t353 151.5q213 0 341 -146.5t128 -377.5zM541 928q-150 0 -244 -97.5t-111 -257.5h699 q-14 160 -105.5 257.5t-238.5 97.5z" glyph-name="glyph597" horiz-adv-x="1069"/><glyph d="M850 1548l-215 -307h-115l189 307h141zM1075 569q0 -37 -2 -57h-872q2 -186 115.5 -292.5t248.5 -108.5q141 -2 226.5 58t111.5 157h129q-6 -49 -33.5 -102.5t-78 -109t-139.5 -90t-201 -34.5q-233 2 -373.5 165.5t-140.5 405.5q0 248 138 410t371 162q229 0 364.5 -157 t135.5 -407zM203 629h741q-16 172 -111.5 275.5t-254.5 103.5q-162 0 -259.5 -103.5t-115.5 -275.5z" glyph-name="glyph598" horiz-adv-x="1142"/><glyph d="M500 1198l-205 350h111l167 -272l166 272h111l-205 -350h-145zM1075 569q0 -37 -2 -57h-872q2 -186 115.5 -292.5t248.5 -108.5q141 -2 226.5 58t111.5 157h129q-6 -49 -33.5 -102.5t-78 -109t-139.5 -90t-201 -34.5q-233 2 -373.5 165.5t-140.5 405.5q0 248 138 410 t371 162q229 0 364.5 -157t135.5 -407zM578 1008q-162 0 -259.5 -103.5t-115.5 -275.5h741q-16 172 -111 275.5t-255 103.5z" glyph-name="glyph599" horiz-adv-x="1142"/><glyph d="M1075 569q0 -37 -2 -57h-872q2 -186 115.5 -292.5t248.5 -108.5q141 -2 226.5 58t111.5 157h129q-16 -113 -119.5 -219.5t-298.5 -116.5q-6 -6 -12 -10l-57 -123q109 23 185.5 -31.5t76.5 -153.5q0 -86 -59.5 -145t-145.5 -59q-66 0 -133.5 34.5t-99.5 85.5l65 33 q27 -33 75 -56.5t93 -23.5q55 0 92 38t37 93q0 78 -63.5 109t-155.5 -2l-63 45l77 158q-27 10 -30 14q-197 31 -313.5 189.5t-116.5 375.5q0 248 138 410t371 162q229 0 364.5 -157t135.5 -407zM203 629h741q-16 172 -111.5 275.5t-254.5 103.5q-162 0 -259.5 -103.5 t-115.5 -275.5z" glyph-name="glyph600" horiz-adv-x="1142"/><glyph d="M410 1198h-115l205 350h145l205 -350h-115l-162 281zM1075 569q0 -37 -2 -57h-872q2 -186 115.5 -292.5t248.5 -108.5q141 -2 226.5 58t111.5 157h129q-6 -49 -33.5 -102.5t-78 -109t-139.5 -90t-201 -34.5q-233 2 -373.5 165.5t-140.5 405.5q0 248 138 410t371 162 q229 0 364.5 -157t135.5 -407zM578 1008q-162 0 -259.5 -103.5t-115.5 -275.5h741q-16 172 -111 275.5t-255 103.5z" glyph-name="glyph601" horiz-adv-x="1142"/><glyph d="M393 1231q-41 0 -70.5 29.5t-29.5 70.5t29.5 71t70.5 30t71 -30t30 -71t-30 -70.5t-71 -29.5zM752 1231q-41 0 -71 29.5t-30 70.5t30 71t71 30t69.5 -30t28.5 -71t-28.5 -70.5t-69.5 -29.5zM1075 569q0 -37 -2 -57h-872q2 -186 115.5 -292.5t248.5 -108.5 q141 -2 226.5 58t111.5 157h129q-6 -49 -33.5 -102.5t-78 -109t-139.5 -90t-201 -34.5q-233 2 -373.5 165.5t-140.5 405.5q0 248 138 410t371 162q229 0 364.5 -157t135.5 -407zM578 1008q-162 0 -259.5 -103.5t-115.5 -275.5h741q-16 172 -111 275.5t-255 103.5z" glyph-name="glyph602" horiz-adv-x="1142"/><glyph d="M573 1231q-41 0 -70.5 29.5t-29.5 70.5t29.5 71t70.5 30t71 -30t30 -71t-30 -70.5t-71 -29.5zM1075 569q0 -37 -2 -57h-872q2 -186 115.5 -292.5t248.5 -108.5q141 -2 226.5 58t111.5 157h129q-6 -49 -33.5 -102.5t-78 -109t-139.5 -90t-201 -34.5q-233 2 -373.5 165.5 t-140.5 405.5q0 248 138 410t371 162q229 0 364.5 -157t135.5 -407zM578 1008q-162 0 -259.5 -103.5t-115.5 -275.5h741q-16 172 -111 275.5t-255 103.5z" glyph-name="glyph603" horiz-adv-x="1142"/><glyph d="M1075 569q0 -37 -2 -57h-872q2 -186 115.5 -292.5t248.5 -108.5q141 -2 226.5 58t111.5 157h129q-6 -49 -33.5 -102.5t-78 -109t-139.5 -90t-201 -34.5q-233 2 -373.5 165.5t-140.5 405.5q0 248 138 410t371 162q229 0 364.5 -157t135.5 -407zM578 1008 q-162 0 -259.5 -103.5t-115.5 -275.5h741q-16 172 -111 275.5t-255 103.5zM573 -154q41 0 71 -29.5t30 -70.5t-30 -70.5t-71 -29.5t-70.5 29.5t-29.5 70.5t29.5 70.5t70.5 29.5z" glyph-name="glyph604" horiz-adv-x="1142"/><glyph d="M508 1241l-215 307h141l189 -307h-115zM1075 569q0 -37 -2 -57h-872q2 -186 115.5 -292.5t248.5 -108.5q141 -2 226.5 58t111.5 157h129q-6 -49 -33.5 -102.5t-78 -109t-139.5 -90t-201 -34.5q-233 2 -373.5 165.5t-140.5 405.5q0 248 138 410t371 162q229 0 364.5 -157 t135.5 -407zM578 1008q-162 0 -259.5 -103.5t-115.5 -275.5h741q-16 172 -111 275.5t-255 103.5z" glyph-name="glyph605" horiz-adv-x="1142"/><glyph d="M891 1255h-635v95h635v-95zM1075 569q0 -37 -2 -57h-872q2 -186 115.5 -292.5t248.5 -108.5q141 -2 226.5 58t111.5 157h129q-6 -49 -33.5 -102.5t-78 -109t-139.5 -90t-201 -34.5q-233 2 -373.5 165.5t-140.5 405.5q0 248 138 410t371 162q229 0 364.5 -157t135.5 -407z M578 1008q-162 0 -259.5 -103.5t-115.5 -275.5h741q-16 172 -111 275.5t-255 103.5z" glyph-name="glyph606" horiz-adv-x="1142"/><glyph d="M1075 569q0 -37 -2 -57h-872q2 -186 115.5 -292.5t248.5 -108.5q141 -2 226.5 58t111.5 157h129q-12 -86 -80.5 -178.5t-197.5 -133.5l2 -2q-6 -2 -23 -8q-63 -82 -63 -164q0 -63 36.5 -102t104.5 -39q119 0 197 88l47 -68q-106 -104 -264 -100q-100 4 -159 59.5 t-59 149.5q0 78 50 154q-2 0 2 1t22.5 6t26.5 7q-43 -6 -94 -6q-233 2 -373.5 165.5t-140.5 405.5q0 248 138 410t371 162q229 0 364.5 -157t135.5 -407zM203 629h741q-16 172 -111.5 275.5t-254.5 103.5q-162 0 -259.5 -103.5t-115.5 -275.5z" glyph-name="glyph607" horiz-adv-x="1142"/><glyph d="M238 1245q-10 106 43 176t143 70q115 0 184 -109q41 -68 109 -67q51 0 79.5 43t20.5 112h88q12 -106 -41 -174.5t-145 -68.5q-117 0 -184 108q-41 68 -107 68q-53 0 -81 -44t-19 -114h-90zM1075 569q0 -37 -2 -57h-872q2 -186 115.5 -292.5t248.5 -108.5q141 -2 226.5 58 t111.5 157h129q-6 -49 -33.5 -102.5t-78 -109t-139.5 -90t-201 -34.5q-233 2 -373.5 165.5t-140.5 405.5q0 248 138 410t371 162q229 0 364.5 -157t135.5 -407zM578 1008q-162 0 -259.5 -103.5t-115.5 -275.5h741q-16 172 -111 275.5t-255 103.5z" glyph-name="glyph608" horiz-adv-x="1142"/><glyph d="M262 0v918h-172v106h172v231q0 133 83 217t200 84q88 0 151 -38v-99q-70 29 -149 25q-74 -6 -113 -46t-39 -145v-229h281v-106h-281v-918h-133z" glyph-name="glyph609" horiz-adv-x="731"/><glyph d="M1061 1024v-989q0 -264 -126 -405.5t-368 -141.5q-109 0 -196.5 31.5t-138 82t-77 103.5t-30.5 102h123q8 -74 98 -142t229 -68q168 0 263.5 114.5t93.5 343.5l-2 129q-137 -205 -371 -204q-211 0 -342 153.5t-131 378.5q0 227 131 379.5t342 152.5q238 0 373 -208l8 188 h121zM578 100q129 0 226 90.5t126 229.5v186q-29 137 -127 227.5t-225 90.5q-162 0 -261.5 -118t-99.5 -294q0 -174 99.5 -293t261.5 -119z" glyph-name="glyph610" horiz-adv-x="1224"/><glyph d="M592 1165q-143 0 -236.5 84t-93.5 221h88q0 -90 69.5 -153.5t172.5 -63.5q104 0 175 63.5t71 153.5h86q0 -137 -93.5 -221t-238.5 -84zM532 -492q-213 0 -355 94.5t-142 252.5q0 78 42 142t116 101q-6 4 -30 21.5t-36 29t-29.5 31t-26 43t-8.5 49.5q0 61 35 104.5 t103 88.5q-106 104 -107 276q0 166 116 277.5t296 111.5q131 0 242 -63q25 57 87 93t134 36v-131q-43 0 -78 -22.5t-45 -59.5q82 -106 82 -242q0 -174 -115 -281.5t-307 -107.5q-154 0 -232 54q-41 -16 -59 -50t-8 -71q31 -104 192 -107l226 -2q346 -4 387 -250 q29 -168 -98.5 -293t-381.5 -125zM791 741q0 111 -82 187t-203 76q-119 0 -199 -76t-80 -186.5t80 -187.5t199 -77q123 0 204 75.5t81 188.5zM877 -76q-14 74 -85 104.5t-210 30.5h-248q-74 -18 -114 -74.5t-40 -127.5q0 -100 102.5 -162t237.5 -62q195 0 288.5 82t68.5 209 z" glyph-name="glyph611" horiz-adv-x="1056"/><glyph d="M520 1186l-205 350h111l168 -272l166 272h110l-204 -350h-146zM532 -492q-213 0 -355 94.5t-142 252.5q0 78 42 142t116 101q-6 4 -30 21.5t-36 29t-29.5 31t-26 43t-8.5 49.5q0 61 35 104.5t103 88.5q-106 104 -107 276q0 166 116 277.5t296 111.5q131 0 242 -63 q25 57 87 93t134 36v-131q-43 0 -78 -22.5t-45 -59.5q82 -106 82 -242q0 -174 -115 -281.5t-307 -107.5q-154 0 -232 54q-41 -16 -59 -50t-8 -71q31 -104 192 -107l226 -2q346 -4 387 -250q29 -168 -98.5 -293t-381.5 -125zM791 741q0 111 -82 187t-203 76q-119 0 -199 -76 t-80 -186.5t80 -187.5t199 -77q123 0 204 75.5t81 188.5zM877 -76q-14 74 -85 104.5t-210 30.5h-248q-74 -18 -114 -74.5t-40 -127.5q0 -100 102.5 -162t237.5 -62q195 0 288.5 82t68.5 209z" glyph-name="glyph612" horiz-adv-x="1056"/><glyph d="M627 1378q68 -25 67 -96q0 -41 -28.5 -70.5t-71.5 -29.5q-41 0 -68.5 29.5t-27.5 70.5t29.5 103.5t60.5 105.5l30 41h44zM532 -492q-213 0 -355 94.5t-142 252.5q0 78 42 142t116 101q-6 4 -30 21.5t-36 29t-29.5 31t-26 43t-8.5 49.5q0 61 35 104.5t103 88.5 q-106 104 -107 276q0 166 116 277.5t296 111.5q131 0 242 -63q25 57 87 93t134 36v-131q-43 0 -78 -22.5t-45 -59.5q82 -106 82 -242q0 -174 -115 -281.5t-307 -107.5q-154 0 -232 54q-41 -16 -59 -50t-8 -71q31 -104 192 -107l226 -2q346 -4 387 -250q29 -168 -98.5 -293 t-381.5 -125zM791 741q0 111 -82 187t-203 76q-119 0 -199 -76t-80 -186.5t80 -187.5t199 -77q123 0 204 75.5t81 188.5zM877 -76q-14 74 -85 104.5t-210 30.5h-248q-74 -18 -114 -74.5t-40 -127.5q0 -100 102.5 -162t237.5 -62q195 0 288.5 82t68.5 209z" glyph-name="glyph613" horiz-adv-x="1056"/><glyph d="M594 1219q-41 0 -70.5 29.5t-29.5 70.5t29.5 70.5t70.5 29.5t70.5 -29.5t29.5 -70.5t-29.5 -70.5t-70.5 -29.5zM532 -492q-213 0 -355 94.5t-142 252.5q0 78 42 142t116 101q-6 4 -30 21.5t-36 29t-29.5 31t-26 43t-8.5 49.5q0 61 35 104.5t103 88.5q-106 104 -107 276 q0 166 116 277.5t296 111.5q131 0 242 -63q25 57 87 93t134 36v-131q-43 0 -78 -22.5t-45 -59.5q82 -106 82 -242q0 -174 -115 -281.5t-307 -107.5q-154 0 -232 54q-41 -16 -59 -50t-8 -71q31 -104 192 -107l226 -2q346 -4 387 -250q29 -168 -98.5 -293t-381.5 -125z M791 741q0 111 -82 187t-203 76q-119 0 -199 -76t-80 -186.5t80 -187.5t199 -77q123 0 204 75.5t81 188.5zM877 -76q-14 74 -85 104.5t-210 30.5h-248q-74 -18 -114 -74.5t-40 -127.5q0 -100 102.5 -162t237.5 -62q195 0 288.5 82t68.5 209z" glyph-name="glyph614" horiz-adv-x="1056"/><glyph d="M655 1044q170 0 273.5 -103t103.5 -273v-668h-135v655q0 121 -74.5 195t-199.5 74q-131 0 -227.5 -78t-96.5 -197v-649h-135v1536h135v-662q55 78 152.5 124t203.5 46z" glyph-name="glyph615" horiz-adv-x="1191"/><glyph d="M668 1139q184 0 296.5 -113t112.5 -297v-729h-147v715q0 133 -82 213t-217 80q-141 0 -246.5 -85t-105.5 -214v-709h-148v1229h-76v100h76v205h148v-205h354v-100h-354v-275q59 84 165.5 134.5t223.5 50.5z" glyph-name="glyph616" horiz-adv-x="1191"/><glyph d="M668 1139q184 0 296.5 -113t112.5 -297v-729h-147v715q0 133 -82 213t-217 80q-141 0 -246.5 -85t-105.5 -214v-709h-148v1534h148v-580q59 84 165.5 134.5t223.5 50.5zM586 -154q41 0 70.5 -29.5t29.5 -70.5t-29.5 -70.5t-70.5 -29.5t-71 29.5t-30 70.5t30 70.5t71 29.5 z" glyph-name="glyph617" horiz-adv-x="1191"/><glyph d="M244 1219q-41 0 -71 29.5t-30 70.5t30 70.5t71 29.5t70.5 -29.5t29.5 -70.5t-29.5 -70.5t-70.5 -29.5zM176 1024h135v-1024h-135v1024z" glyph-name="glyph618" horiz-adv-x="471"/><glyph d="M164 1024h135v-1024h-135v1024z" glyph-name="glyph619" horiz-adv-x="462"/><glyph d="M369 1536h141l-215 -307h-115zM164 1024h135v-1024h-135v1024z" glyph-name="glyph620" horiz-adv-x="462"/><glyph d="M-49 1536h112l168 -272l166 272h111l-205 -350h-145zM164 1024h135v-1024h-135v1024z" glyph-name="glyph621" horiz-adv-x="462"/><glyph d="M158 1536h145l205 -350h-115l-162 280l-163 -280h-117zM164 1024h135v-1024h-135v1024z" glyph-name="glyph622" horiz-adv-x="462"/><glyph d="M53 1219q-41 0 -71.5 29.5t-30.5 70.5t30.5 70.5t71.5 29.5t71 -29.5t30 -70.5t-30 -70.5t-71 -29.5zM412 1219q-41 0 -71 29.5t-30 70.5t30 70.5t71 29.5t69.5 -29.5t28.5 -70.5t-28.5 -70.5t-69.5 -29.5zM164 1024h135v-1024h-135v1024z" glyph-name="glyph623" horiz-adv-x="462"/><glyph d="M244 1219q-41 0 -71 29.5t-30 70.5t30 70.5t71 29.5t70.5 -29.5t29.5 -70.5t-29.5 -70.5t-70.5 -29.5zM176 1024h135v-1024h-135v1024z" glyph-name="glyph624" horiz-adv-x="552"/><glyph d="M268 1219q-41 0 -70.5 29.5t-29.5 70.5t29.5 70.5t70.5 29.5t71 -29.5t30 -70.5t-30 -70.5t-71 -29.5zM201 1024h135v-1024h-135v1024zM278.5 -379q-40.5 0 -70.5 30t-30 70.5t30 70.5t70.5 30t70.5 -30t30 -70.5t-30 -70.5t-70.5 -30z" glyph-name="glyph625" horiz-adv-x="536"/><glyph d="M-49 1536h143l189 -307h-115zM164 1024h135v-1024h-135v1024z" glyph-name="glyph626" horiz-adv-x="462"/><glyph d="M289 1339q-43 0 -75 33t-32 78t32 78t75 33q45 0 75.5 -32t30.5 -79q0 -45 -30.5 -78t-75.5 -33zM862 1339q-41 0 -69.5 30t-28.5 71q0 39 29.5 68.5t68.5 29.5t69 -29.5t30 -68.5q0 -41 -30 -71t-69 -30zM217 1126h143v-1126h-143v1126zM590 -506v129h45q94 0 123.5 45 t29.5 127v1331h138l2 -1351q0 -281 -293 -281h-45z" glyph-name="glyph627" horiz-adv-x="1171"/><glyph d="M-88 1337h637v-94h-637v94zM164 1024h135v-1024h-135v1024z" glyph-name="glyph628" horiz-adv-x="462"/><glyph d="M231 1219q-41 0 -70.5 29.5t-29.5 70.5t29.5 70.5t70.5 29.5t71 -29.5t30 -70.5t-30 -70.5t-71 -29.5zM418 -432q-106 -104 -264 -100q-100 4 -160 59t-60 149q0 170 238 324h-8v1024h135v-1024h-10q-98 -43 -177 -128t-79 -183q0 -63 36.5 -102.5t104.5 -39.5 q119 0 197 88z" glyph-name="glyph629" horiz-adv-x="462"/><glyph d="M379 1217q-117 0 -184 108q-41 68 -107 68q-53 0 -82 -44t-20 -114h-90q-10 106 44 176t144 70q115 0 184 -109q41 -68 109 -67q51 0 79.5 43t20.5 112h88q12 -106 -41 -174.5t-145 -68.5zM164 1024h135v-1024h-135v1024z" glyph-name="glyph630" horiz-adv-x="462"/><glyph d="M240 1219q-41 0 -71 29.5t-30 70.5t30 70.5t71 29.5t70.5 -29.5t29.5 -70.5t-29.5 -70.5t-70.5 -29.5zM-43 -532v114q106 -6 160.5 45t54.5 205v1192h135v-1192q0 -213 -97 -296.5t-253 -67.5z" glyph-name="glyph631" horiz-adv-x="473"/><glyph d="M90 -532q-80 0 -127 32v121q49 -39 115 -39q68 0 115 49.5t47 118.5v1274h135v-1280q0 -115 -83 -195.5t-202 -80.5z" glyph-name="glyph632" horiz-adv-x="571"/><glyph d="M164 2v1536h135v-973l403 459h170l-442 -481l516 -543h-170l-477 506v-504h-135z" glyph-name="glyph633" horiz-adv-x="946"/><glyph d="M125 0v1536h147v-922l443 512h186l-485 -536l561 -590h-184l-521 549v-549h-147zM481 -348q-68 25 -67 96q0 41 28.5 70.5t71.5 29.5q41 0 68.5 -29.5t27.5 -70.5t-30.5 -103.5t-59.5 -103.5l-31 -43h-43z" glyph-name="glyph634" horiz-adv-x="980"/><glyph d="M207 0l2 1536h133v-1536h-135z" glyph-name="glyph635" horiz-adv-x="540"/><glyph d="M365 2048h141l-215 -307h-115zM195 0l2 1536h137v-1536h-139z" glyph-name="glyph636" horiz-adv-x="626"/><glyph d="M596 1346q-68 25 -68 96q0 41 29 70.5t72 29.5q41 0 68.5 -29.5t27.5 -70.5t-30.5 -103.5t-59.5 -105.5l-31 -41h-43zM195 0l2 1536h137v-1536h-139z" glyph-name="glyph637" horiz-adv-x="808"/><glyph d="M195 0l2 1536h137v-1536h-139zM250 -352q-68 25 -68 96q0 41 29 70.5t72 29.5q41 0 68.5 -29.5t27.5 -70.5t-30 -103.5t-60 -103.5l-31 -43h-43z" glyph-name="glyph638" horiz-adv-x="626"/><glyph d="M195 0l2 1536h137v-1536h-139zM583.5 653q-34.5 0 -59 24.5t-24.5 59.5q0 33 24.5 58.5t59 25.5t59.5 -25.5t25 -58.5q0 -35 -25 -59.5t-59.5 -24.5z" glyph-name="glyph639" horiz-adv-x="770"/><glyph d="M195 0l2 1536h137v-1536h-139zM278.5 -354q-40.5 0 -70.5 29.5t-30 70.5t30 70.5t70.5 29.5t70.5 -29.5t30 -70.5t-30 -70.5t-70.5 -29.5z" glyph-name="glyph640" horiz-adv-x="626"/><glyph d="M565 995l-221 -233l-10 -10v-752h-139v602l-111 -117h-109l220 236l2 815h137v-666l10 11l107 114h114z" glyph-name="glyph641" horiz-adv-x="626"/><glyph d="M1325 1040q164 0 261 -97t97 -261v-682h-135v670q0 115 -68.5 184.5t-185.5 69.5q-123 0 -213 -74t-90 -188v-662h-135v670q0 115 -68.5 184.5t-185.5 69.5q-123 0 -213 -74t-90 -188v-662h-135v1024h125l6 -152q53 74 146.5 121t191.5 47q211 0 317 -215 q53 94 157.5 154.5t217.5 60.5z" glyph-name="glyph642" horiz-adv-x="1843"/><glyph d="M612 1044q170 0 273.5 -103t103.5 -273v-668h-135v655q0 121 -74.5 195t-199.5 74q-131 0 -227.5 -78t-96.5 -197v-649h-135v1024h125l6 -154q55 80 153 127t207 47z" glyph-name="glyph643" horiz-adv-x="1103"/><glyph d="M662 1229h-115l188 307h142zM655 1139q180 0 291 -113t111 -299v-727h-144v715q0 133 -79.5 213t-212.5 80q-139 0 -243 -85t-104 -214v-709h-143v1126h121l18 -178q57 86 162.5 138.5t222.5 52.5z" glyph-name="glyph644" horiz-adv-x="1181"/><glyph d="M526 1186l-204 350h110l168 -272l166 272h111l-205 -350h-146zM655 1139q180 0 291 -113t111 -299v-727h-144v715q0 133 -79.5 213t-212.5 80q-139 0 -243 -85t-104 -214v-709h-143v1126h121l18 -178q57 86 162.5 138.5t222.5 52.5z" glyph-name="glyph645" horiz-adv-x="1181"/><glyph d="M655 1139q180 0 291 -113t111 -299v-727h-144v715q0 133 -79.5 213t-212.5 80q-139 0 -243 -85t-104 -214v-709h-143v1126h121l18 -178q57 86 162.5 138.5t222.5 52.5zM563 -352q-68 25 -67 96q0 41 28.5 70.5t71.5 29.5q41 0 68.5 -29.5t27.5 -70.5t-30.5 -103.5 t-59.5 -103.5l-31 -43h-43z" glyph-name="glyph646" horiz-adv-x="1181"/><glyph d="M600 1219q-41 0 -70.5 29.5t-29.5 70.5t29.5 70.5t70.5 29.5t70.5 -29.5t29.5 -70.5t-29.5 -70.5t-70.5 -29.5zM655 1139q180 0 291 -113t111 -299v-727h-144v715q0 133 -79.5 213t-212.5 80q-139 0 -243 -85t-104 -214v-709h-143v1126h121l18 -178q57 86 162.5 138.5 t222.5 52.5z" glyph-name="glyph647" horiz-adv-x="1181"/><glyph d="M655 1139q180 0 291 -113t111 -299v-727h-144v715q0 133 -79.5 213t-212.5 80q-139 0 -243 -85t-104 -214v-709h-143v1126h121l18 -178q57 86 162.5 138.5t222.5 52.5zM600 -154q39 0 69.5 -29.5t30.5 -70.5t-29.5 -70.5t-70.5 -29.5t-70.5 29.5t-29.5 70.5t29.5 70.5 t70.5 29.5z" glyph-name="glyph648" horiz-adv-x="1181"/><glyph d="M655 1139q180 0 291 -113t111 -299v-905q0 -111 -77 -167t-194 -52v96q135 -8 136 123v178h-9v715q0 133 -79.5 213t-212.5 80q-139 0 -243 -85t-104 -214v-709h-143v1126h121l18 -178q57 86 162.5 138.5t222.5 52.5z" glyph-name="glyph649" horiz-adv-x="1181"/><glyph d="M264 1235q-10 106 43 176t144 70q115 0 184 -109q41 -68 108 -67q51 0 80 43t21 112h88q12 -106 -41 -174.5t-146 -68.5q-117 0 -184 108q-41 68 -106 68q-53 0 -81 -44t-20 -114h-90zM655 1139q180 0 291 -113t111 -299v-727h-144v715q0 133 -79.5 213t-212.5 80 q-139 0 -243 -85t-104 -214v-709h-143v1126h121l18 -178q57 86 162.5 138.5t222.5 52.5z" glyph-name="glyph650" horiz-adv-x="1181"/><glyph d="M532.5 -20q-217.5 0 -354.5 153.5t-137 378.5t137 378.5t354.5 153.5t355.5 -153.5t138 -378.5t-138 -378.5t-355.5 -153.5zM532.5 100q161.5 0 261 119t99.5 293q0 176 -99.5 294t-261 118t-261 -118t-99.5 -294q0 -174 99.5 -293t261 -119z" glyph-name="glyph651" horiz-adv-x="1067"/><glyph d="M715 1536h141l-215 -307h-115zM578 -14q-236 0 -386.5 166.5t-150.5 412.5t150.5 413t386.5 167q238 0 388 -167t150 -413t-150 -412.5t-388 -166.5zM577.5 117q176.5 0 285 129t108.5 319q0 193 -107.5 321t-285.5 128q-176 0 -285 -128t-109 -321q0 -190 108.5 -319 t285 -129z" glyph-name="glyph652" horiz-adv-x="1157"/><glyph d="M256 1536h111l168 -272l165 272h111l-205 -350h-145zM532.5 -20q-217.5 0 -354.5 153.5t-137 378.5t137 378.5t354.5 153.5t355.5 -153.5t138 -378.5t-138 -378.5t-355.5 -153.5zM532.5 100q161.5 0 261 119t99.5 293q0 176 -99.5 294t-261 118t-261 -118t-99.5 -294 q0 -174 99.5 -293t261 -119z" glyph-name="glyph653" horiz-adv-x="1067"/><glyph d="M506 1536h145l205 -350h-115l-161 280l-164 -280h-115zM578 -14q-236 0 -386.5 166.5t-150.5 412.5t150.5 413t386.5 167q238 0 388 -167t150 -413t-150 -412.5t-388 -166.5zM577.5 117q176.5 0 285 129t108.5 319q0 193 -107.5 321t-285.5 128q-176 0 -285 -128 t-109 -321q0 -190 108.5 -319t285 -129z" glyph-name="glyph654" horiz-adv-x="1157"/><glyph d="M399 1219q-41 0 -70.5 29.5t-29.5 70.5t29.5 70.5t70.5 29.5t71 -29.5t30 -70.5t-30 -70.5t-71 -29.5zM758 1219q-41 0 -71 29.5t-30 70.5t30 70.5t71 29.5t69.5 -29.5t28.5 -70.5t-28.5 -70.5t-69.5 -29.5zM578 -14q-236 0 -386.5 166.5t-150.5 412.5t150.5 413 t386.5 167q238 0 388 -167t150 -413t-150 -412.5t-388 -166.5zM577.5 117q176.5 0 285 129t108.5 319q0 193 -107.5 321t-285.5 128q-176 0 -285 -128t-109 -321q0 -190 108.5 -319t285 -129z" glyph-name="glyph655" horiz-adv-x="1157"/><glyph d="M532.5 -20q-217.5 0 -354.5 153.5t-137 378.5t137 378.5t354.5 153.5t355.5 -153.5t138 -378.5t-138 -378.5t-355.5 -153.5zM532.5 100q161.5 0 261 119t99.5 293q0 176 -99.5 294t-261 118t-261 -118t-99.5 -294q0 -174 99.5 -293t261 -119zM534.5 -354 q-40.5 0 -70.5 29.5t-30 70.5t30 70.5t71 29.5q39 0 69.5 -29.5t30.5 -70.5t-30 -70.5t-70.5 -29.5z" glyph-name="glyph656" horiz-adv-x="1067"/><glyph d="M299 1536h141l189 -307h-115zM578 -14q-236 0 -386.5 166.5t-150.5 412.5t150.5 413t386.5 167q238 0 388 -167t150 -413t-150 -412.5t-388 -166.5zM577.5 117q176.5 0 285 129t108.5 319q0 193 -107.5 321t-285.5 128q-176 0 -285 -128t-109 -321q0 -190 108.5 -319 t285 -129z" glyph-name="glyph657" horiz-adv-x="1157"/><glyph d="M627 1536h135l-334 -354h-106zM948 1536h133l-331 -354h-109zM532.5 -20q-217.5 0 -354.5 153.5t-137 378.5t137 378.5t354.5 153.5t355.5 -153.5t138 -378.5t-138 -378.5t-355.5 -153.5zM532.5 100q161.5 0 261 119t99.5 293q0 176 -99.5 294t-261 118t-261 -118 t-99.5 -294q0 -174 99.5 -293t261 -119z" glyph-name="glyph658" horiz-adv-x="1122"/><glyph d="M217 1337h635v-94h-635v94zM532.5 -20q-217.5 0 -354.5 153.5t-137 378.5t137 378.5t354.5 153.5t355.5 -153.5t138 -378.5t-138 -378.5t-355.5 -153.5zM532.5 100q161.5 0 261 119t99.5 293q0 176 -99.5 294t-261 118t-261 -118t-99.5 -294q0 -174 99.5 -293t261 -119z " glyph-name="glyph659" horiz-adv-x="1067"/><glyph d="M911 1024q184 -172 185 -455q0 -248 -147.5 -416.5t-381.5 -168.5q-162 0 -286 86l-86 -131h-84l116 174q-186 168 -186 456q0 248 147.5 417t378.5 169q166 0 289 -88l88 131h82zM180 569q0 -207 123 -340l479 723q-92 70 -215 70q-174 0 -280.5 -130t-106.5 -323z M567 117q174 0 279.5 130t105.5 322q0 207 -118 338l-478 -725q92 -65 211 -65z" glyph-name="glyph660" horiz-adv-x="1136"/><glyph d="M596 1229h-115l189 307h141zM854 926q172 -156 172 -414q0 -225 -138 -378.5t-356 -153.5q-147 0 -268 77l-80 -118h-78l109 157q-174 156 -174 416q0 225 137 378.5t354 153.5q152 0 271 -79l82 118h76zM172 512q0 -190 115 -309l446 657q-86 63 -201 64 q-162 0 -261 -118t-99 -294zM532 100q162 0 261.5 119t99.5 293q0 188 -113 307l-444 -659q85 -60 196 -60z" glyph-name="glyph661" horiz-adv-x="1067"/><glyph d="M725 1217q-117 0 -184 108q-41 68 -107 68q-53 0 -80.5 -44t-19.5 -114h-90q-10 106 43 176t143 70q115 0 184 -109q41 -68 109 -67q51 0 79.5 43t20.5 112h88q12 -106 -41 -174.5t-145 -68.5zM578 -14q-236 0 -386.5 166.5t-150.5 412.5t150.5 413t386.5 167 q238 0 388 -167t150 -413t-150 -412.5t-388 -166.5zM577.5 117q176.5 0 285 129t108.5 319q0 193 -107.5 321t-285.5 128q-176 0 -285 -128t-109 -321q0 -190 108.5 -319t285 -129z" glyph-name="glyph662" horiz-adv-x="1157"/><glyph d="M1997 569q0 -37 -2 -57h-873q2 -186 116 -292.5t249 -108.5q141 -2 226 58t112 157h129q-6 -49 -34 -102.5t-78 -109t-139 -90t-202 -34.5q-170 2 -293 92t-180 242v-70q-68 -129 -188.5 -203t-276.5 -74q-233 0 -383.5 167t-150.5 413t150.5 413t383.5 167 q154 0 276 -75t189 -202v-57q55 152 177 241t292 89q229 0 364.5 -157t135.5 -407zM1124 629h742q-16 172 -111.5 275.5t-255.5 103.5q-162 0 -259.5 -103.5t-115.5 -275.5zM563 109q176 0 284.5 129t108.5 319q0 193 -107.5 321t-285.5 128q-174 0 -282.5 -129 t-108.5 -319.5t108.5 -319.5t282.5 -129z" glyph-name="glyph663" horiz-adv-x="2082"/><glyph d="M666 1044q211 0 342 -152.5t131 -379.5q0 -225 -131 -378.5t-342 -153.5q-238 0 -369 198v-690h-133v1536h133v-178q131 198 369 198zM647 100q162 0 261.5 119t99.5 293q0 176 -99.5 294t-261.5 118q-133 0 -228 -88t-122 -228v-192q27 -139 122 -227.5t228 -88.5z" glyph-name="glyph664" horiz-adv-x="1224"/><glyph d="M727 1044q217 0 369.5 -155.5t152.5 -376.5t-152.5 -376.5t-369.5 -155.5q-135 0 -247.5 65.5t-180.5 177.5v-733h-135v2046h135v-735q68 113 180.5 178t247.5 65zM711 100q170 0 290.5 121t120.5 291q0 172 -120.5 292t-290.5 120t-291 -120t-121 -292q0 -170 121 -291 t291 -121z" glyph-name="glyph665" horiz-adv-x="1333"/><glyph d="M1061 1024v-1536h-131v690q-135 -199 -371 -198q-211 0 -342 153.5t-131 378.5q0 227 131 379.5t342 152.5q236 0 371 -198v178h131zM578 100q133 0 228 88t124 228v192q-29 139 -124 227.5t-228 88.5q-162 0 -261.5 -118t-99.5 -294q0 -174 99.5 -293t261.5 -119z" glyph-name="glyph666" horiz-adv-x="1224"/><glyph d="M645 1040l-2 -112q-158 14 -264.5 -75t-106.5 -257v-596h-135v1024h135v-197q29 63 62 106.5t113.5 78t197.5 28.5z" glyph-name="glyph667" horiz-adv-x="696"/><glyph d="M440 1229h-114l188 307h141zM690 1137l-2 -123q-170 16 -286.5 -82t-116.5 -281v-651h-148v1126h127l21 -223q23 51 47 87t69 76t119 57.5t170 13.5z" glyph-name="glyph668" horiz-adv-x="741"/><glyph d="M342 1186l-205 350h111l168 -272l166 272h110l-205 -350h-145zM707 1137l-2 -123q-170 16 -287 -82t-117 -281v-651h-147v1126h127l20 -223q23 51 47.5 87t69.5 76t119 57.5t170 13.5z" glyph-name="glyph669" horiz-adv-x="757"/><glyph d="M698 1137l-2 -123q-170 16 -286.5 -82t-116.5 -281v-651h-148v1126h127l21 -223q23 51 47.5 87t69.5 76t118.5 57.5t169.5 13.5zM205 -346q-68 25 -68 96q0 41 29 70.5t72 29.5q41 0 68.5 -29.5t27.5 -70.5t-30 -103.5t-60 -105.5l-31 -41h-43z" glyph-name="glyph670" horiz-adv-x="749"/><glyph d="M449 -20q-186 0 -286 97t-108 214h119q10 -76 89 -140.5t185.5 -64.5t177 57.5t70.5 145.5q0 90 -71.5 134t-206.5 66q-147 25 -236.5 83.5t-89.5 185.5q0 131 104.5 208.5t245.5 77.5q334 0 367 -280h-113q-16 90 -88.5 129t-142.5 41q-96 4 -167 -38t-71 -122 q0 -84 67.5 -122t190.5 -56q346 -55 346 -299q0 -133 -110 -225t-272 -92z" glyph-name="glyph671" horiz-adv-x="901"/><glyph d="M627 1536h141l-215 -307h-115zM483 -18q-203 0 -311.5 105.5t-116.5 231.5h129q12 -82 98.5 -152.5t201 -70.5t192.5 62.5t78 158.5q0 98 -78 146.5t-225 73.5q-160 27 -257.5 91t-97.5 201q0 143 114 227.5t267 84.5q180 0 281.5 -78t118.5 -227h-123q-18 98 -97 141 t-155 45q-104 4 -181 -41t-77 -133q0 -92 72.5 -133t207.5 -62q377 -59 377 -325q0 -145 -120 -245.5t-298 -100.5z" glyph-name="glyph672" horiz-adv-x="970"/><glyph d="M213 1536h111l168 -272l165 272h111l-205 -350h-145zM483 -18q-203 0 -311.5 105.5t-116.5 231.5h129q12 -82 98.5 -152.5t201 -70.5t192.5 62.5t78 158.5q0 98 -78 146.5t-225 73.5q-160 27 -257.5 91t-97.5 201q0 143 114 227.5t267 84.5q180 0 281.5 -78t118.5 -227 h-123q-18 98 -97 141t-155 45q-104 4 -181 -41t-77 -133q0 -92 72.5 -133t207.5 -62q377 -59 377 -325q0 -145 -120 -245.5t-298 -100.5z" glyph-name="glyph673" horiz-adv-x="970"/><glyph d="M483 -18q-203 0 -311.5 105.5t-116.5 231.5h129q12 -82 98.5 -152.5t201 -70.5t192.5 62.5t78 158.5q0 98 -78 146.5t-225 73.5q-160 27 -257.5 91t-97.5 201q0 143 114 227.5t267 84.5q180 0 281.5 -78t118.5 -227h-123q-18 98 -97 141t-155 45q-104 4 -181 -41 t-77 -133q0 -92 72.5 -133t207.5 -62q377 -59 377 -325q0 -145 -120 -245.5t-298 -100.5zM524 -18l-57 -125q109 23 185.5 -31.5t76.5 -153.5q0 -86 -59.5 -145t-145.5 -59q-66 0 -133 34.5t-100 85.5l65 33q27 -33 75 -56.5t93 -23.5q55 0 92 38t37 93q0 78 -63.5 109 t-155.5 -2l-63 45l75 158h78z" glyph-name="glyph674" horiz-adv-x="970"/><glyph d="M483 -18q-203 0 -311.5 105.5t-116.5 231.5h129q12 -82 98.5 -152.5t201 -70.5t192.5 62.5t78 158.5q0 98 -78 146.5t-225 73.5q-160 27 -257.5 91t-97.5 201q0 143 114 227.5t267 84.5q180 0 281.5 -78t118.5 -227h-123q-18 98 -97 141t-155 45q-104 4 -181 -41 t-77 -133q0 -92 72.5 -133t207.5 -62q377 -59 377 -325q0 -145 -120 -245.5t-298 -100.5zM457 -342q-68 25 -68 96q0 41 28.5 71t71.5 30q41 0 69 -30t28 -71t-31 -103.5t-59 -105.5l-31 -41h-43z" glyph-name="glyph675" horiz-adv-x="970"/><glyph d="M483 -18q-203 0 -311.5 105.5t-116.5 231.5h129q12 -82 98.5 -152.5t201 -70.5t192.5 62.5t78 158.5q0 98 -78 146.5t-225 73.5q-160 27 -257.5 91t-97.5 201q0 143 114 227.5t267 84.5q180 0 281.5 -78t118.5 -227h-123q-18 98 -97 141t-155 45q-104 4 -181 -41 t-77 -133q0 -92 72.5 -133t207.5 -62q377 -59 377 -325q0 -145 -120 -245.5t-298 -100.5zM496 -354q-41 0 -71 29.5t-30 70.5t30 70.5t71 29.5t70.5 -29.5t29.5 -70.5t-29.5 -70.5t-70.5 -29.5z" glyph-name="glyph676" horiz-adv-x="970"/><glyph d="M938 780q119 -49 191.5 -153.5t72.5 -233.5q0 -172 -117.5 -292.5t-279.5 -120.5q-88 0 -181.5 37.5t-150.5 97.5l62 98q43 -45 110.5 -76t136.5 -31q115 2 200 86t85 207q0 125 -90 213t-219 88h-127v115h53q125 0 213 89t88 216t-90 211t-231 84q-145 0 -241.5 -87 t-96.5 -220v-1108h-133v1108q0 184 133 306t336 122q197 0 324.5 -118t127.5 -294q0 -219 -176 -344z" glyph-name="glyph677" horiz-adv-x="1351"/><glyph d="M573 -10q-141 -47 -265 20.5t-124 255.5v652h-141v106h141v348h135v-348h265v-106h-265v-652q0 -88 38 -133t95.5 -46t122.5 15z" glyph-name="glyph678" horiz-adv-x="659"/><glyph d="M631 461h-279v-162q0 -41 4 -65.5t17.5 -52t47.5 -41t87 -13.5h119v-129h-119q-295 0 -295 281v182h-160v100h160l2 455h-172v114h172v406h143v-406h252v-116l-258 2v-455h279v-100z" glyph-name="glyph679" horiz-adv-x="706"/><glyph d="M541 1372q-68 25 -68 96q0 41 28.5 71t71.5 30q41 0 69 -30t28 -71t-30 -103t-60 -103l-31 -43h-43zM508 -2q-295 0 -295 281l2 737h-172v114h172v406h143v-406h252v-116l-258 2v-717q0 -41 4 -65.5t17.5 -52t47.5 -41t87 -13.5h119v-129h-119z" glyph-name="glyph680" horiz-adv-x="745"/><glyph d="M508 -2q-295 0 -295 281l2 737h-172v114h172v406h143v-406h252v-116l-258 2v-717q0 -41 4 -65.5t17.5 -52t47.5 -41t87 -13.5h119v-129h-119zM420 -143q109 23 185.5 -31.5t76.5 -153.5q0 -86 -59.5 -145t-145.5 -59q-66 0 -133.5 34.5t-99.5 85.5l65 33q27 -33 75 -56.5 t93 -23.5q55 0 92 38t37 93q0 78 -63.5 109t-155.5 -2l-63 45l77 160l76 -4z" glyph-name="glyph681" horiz-adv-x="757"/><glyph d="M508 -2q-295 0 -295 281l2 737h-172v114h172v406h143v-406h252v-116l-258 2v-717q0 -41 4 -65.5t17.5 -52t47.5 -41t87 -13.5h119v-129h-119zM369 -340q-68 25 -68 96q0 41 28.5 71t71.5 30q41 0 69 -30t28 -71t-30 -103.5t-60 -103.5l-31 -43h-43z" glyph-name="glyph682" horiz-adv-x="702"/><glyph d="M508 -2q-295 0 -295 281l2 737h-172v114h172v406h143v-406h252v-116l-258 2v-717q0 -41 4 -65.5t17.5 -52t47.5 -41t87 -13.5h119v-129h-119zM408 -154q39 0 69.5 -29.5t30.5 -70.5t-29.5 -70.5t-70.5 -29.5t-71 29.5t-30 70.5t30 70.5t71 29.5z" glyph-name="glyph683" horiz-adv-x="702"/><glyph d="M977 1024v-1024h-123l-8 156q-55 -80 -152.5 -128t-201.5 -48q-168 0 -275.5 107.5t-107.5 274.5v662h135v-647q0 -123 75.5 -200t200.5 -77q129 0 226.5 79t97.5 198v647h133z" glyph-name="glyph684" horiz-adv-x="1085"/><glyph d="M664 1229h-115l188 307h142zM1057 1126v-1126h-127l-17 180q-59 -86 -165.5 -139t-219.5 -53q-184 0 -300.5 117.5t-116.5 300.5v720h147v-704q0 -135 83 -219t218 -84q141 0 246.5 86t105.5 217v704h146z" glyph-name="glyph685" horiz-adv-x="1163"/><glyph d="M528 1186l-204 350h110l168 -272l166 272h111l-205 -350h-146zM1057 1126v-1126h-127l-17 180q-59 -86 -165.5 -139t-219.5 -53q-184 0 -300.5 117.5t-116.5 300.5v720h147v-704q0 -135 83 -219t218 -84q141 0 246.5 86t105.5 217v704h146z" glyph-name="glyph686" horiz-adv-x="1163"/><glyph d="M438 1186h-114l204 350h146l205 -350h-115l-162 280zM1057 1126v-1126h-127l-17 180q-59 -86 -165.5 -139t-219.5 -53q-184 0 -300.5 117.5t-116.5 300.5v720h147v-704q0 -135 83 -219t218 -84q141 0 246.5 86t105.5 217v704h146z" glyph-name="glyph687" horiz-adv-x="1163"/><glyph d="M422 1219q-41 0 -70.5 29.5t-29.5 70.5t29.5 70.5t70.5 29.5t70.5 -29.5t29.5 -70.5t-29.5 -70.5t-70.5 -29.5zM780 1219q-41 0 -70.5 29.5t-29.5 70.5t29.5 70.5t70.5 29.5t70 -29.5t29 -70.5t-29 -70.5t-70 -29.5zM1057 1126v-1126h-127l-17 180q-59 -86 -165.5 -139 t-219.5 -53q-184 0 -300.5 117.5t-116.5 300.5v720h147v-704q0 -135 83 -219t218 -84q141 0 246.5 86t105.5 217v704h146z" glyph-name="glyph688" horiz-adv-x="1163"/><glyph d="M537 1229l-215 307h141l188 -307h-114zM1057 1126v-1126h-127l-17 180q-59 -86 -165.5 -139t-219.5 -53q-184 0 -300.5 117.5t-116.5 300.5v720h147v-704q0 -135 83 -219t218 -84q141 0 246.5 86t105.5 217v704h146z" glyph-name="glyph689" horiz-adv-x="1163"/><glyph d="M496 1182h-107l305 354h135zM709 1182l307 354h133l-332 -354h-108zM1057 1126v-1126h-127l-17 180q-59 -86 -165.5 -139t-219.5 -53q-184 0 -300.5 117.5t-116.5 300.5v720h147v-704q0 -135 83 -219t218 -84q141 0 246.5 86t105.5 217v704h146z" glyph-name="glyph690" horiz-adv-x="1257"/><glyph d="M920 1243h-635v94h635v-94zM1057 1126v-1126h-127l-17 180q-59 -86 -165.5 -139t-219.5 -53q-184 0 -300.5 117.5t-116.5 300.5v720h147v-704q0 -135 83 -219t218 -84q141 0 246.5 86t105.5 217v704h146z" glyph-name="glyph691" horiz-adv-x="1163"/><glyph d="M1118 -365l47 -67q-106 -104 -264 -100q-100 4 -158.5 59t-58.5 149q0 176 227 324h19l-17 180q-59 -86 -165.5 -139t-219.5 -53q-184 0 -300.5 117.5t-116.5 300.5v720h147v-704q0 -135 83 -219t218 -84q141 0 246.5 86t105.5 217v704h146v-1126h-23q-98 -43 -176 -128 t-78 -183q0 -63 37 -102.5t105 -39.5q118 0 196 88z" glyph-name="glyph692" horiz-adv-x="1273"/><glyph d="M602 1149q-82 0 -140.5 58.5t-58.5 138.5q0 82 58.5 140t140.5 58q80 0 137.5 -58.5t57.5 -139.5q0 -80 -57.5 -138.5t-137.5 -58.5zM602 1477q-53 0 -91 -39t-38 -92.5t38 -90t91 -36.5t90 36.5t37 90t-38 92.5t-89 39zM1057 1126v-1126h-127l-17 180 q-59 -86 -165.5 -139t-219.5 -53q-184 0 -300.5 117.5t-116.5 300.5v720h147v-704q0 -135 83 -219t218 -84q141 0 246.5 86t105.5 217v704h146z" glyph-name="glyph693" horiz-adv-x="1163"/><glyph d="M983 1024l-412 -1024h-131l-409 1024h145l332 -864l332 864h143z" glyph-name="glyph694" horiz-adv-x="1013"/><glyph d="M1446 1024l-309 -1024h-150l-235 864l-232 -864h-147l-312 1024h150l244 -862l229 862h143l228 -866l243 866h148z" glyph-name="glyph695" horiz-adv-x="1505"/><glyph d="M811 1229h-115l189 307h141zM1589 1116l-336 -1116h-163l-256 942l-252 -942h-162l-338 1116h162l266 -938l250 938h155l248 -944l267 944h159z" glyph-name="glyph696" horiz-adv-x="1652"/><glyph d="M586 1186h-115l205 350h145l205 -350h-115l-161 280zM1589 1116l-336 -1116h-163l-256 942l-252 -942h-162l-338 1116h162l266 -938l250 938h155l248 -944l267 944h159z" glyph-name="glyph697" horiz-adv-x="1652"/><glyph d="M571 1219q-41 0 -70.5 29.5t-29.5 70.5t29.5 70.5t70.5 29.5t71 -29.5t30 -70.5t-30 -70.5t-71 -29.5zM930 1219q-41 0 -71 29.5t-30 70.5t30 70.5t71 29.5t69.5 -29.5t28.5 -70.5t-28.5 -70.5t-69.5 -29.5zM1589 1116l-336 -1116h-163l-256 942l-252 -942h-162 l-338 1116h162l266 -938l250 938h155l248 -944l267 944h159z" glyph-name="glyph698" horiz-adv-x="1652"/><glyph d="M666 1229l-215 307h141l188 -307h-114zM1589 1116l-336 -1116h-163l-256 942l-252 -942h-162l-338 1116h162l266 -938l250 938h155l248 -944l267 944h159z" glyph-name="glyph699" horiz-adv-x="1652"/><glyph d="M532 512l375 -512h-164l-292 414l-291 -414h-166l375 512l-375 512h164l293 -414l292 414h164z" glyph-name="glyph700" horiz-adv-x="1024"/><glyph d="M1018 1024l-610 -1536h-123l202 512l-442 1024h145l359 -854l336 854h133z" glyph-name="glyph701" horiz-adv-x="1052"/><glyph d="M623 1229h-115l188 307h142zM1069 1126l-666 -1638h-137l236 573h-43l-445 1065h148l391 -936l367 936h149z" glyph-name="glyph702" horiz-adv-x="1138"/><glyph d="M377 1186h-115l205 350h145l205 -350h-115l-161 280zM1069 1126l-666 -1638h-137l236 573h-43l-445 1065h148l391 -936l367 936h149z" glyph-name="glyph703" horiz-adv-x="1138"/><glyph d="M381 1219q-41 0 -70.5 29.5t-29.5 70.5t29.5 70.5t70.5 29.5t70.5 -29.5t29.5 -70.5t-29.5 -70.5t-70.5 -29.5zM739 1219q-41 0 -70.5 29.5t-29.5 70.5t29.5 70.5t70.5 29.5t70 -29.5t29 -70.5t-29 -70.5t-70 -29.5zM1069 1126l-666 -1638h-137l236 573h-43l-445 1065 h148l391 -936l367 936h149z" glyph-name="glyph704" horiz-adv-x="1138"/></font>
</defs>
</svg>
